<?xml version="1.0" encoding="UTF-8" standalone="no"?>
<!-- Created with Inkscape (http://www.inkscape.org/) -->

<svg
   xmlns:ns0="http://www.iki.fi/pav/software/textext/"
   xmlns:dc="http://purl.org/dc/elements/1.1/"
   xmlns:cc="http://creativecommons.org/ns#"
   xmlns:rdf="http://www.w3.org/1999/02/22-rdf-syntax-ns#"
   xmlns:svg="http://www.w3.org/2000/svg"
   xmlns="http://www.w3.org/2000/svg"
   xmlns:xlink="http://www.w3.org/1999/xlink"
   xmlns:sodipodi="http://sodipodi.sourceforge.net/DTD/sodipodi-0.dtd"
   xmlns:inkscape="http://www.inkscape.org/namespaces/inkscape"
   width="460.62991"
   height="212.59842"
   id="svg2989"
   version="1.1"
   inkscape:version="0.48.4 r9939"
   sodipodi:docname="New document 2">
  <sodipodi:namedview
     id="base"
     pagecolor="#ffffff"
     bordercolor="#666666"
     borderopacity="1.0"
     inkscape:pageopacity="0.0"
     inkscape:pageshadow="2"
     inkscape:zoom="0.7"
     inkscape:cx="308.14202"
     inkscape:cy="-61.363104"
     inkscape:document-units="px"
     inkscape:current-layer="layer1"
     showgrid="false"
     units="cm"
     inkscape:window-width="1360"
     inkscape:window-height="744"
     inkscape:window-x="0"
     inkscape:window-y="24"
     inkscape:window-maximized="1" />
  <defs
     id="defs2991" />
  <metadata
     id="metadata2994">
    <rdf:RDF>
      <cc:Work
         rdf:about="">
        <dc:format>image/svg+xml</dc:format>
        <dc:type
           rdf:resource="http://purl.org/dc/dcmitype/StillImage" />
        <dc:title></dc:title>
      </cc:Work>
    </rdf:RDF>
  </metadata>
  <g
     transform="translate(0,-839.76245)"
     id="layer1"
     inkscape:groupmode="layer"
     inkscape:label="Layer 1">
    <path
       inkscape:connector-curvature="0"
       id="path3015"
       d="m 33.220248,961.94401 394.988072,0"
       style="fill:none;stroke:#000000;stroke-width:1;stroke-linecap:butt;stroke-linejoin:miter;stroke-opacity:1;stroke-miterlimit:4;stroke-dasharray:none" />
    <path
       inkscape:connector-curvature="0"
       id="path3017"
       d="m 60.500286,962.68636 0,-36.36495"
       style="fill:none;stroke:#000000;stroke-width:1;stroke-linecap:butt;stroke-linejoin:miter;stroke-opacity:1;stroke-miterlimit:4;stroke-dasharray:none" />
    <path
       inkscape:connector-curvature="0"
       id="path3019"
       d="m 79.641539,962.64473 0,-52.4197"
       style="fill:none;stroke:#000000;stroke-width:1;stroke-linecap:butt;stroke-linejoin:miter;stroke-opacity:1;stroke-miterlimit:4;stroke-dasharray:none" />
    <path
       inkscape:connector-curvature="0"
       id="path3021"
       d="m 97.965727,962.8541 0,-37.14905"
       style="fill:none;stroke:#000000;stroke-width:1;stroke-linecap:butt;stroke-linejoin:miter;stroke-opacity:1;stroke-miterlimit:4;stroke-dasharray:none" />
    <path
       inkscape:connector-curvature="0"
       id="path3023"
       d="m 138.27895,995.34713 0,-34.22318"
       style="fill:none;stroke:#000000;stroke-width:1;stroke-linecap:butt;stroke-linejoin:miter;stroke-opacity:1;stroke-miterlimit:4;stroke-dasharray:none" />
    <path
       inkscape:connector-curvature="0"
       id="path3025"
       d="m 154.38494,960.74714 0,54.54426"
       style="fill:none;stroke:#000000;stroke-width:1;stroke-linecap:butt;stroke-linejoin:miter;stroke-miterlimit:4;stroke-opacity:1;stroke-dasharray:none" />
    <path
       inkscape:connector-curvature="0"
       id="path3027"
       d="m 171.66967,960.63093 0,35.03474"
       style="fill:none;stroke:#000000;stroke-width:1;stroke-linecap:butt;stroke-linejoin:miter;stroke-opacity:1;stroke-miterlimit:4;stroke-dasharray:none" />
    <path
       inkscape:connector-curvature="0"
       id="path3029"
       d="m 209.04318,962.40725 0,-36.12115"
       style="fill:none;stroke:#000000;stroke-width:1;stroke-linecap:butt;stroke-linejoin:miter;stroke-opacity:1;stroke-miterlimit:4;stroke-dasharray:none" />
    <path
       inkscape:connector-curvature="0"
       id="path3031"
       d="m 229.0818,962.70043 -0.39986,-53.18188"
       style="fill:none;stroke:#000000;stroke-width:1;stroke-linecap:butt;stroke-linejoin:miter;stroke-opacity:1;stroke-miterlimit:4;stroke-dasharray:none" />
    <path
       inkscape:connector-curvature="0"
       id="path3033"
       d="m 249.44568,962.44689 0,-36.67354"
       style="fill:none;stroke:#000000;stroke-width:1;stroke-linecap:butt;stroke-linejoin:miter;stroke-opacity:1;stroke-miterlimit:4;stroke-dasharray:none" />
    <path
       inkscape:connector-curvature="0"
       id="path3035"
       d="m 293.42375,961.5368 0,35.01957"
       style="fill:none;stroke:#000000;stroke-width:1;stroke-linecap:butt;stroke-linejoin:miter;stroke-opacity:1;stroke-miterlimit:4;stroke-dasharray:none" />
    <path
       inkscape:connector-curvature="0"
       id="path3037"
       d="m 313.37674,961.1429 0,53.328"
       style="fill:none;stroke:#000000;stroke-width:1;stroke-linecap:butt;stroke-linejoin:miter;stroke-opacity:1;stroke-miterlimit:4;stroke-dasharray:none" />
    <path
       inkscape:connector-curvature="0"
       id="path3039"
       d="m 334.29687,961.55115 0,33.99429"
       style="fill:none;stroke:#000000;stroke-width:1;stroke-linecap:butt;stroke-linejoin:miter;stroke-opacity:1;stroke-miterlimit:4;stroke-dasharray:none" />
    <path
       inkscape:connector-curvature="0"
       id="path3041"
       d="m 379.30864,962.49928 0,-36.3711"
       style="fill:none;stroke:#000000;stroke-width:1;stroke-linecap:butt;stroke-linejoin:miter;stroke-opacity:1;stroke-miterlimit:4;stroke-dasharray:none" />
    <path
       inkscape:connector-curvature="0"
       id="path3043"
       d="m 405.8121,962.72654 0,-52.78921"
       style="fill:none;stroke:#000000;stroke-width:1;stroke-linecap:butt;stroke-linejoin:miter;stroke-opacity:1;stroke-miterlimit:4;stroke-dasharray:none" />
    <path
       d="m 70.357142,40.276989 c 0,1.28209 -1.039339,2.321429 -2.321429,2.321429 -1.282089,0 -2.321428,-1.039339 -2.321428,-2.321429 0,-1.28209 1.039339,-2.321429 2.321428,-2.321429 1.28209,0 2.321429,1.039339 2.321429,2.321429 z"
       sodipodi:ry="2.3214285"
       sodipodi:rx="2.3214285"
       sodipodi:cy="40.276989"
       sodipodi:cx="68.035713"
       id="path3893-0"
       style="stroke-width:1;stroke-miterlimit:4;stroke-dasharray:none;stroke-dashoffset:0"
       sodipodi:type="arc"
       transform="translate(-7.8571417,885.65531)" />
    <path
       d="m 70.357142,40.276989 c 0,1.28209 -1.039339,2.321429 -2.321429,2.321429 -1.282089,0 -2.321428,-1.039339 -2.321428,-2.321429 0,-1.28209 1.039339,-2.321429 2.321428,-2.321429 1.28209,0 2.321429,1.039339 2.321429,2.321429 z"
       sodipodi:ry="2.3214285"
       sodipodi:rx="2.3214285"
       sodipodi:cy="40.276989"
       sodipodi:cx="68.035713"
       id="path3893-9"
       style="stroke-width:1;stroke-miterlimit:4;stroke-dasharray:none;stroke-dashoffset:0"
       sodipodi:type="arc"
       transform="translate(11.785715,869.22674)" />
    <path
       d="m 70.357142,40.276989 c 0,1.28209 -1.039339,2.321429 -2.321429,2.321429 -1.282089,0 -2.321428,-1.039339 -2.321428,-2.321429 0,-1.28209 1.039339,-2.321429 2.321428,-2.321429 1.28209,0 2.321429,1.039339 2.321429,2.321429 z"
       sodipodi:ry="2.3214285"
       sodipodi:rx="2.3214285"
       sodipodi:cy="40.276989"
       sodipodi:cx="68.035713"
       id="path3893-1"
       style="stroke-width:1;stroke-miterlimit:4;stroke-dasharray:none;stroke-dashoffset:0"
       sodipodi:type="arc"
       transform="translate(30.178573,885.65531)" />
    <path
       d="m 70.357142,40.276989 c 0,1.28209 -1.039339,2.321429 -2.321429,2.321429 -1.282089,0 -2.321428,-1.039339 -2.321428,-2.321429 0,-1.28209 1.039339,-2.321429 2.321428,-2.321429 1.28209,0 2.321429,1.039339 2.321429,2.321429 z"
       sodipodi:ry="2.3214285"
       sodipodi:rx="2.3214285"
       sodipodi:cy="40.276989"
       sodipodi:cx="68.035713"
       id="path3893-08"
       style="stroke-width:1;stroke-miterlimit:4;stroke-dasharray:none;stroke-dashoffset:0"
       sodipodi:type="arc"
       transform="translate(49.285716,921.19102)" />
    <path
       d="m 70.357142,40.276989 c 0,1.28209 -1.039339,2.321429 -2.321429,2.321429 -1.282089,0 -2.321428,-1.039339 -2.321428,-2.321429 0,-1.28209 1.039339,-2.321429 2.321428,-2.321429 1.28209,0 2.321429,1.039339 2.321429,2.321429 z"
       sodipodi:ry="2.3214285"
       sodipodi:rx="2.3214285"
       sodipodi:cy="40.276989"
       sodipodi:cx="68.035713"
       id="path3893-8"
       style="stroke-width:1;stroke-miterlimit:4;stroke-dasharray:none;stroke-dashoffset:0"
       sodipodi:type="arc"
       transform="translate(70.357145,955.47674)" />
    <path
       d="m 70.357142,40.276989 c 0,1.28209 -1.039339,2.321429 -2.321429,2.321429 -1.282089,0 -2.321428,-1.039339 -2.321428,-2.321429 0,-1.28209 1.039339,-2.321429 2.321428,-2.321429 1.28209,0 2.321429,1.039339 2.321429,2.321429 z"
       sodipodi:ry="2.3214285"
       sodipodi:rx="2.3214285"
       sodipodi:cy="40.276989"
       sodipodi:cx="68.035713"
       id="path3893-83"
       style="stroke-width:1;stroke-miterlimit:4;stroke-dasharray:none;stroke-dashoffset:0"
       sodipodi:type="arc"
       transform="translate(86.428572,974.04817)" />
    <path
       d="m 70.357142,40.276989 c 0,1.28209 -1.039339,2.321429 -2.321429,2.321429 -1.282089,0 -2.321428,-1.039339 -2.321428,-2.321429 0,-1.28209 1.039339,-2.321429 2.321428,-2.321429 1.28209,0 2.321429,1.039339 2.321429,2.321429 z"
       sodipodi:ry="2.3214285"
       sodipodi:rx="2.3214285"
       sodipodi:cy="40.276989"
       sodipodi:cx="68.035713"
       id="path3893-01"
       style="stroke-width:1;stroke-miterlimit:4;stroke-dasharray:none;stroke-dashoffset:0"
       sodipodi:type="arc"
       transform="translate(103.75001,956.19102)" />
    <path
       d="m 70.357142,40.276989 c 0,1.28209 -1.039339,2.321429 -2.321429,2.321429 -1.282089,0 -2.321428,-1.039339 -2.321428,-2.321429 0,-1.28209 1.039339,-2.321429 2.321428,-2.321429 1.28209,0 2.321429,1.039339 2.321429,2.321429 z"
       sodipodi:ry="2.3214285"
       sodipodi:rx="2.3214285"
       sodipodi:cy="40.276989"
       sodipodi:cx="68.035713"
       id="path3893-2"
       style="stroke-width:1;stroke-miterlimit:4;stroke-dasharray:none;stroke-dashoffset:0"
       sodipodi:type="arc"
       transform="translate(123.92858,921.54816)" />
    <path
       d="m 70.357142,40.276989 c 0,1.28209 -1.039339,2.321429 -2.321429,2.321429 -1.282089,0 -2.321428,-1.039339 -2.321428,-2.321429 0,-1.28209 1.039339,-2.321429 2.321428,-2.321429 1.28209,0 2.321429,1.039339 2.321429,2.321429 z"
       sodipodi:ry="2.3214285"
       sodipodi:rx="2.3214285"
       sodipodi:cy="40.276989"
       sodipodi:cx="68.035713"
       id="path3893-3"
       style="stroke-width:1;stroke-miterlimit:4;stroke-dasharray:none;stroke-dashoffset:0"
       sodipodi:type="arc"
       transform="translate(141.07143,885.47673)" />
    <path
       d="m 70.357142,40.276989 c 0,1.28209 -1.039339,2.321429 -2.321429,2.321429 -1.282089,0 -2.321428,-1.039339 -2.321428,-2.321429 0,-1.28209 1.039339,-2.321429 2.321428,-2.321429 1.28209,0 2.321429,1.039339 2.321429,2.321429 z"
       sodipodi:ry="2.3214285"
       sodipodi:rx="2.3214285"
       sodipodi:cy="40.276989"
       sodipodi:cx="68.035713"
       id="path3893-15"
       style="stroke-width:1;stroke-miterlimit:4;stroke-dasharray:none;stroke-dashoffset:0"
       sodipodi:type="arc"
       transform="translate(160.53571,869.4053)" />
    <path
       d="m 70.357142,40.276989 c 0,1.28209 -1.039339,2.321429 -2.321429,2.321429 -1.282089,0 -2.321428,-1.039339 -2.321428,-2.321429 0,-1.28209 1.039339,-2.321429 2.321428,-2.321429 1.28209,0 2.321429,1.039339 2.321429,2.321429 z"
       sodipodi:ry="2.3214285"
       sodipodi:rx="2.3214285"
       sodipodi:cy="40.276989"
       sodipodi:cx="68.035713"
       id="path3893-4"
       style="stroke-width:1;stroke-miterlimit:4;stroke-dasharray:none;stroke-dashoffset:0"
       sodipodi:type="arc"
       transform="translate(181.60714,885.65531)" />
    <path
       d="m 70.357142,40.276989 c 0,1.28209 -1.039339,2.321429 -2.321429,2.321429 -1.282089,0 -2.321428,-1.039339 -2.321428,-2.321429 0,-1.28209 1.039339,-2.321429 2.321428,-2.321429 1.28209,0 2.321429,1.039339 2.321429,2.321429 z"
       sodipodi:ry="2.3214285"
       sodipodi:rx="2.3214285"
       sodipodi:cy="40.276989"
       sodipodi:cx="68.035713"
       id="path3893-85"
       style="stroke-width:1;stroke-miterlimit:4;stroke-dasharray:none;stroke-dashoffset:0"
       sodipodi:type="arc"
       transform="translate(203.75,921.72674)" />
    <path
       d="m 70.357142,40.276989 c 0,1.28209 -1.039339,2.321429 -2.321429,2.321429 -1.282089,0 -2.321428,-1.039339 -2.321428,-2.321429 0,-1.28209 1.039339,-2.321429 2.321428,-2.321429 1.28209,0 2.321429,1.039339 2.321429,2.321429 z"
       sodipodi:ry="2.3214285"
       sodipodi:rx="2.3214285"
       sodipodi:cy="40.276989"
       sodipodi:cx="68.035713"
       id="path3893-6"
       style="stroke-width:1;stroke-miterlimit:4;stroke-dasharray:none;stroke-dashoffset:0"
       sodipodi:type="arc"
       transform="translate(225.35714,955.47674)" />
    <path
       d="m 70.357142,40.276989 c 0,1.28209 -1.039339,2.321429 -2.321429,2.321429 -1.282089,0 -2.321428,-1.039339 -2.321428,-2.321429 0,-1.28209 1.039339,-2.321429 2.321428,-2.321429 1.28209,0 2.321429,1.039339 2.321429,2.321429 z"
       sodipodi:ry="2.3214285"
       sodipodi:rx="2.3214285"
       sodipodi:cy="40.276989"
       sodipodi:cx="68.035713"
       id="path3893-5"
       style="stroke-width:1;stroke-miterlimit:4;stroke-dasharray:none;stroke-dashoffset:0"
       sodipodi:type="arc"
       transform="translate(245.89286,974.04816)" />
    <path
       d="m 70.357142,40.276989 c 0,1.28209 -1.039339,2.321429 -2.321429,2.321429 -1.282089,0 -2.321428,-1.039339 -2.321428,-2.321429 0,-1.28209 1.039339,-2.321429 2.321428,-2.321429 1.28209,0 2.321429,1.039339 2.321429,2.321429 z"
       sodipodi:ry="2.3214285"
       sodipodi:rx="2.3214285"
       sodipodi:cy="40.276989"
       sodipodi:cx="68.035713"
       id="path3893-44"
       style="stroke-width:1;stroke-miterlimit:4;stroke-dasharray:none;stroke-dashoffset:0"
       sodipodi:type="arc"
       transform="translate(266.42858,955.6553)" />
    <path
       d="m 70.357142,40.276989 c 0,1.28209 -1.039339,2.321429 -2.321429,2.321429 -1.282089,0 -2.321428,-1.039339 -2.321428,-2.321429 0,-1.28209 1.039339,-2.321429 2.321428,-2.321429 1.28209,0 2.321429,1.039339 2.321429,2.321429 z"
       sodipodi:ry="2.3214285"
       sodipodi:rx="2.3214285"
       sodipodi:cy="40.276989"
       sodipodi:cx="68.035713"
       id="path3893-69"
       style="stroke-width:1;stroke-miterlimit:4;stroke-dasharray:none;stroke-dashoffset:0"
       sodipodi:type="arc"
       transform="translate(311.07143,886.01245)" />
    <path
       d="m 70.357142,40.276989 c 0,1.28209 -1.039339,2.321429 -2.321429,2.321429 -1.282089,0 -2.321428,-1.039339 -2.321428,-2.321429 0,-1.28209 1.039339,-2.321429 2.321428,-2.321429 1.28209,0 2.321429,1.039339 2.321429,2.321429 z"
       sodipodi:ry="2.3214285"
       sodipodi:rx="2.3214285"
       sodipodi:cy="40.276989"
       sodipodi:cx="68.035713"
       id="path3893-05"
       style="stroke-width:1;stroke-miterlimit:4;stroke-dasharray:none;stroke-dashoffset:0"
       sodipodi:type="arc"
       transform="translate(337.67857,869.40531)" />
    <path
       d="m 70.357142,40.276989 c 0,1.28209 -1.039339,2.321429 -2.321429,2.321429 -1.282089,0 -2.321428,-1.039339 -2.321428,-2.321429 0,-1.28209 1.039339,-2.321429 2.321428,-2.321429 1.28209,0 2.321429,1.039339 2.321429,2.321429 z"
       sodipodi:ry="2.3214285"
       sodipodi:rx="2.3214285"
       sodipodi:cy="40.276989"
       sodipodi:cx="68.035713"
       id="path3893-85-7"
       style="stroke-width:1;stroke-miterlimit:4;stroke-dasharray:none;stroke-dashoffset:0"
       sodipodi:type="arc"
       transform="translate(289.94706,921.61035)" />
    <g
       transform="matrix(1.2,0,0,1.2,434.56968,964.24342)"
       style="fill:#000000;fill-opacity:1"
       id="use10639">
      <path
         id="path4265"
         d="m 1.09375,-3.421875 0,2.671875 c 0,0.4375 -0.109375,0.4375 -0.78125,0.4375 l 0,0.3125 c 0.359375,-0.015625 0.859375,-0.03125 1.140625,-0.03125 0.25,0 0.765625,0.015625 1.109375,0.03125 l 0,-0.3125 c -0.671875,0 -0.78125,0 -0.78125,-0.4375 l 0,-1.84375 C 1.78125,-3.625 2.5,-4.1875 3.125,-4.1875 c 0.640625,0 0.75,0.53125 0.75,1.109375 l 0,2.328125 c 0,0.4375 -0.109375,0.4375 -0.78125,0.4375 l 0,0.3125 c 0.34375,-0.015625 0.859375,-0.03125 1.125,-0.03125 0.25,0 0.78125,0.015625 1.109375,0.03125 l 0,-0.3125 c -0.515625,0 -0.765625,0 -0.765625,-0.296875 l 0,-1.90625 c 0,-0.859375 0,-1.15625 -0.3125,-1.515625 -0.140625,-0.171875 -0.46875,-0.375 -1.046875,-0.375 C 2.46875,-4.40625 2,-3.984375 1.71875,-3.359375 l 0,-1.046875 -1.40625,0.109375 0,0.3125 c 0.703125,0 0.78125,0.0625 0.78125,0.5625 z m 0,0"
         style="stroke:none"
         inkscape:connector-curvature="0" />
    </g>
    <g
       transform="matrix(1.2,0,0,1.2,-36.870568,744.48242)"
       ns0:text="1 $-1$ $0.707$ $-0.707$"
       ns0:preamble="/home/sriranga/Desktop/TIFR-figure/preface.tex"
       id="g4728">
      <defs
         id="defs4730">
        <g
           id="g4732">
          <symbol
             style="overflow:visible"
             overflow="visible"
             id="textext-6ed169a7-0">
            <path
               inkscape:connector-curvature="0"
               style="stroke:none"
               d=""
               id="path4735" />
          </symbol>
          <symbol
             style="overflow:visible"
             overflow="visible"
             id="textext-6ed169a7-1">
            <path
               inkscape:connector-curvature="0"
               style="stroke:none"
               d="m 2.9375,-6.375 c 0,-0.25 0,-0.265625 -0.234375,-0.265625 C 2.078125,-6 1.203125,-6 0.890625,-6 l 0,0.3125 c 0.203125,0 0.78125,0 1.296875,-0.265625 l 0,5.171875 c 0,0.359375 -0.03125,0.46875 -0.921875,0.46875 l -0.3125,0 0,0.3125 c 0.34375,-0.03125 1.203125,-0.03125 1.609375,-0.03125 0.390625,0 1.265625,0 1.609375,0.03125 l 0,-0.3125 -0.3125,0 c -0.90625,0 -0.921875,-0.109375 -0.921875,-0.46875 z m 0,0"
               id="path4738" />
          </symbol>
          <symbol
             style="overflow:visible"
             overflow="visible"
             id="textext-6ed169a7-2">
            <path
               inkscape:connector-curvature="0"
               style="stroke:none"
               d="m 4.578125,-3.1875 c 0,-0.796875 -0.046875,-1.59375 -0.390625,-2.328125 -0.453125,-0.96875 -1.28125,-1.125 -1.6875,-1.125 -0.609375,0 -1.328125,0.265625 -1.75,1.1875 -0.3125,0.6875 -0.359375,1.46875 -0.359375,2.265625 0,0.75 0.03125,1.640625 0.453125,2.40625 0.421875,0.796875 1.15625,1 1.640625,1 0.53125,0 1.296875,-0.203125 1.734375,-1.15625 0.3125,-0.6875 0.359375,-1.46875 0.359375,-2.25 z M 2.484375,0 C 2.09375,0 1.5,-0.25 1.328125,-1.203125 1.21875,-1.796875 1.21875,-2.71875 1.21875,-3.3125 c 0,-0.640625 0,-1.296875 0.078125,-1.828125 0.1875,-1.1875 0.9375,-1.28125 1.1875,-1.28125 0.328125,0 0.984375,0.1875 1.171875,1.171875 0.109375,0.5625 0.109375,1.3125 0.109375,1.9375 0,0.75 0,1.421875 -0.109375,2.0625 C 3.5,-0.296875 2.9375,0 2.484375,0 z m 0,0"
               id="path4741" />
          </symbol>
          <symbol
             style="overflow:visible"
             overflow="visible"
             id="textext-6ed169a7-3">
            <path
               inkscape:connector-curvature="0"
               style="stroke:none"
               d="m 4.75,-6.078125 c 0.078125,-0.109375 0.078125,-0.125 0.078125,-0.34375 l -2.421875,0 c -1.203125,0 -1.234375,-0.125 -1.265625,-0.3125 l -0.25,0 -0.328125,2.046875 0.25,0 c 0.03125,-0.15625 0.109375,-0.78125 0.25,-0.90625 0.0625,-0.0625 0.84375,-0.0625 0.96875,-0.0625 l 2.0625,0 C 3.984375,-5.5 3.203125,-4.40625 2.984375,-4.078125 2.078125,-2.734375 1.75,-1.34375 1.75,-0.328125 c 0,0.09375 0,0.546875 0.46875,0.546875 0.453125,0 0.453125,-0.453125 0.453125,-0.546875 l 0,-0.515625 c 0,-0.546875 0.03125,-1.09375 0.109375,-1.625 0.046875,-0.234375 0.171875,-1.09375 0.625,-1.703125 z m 0,0"
               id="path4744" />
          </symbol>
          <symbol
             style="overflow:visible"
             overflow="visible"
             id="textext-6ed169a7-4">
            <path
               inkscape:connector-curvature="0"
               style="stroke:none"
               d=""
               id="path4747" />
          </symbol>
          <symbol
             style="overflow:visible"
             overflow="visible"
             id="textext-6ed169a7-5">
            <path
               inkscape:connector-curvature="0"
               style="stroke:none"
               d="m 6.5625,-2.296875 c 0.171875,0 0.359375,0 0.359375,-0.203125 0,-0.1875 -0.1875,-0.1875 -0.359375,-0.1875 l -5.390625,0 c -0.171875,0 -0.34375,0 -0.34375,0.1875 0,0.203125 0.171875,0.203125 0.34375,0.203125 z m 0,0"
               id="path4750" />
          </symbol>
          <symbol
             style="overflow:visible"
             overflow="visible"
             id="textext-6ed169a7-6">
            <path
               inkscape:connector-curvature="0"
               style="stroke:none"
               d=""
               id="path4753" />
          </symbol>
          <symbol
             style="overflow:visible"
             overflow="visible"
             id="textext-6ed169a7-7">
            <path
               inkscape:connector-curvature="0"
               style="stroke:none"
               d="m 1.90625,-0.53125 c 0,-0.28125 -0.234375,-0.53125 -0.515625,-0.53125 -0.296875,0 -0.53125,0.25 -0.53125,0.53125 C 0.859375,-0.234375 1.09375,0 1.390625,0 1.671875,0 1.90625,-0.234375 1.90625,-0.53125 z m 0,0"
               id="path4756" />
          </symbol>
        </g>
      </defs>
      <g
         id="textext-6ed169a7-8">
        <g
           style="fill:#000000;fill-opacity:1"
           id="g4759">
          <use
             height="212.59842"
             width="460.62991"
             xlink:href="#textext-6ed169a7-1"
             x="223.43201"
             y="134.765"
             id="use4761" />
        </g>
        <g
           transform="translate(-14.731391,10.522422)"
           style="fill:#000000;fill-opacity:1"
           id="g4771">
          <use
             height="212.59842"
             width="460.62991"
             xlink:href="#textext-6ed169a7-2"
             x="247.78185"
             y="134.765"
             id="use4773" />
          <use
             transform="translate(-13.301269,47.987181)"
             height="212.59842"
             width="460.62991"
             xlink:href="#textext-6ed169a7-2"
             x="247.78185"
             y="134.765"
             id="use4773-2"
             style="fill:#000000;fill-opacity:1" />
        </g>
        <g
           transform="translate(-14.731391,10.522422)"
           style="fill:#000000;fill-opacity:1"
           id="g4775">
          <use
             height="212.59842"
             width="460.62991"
             xlink:href="#textext-6ed169a7-7"
             x="252.767"
             y="134.765"
             id="use4777" />
        </g>
        <g
           transform="translate(-14.731391,10.522422)"
           style="fill:#000000;fill-opacity:1"
           id="g4779">
          <use
             height="212.59842"
             width="460.62991"
             xlink:href="#textext-6ed169a7-3"
             x="255.534"
             y="134.765"
             id="use4781" />
          <use
             height="212.59842"
             width="460.62991"
             xlink:href="#textext-6ed169a7-2"
             x="260.51529"
             y="134.765"
             id="use4783" />
          <use
             height="212.59842"
             width="460.62991"
             xlink:href="#textext-6ed169a7-3"
             x="265.49661"
             y="134.765"
             id="use4785" />
        </g>
        <g
           transform="translate(-16.835876,87.125657)"
           style="fill:#000000;fill-opacity:1"
           id="g4787">
          <use
             height="212.59842"
             width="460.62991"
             xlink:href="#textext-6ed169a7-5"
             x="273.79901"
             y="134.765"
             id="use4789" />
        </g>
        <g
           transform="translate(-16.835876,87.125657)"
           style="fill:#000000;fill-opacity:1"
           id="g4791">
          <use
             height="212.59842"
             width="460.62991"
             xlink:href="#textext-6ed169a7-2"
             x="281.548"
             y="134.765"
             id="use4793" />
        </g>
        <g
           transform="translate(-16.835876,87.125657)"
           style="fill:#000000;fill-opacity:1"
           id="g4795">
          <use
             height="212.59842"
             width="460.62991"
             xlink:href="#textext-6ed169a7-7"
             x="286.52899"
             y="134.765"
             id="use4797" />
        </g>
        <g
           transform="translate(-16.835876,87.125657)"
           style="fill:#000000;fill-opacity:1"
           id="g4799">
          <use
             height="212.59842"
             width="460.62991"
             xlink:href="#textext-6ed169a7-3"
             x="289.29599"
             y="134.765"
             id="use4801" />
          <use
             height="212.59842"
             width="460.62991"
             xlink:href="#textext-6ed169a7-2"
             x="294.27731"
             y="134.765"
             id="use4803" />
          <use
             height="212.59842"
             width="460.62991"
             xlink:href="#textext-6ed169a7-3"
             x="299.25861"
             y="134.765"
             id="use4805" />
        </g>
        <g
           transform="translate(54.835741,102.39226)"
           style="fill:#000000;fill-opacity:1"
           id="g4763">
          <use
             height="212.59842"
             width="460.62991"
             xlink:href="#textext-6ed169a7-5"
             x="231.73399"
             y="134.765"
             id="use4765" />
        </g>
        <g
           transform="translate(54.835741,102.39226)"
           style="fill:#000000;fill-opacity:1"
           id="g4767">
          <use
             height="212.59842"
             width="460.62991"
             xlink:href="#textext-6ed169a7-1"
             x="239.483"
             y="134.765"
             id="use4769" />
        </g>
      </g>
    </g>
    <g
       id="g5113"
       transform="matrix(1.2,0,0,1.2,-72.002462,721.64313)"
       ns0:preamble="/home/sriranga/Desktop/TIFR-figure/preface.tex"
       ns0:text="$x({\\rm n}) = \\cos \\left(\\frac{\\pi {\\rm n}}{4} \\right)$">
      <defs
         id="defs5115">
        <g
           id="g5117">
          <symbol
             id="textext-f0d17cd1-0"
             overflow="visible">
            <path
               id="path5120"
               d=""
               style="stroke:none;" />
          </symbol>
          <symbol
             id="textext-f0d17cd1-1"
             overflow="visible">
            <path
               id="path5123"
               d="M 3.328125 -3.015625 C 3.390625 -3.265625 3.625 -4.1875 4.3125 -4.1875 C 4.359375 -4.1875 4.609375 -4.1875 4.8125 -4.0625 C 4.53125 -4 4.34375 -3.765625 4.34375 -3.515625 C 4.34375 -3.359375 4.453125 -3.171875 4.71875 -3.171875 C 4.9375 -3.171875 5.25 -3.34375 5.25 -3.75 C 5.25 -4.265625 4.671875 -4.40625 4.328125 -4.40625 C 3.75 -4.40625 3.40625 -3.875 3.28125 -3.65625 C 3.03125 -4.3125 2.5 -4.40625 2.203125 -4.40625 C 1.171875 -4.40625 0.59375 -3.125 0.59375 -2.875 C 0.59375 -2.765625 0.703125 -2.765625 0.71875 -2.765625 C 0.796875 -2.765625 0.828125 -2.796875 0.84375 -2.875 C 1.1875 -3.9375 1.84375 -4.1875 2.1875 -4.1875 C 2.375 -4.1875 2.71875 -4.09375 2.71875 -3.515625 C 2.71875 -3.203125 2.546875 -2.546875 2.1875 -1.140625 C 2.03125 -0.53125 1.671875 -0.109375 1.234375 -0.109375 C 1.171875 -0.109375 0.953125 -0.109375 0.734375 -0.234375 C 0.984375 -0.296875 1.203125 -0.5 1.203125 -0.78125 C 1.203125 -1.046875 0.984375 -1.125 0.84375 -1.125 C 0.53125 -1.125 0.296875 -0.875 0.296875 -0.546875 C 0.296875 -0.09375 0.78125 0.109375 1.21875 0.109375 C 1.890625 0.109375 2.25 -0.59375 2.265625 -0.640625 C 2.390625 -0.28125 2.75 0.109375 3.34375 0.109375 C 4.375 0.109375 4.9375 -1.171875 4.9375 -1.421875 C 4.9375 -1.53125 4.859375 -1.53125 4.828125 -1.53125 C 4.734375 -1.53125 4.71875 -1.484375 4.6875 -1.421875 C 4.359375 -0.34375 3.6875 -0.109375 3.375 -0.109375 C 2.984375 -0.109375 2.828125 -0.421875 2.828125 -0.765625 C 2.828125 -0.984375 2.875 -1.203125 2.984375 -1.640625 Z M 3.328125 -3.015625 "
               style="stroke:none;" />
          </symbol>
          <symbol
             id="textext-f0d17cd1-2"
             overflow="visible">
            <path
               id="path5126"
               d=""
               style="stroke:none;" />
          </symbol>
          <symbol
             id="textext-f0d17cd1-3"
             overflow="visible">
            <path
               id="path5129"
               d="M 3.296875 2.390625 C 3.296875 2.359375 3.296875 2.34375 3.125 2.171875 C 1.890625 0.921875 1.5625 -0.96875 1.5625 -2.5 C 1.5625 -4.234375 1.9375 -5.96875 3.171875 -7.203125 C 3.296875 -7.328125 3.296875 -7.34375 3.296875 -7.375 C 3.296875 -7.453125 3.265625 -7.484375 3.203125 -7.484375 C 3.09375 -7.484375 2.203125 -6.796875 1.609375 -5.53125 C 1.109375 -4.4375 0.984375 -3.328125 0.984375 -2.5 C 0.984375 -1.71875 1.09375 -0.515625 1.640625 0.625 C 2.25 1.84375 3.09375 2.5 3.203125 2.5 C 3.265625 2.5 3.296875 2.46875 3.296875 2.390625 Z M 3.296875 2.390625 "
               style="stroke:none;" />
          </symbol>
          <symbol
             id="textext-f0d17cd1-4"
             overflow="visible">
            <path
               id="path5132"
               d="M 1.09375 -3.421875 L 1.09375 -0.75 C 1.09375 -0.3125 0.984375 -0.3125 0.3125 -0.3125 L 0.3125 0 C 0.671875 -0.015625 1.171875 -0.03125 1.453125 -0.03125 C 1.703125 -0.03125 2.21875 -0.015625 2.5625 0 L 2.5625 -0.3125 C 1.890625 -0.3125 1.78125 -0.3125 1.78125 -0.75 L 1.78125 -2.59375 C 1.78125 -3.625 2.5 -4.1875 3.125 -4.1875 C 3.765625 -4.1875 3.875 -3.65625 3.875 -3.078125 L 3.875 -0.75 C 3.875 -0.3125 3.765625 -0.3125 3.09375 -0.3125 L 3.09375 0 C 3.4375 -0.015625 3.953125 -0.03125 4.21875 -0.03125 C 4.46875 -0.03125 5 -0.015625 5.328125 0 L 5.328125 -0.3125 C 4.8125 -0.3125 4.5625 -0.3125 4.5625 -0.609375 L 4.5625 -2.515625 C 4.5625 -3.375 4.5625 -3.671875 4.25 -4.03125 C 4.109375 -4.203125 3.78125 -4.40625 3.203125 -4.40625 C 2.46875 -4.40625 2 -3.984375 1.71875 -3.359375 L 1.71875 -4.40625 L 0.3125 -4.296875 L 0.3125 -3.984375 C 1.015625 -3.984375 1.09375 -3.921875 1.09375 -3.421875 Z M 1.09375 -3.421875 "
               style="stroke:none;" />
          </symbol>
          <symbol
             id="textext-f0d17cd1-5"
             overflow="visible">
            <path
               id="path5135"
               d="M 2.875 -2.5 C 2.875 -3.265625 2.765625 -4.46875 2.21875 -5.609375 C 1.625 -6.828125 0.765625 -7.484375 0.671875 -7.484375 C 0.609375 -7.484375 0.5625 -7.4375 0.5625 -7.375 C 0.5625 -7.34375 0.5625 -7.328125 0.75 -7.140625 C 1.734375 -6.15625 2.296875 -4.578125 2.296875 -2.5 C 2.296875 -0.78125 1.9375 0.96875 0.703125 2.21875 C 0.5625 2.34375 0.5625 2.359375 0.5625 2.390625 C 0.5625 2.453125 0.609375 2.5 0.671875 2.5 C 0.765625 2.5 1.671875 1.8125 2.25 0.546875 C 2.765625 -0.546875 2.875 -1.65625 2.875 -2.5 Z M 2.875 -2.5 "
               style="stroke:none;" />
          </symbol>
          <symbol
             id="textext-f0d17cd1-6"
             overflow="visible">
            <path
               id="path5138"
               d="M 6.84375 -3.265625 C 7 -3.265625 7.1875 -3.265625 7.1875 -3.453125 C 7.1875 -3.65625 7 -3.65625 6.859375 -3.65625 L 0.890625 -3.65625 C 0.75 -3.65625 0.5625 -3.65625 0.5625 -3.453125 C 0.5625 -3.265625 0.75 -3.265625 0.890625 -3.265625 Z M 6.859375 -1.328125 C 7 -1.328125 7.1875 -1.328125 7.1875 -1.53125 C 7.1875 -1.71875 7 -1.71875 6.84375 -1.71875 L 0.890625 -1.71875 C 0.75 -1.71875 0.5625 -1.71875 0.5625 -1.53125 C 0.5625 -1.328125 0.75 -1.328125 0.890625 -1.328125 Z M 6.859375 -1.328125 "
               style="stroke:none;" />
          </symbol>
          <symbol
             id="textext-f0d17cd1-7"
             overflow="visible">
            <path
               id="path5141"
               d="M 1.171875 -2.171875 C 1.171875 -3.796875 1.984375 -4.21875 2.515625 -4.21875 C 2.609375 -4.21875 3.234375 -4.203125 3.578125 -3.84375 C 3.171875 -3.8125 3.109375 -3.515625 3.109375 -3.390625 C 3.109375 -3.125 3.296875 -2.9375 3.5625 -2.9375 C 3.828125 -2.9375 4.03125 -3.09375 4.03125 -3.40625 C 4.03125 -4.078125 3.265625 -4.46875 2.5 -4.46875 C 1.25 -4.46875 0.34375 -3.390625 0.34375 -2.15625 C 0.34375 -0.875 1.328125 0.109375 2.484375 0.109375 C 3.8125 0.109375 4.140625 -1.09375 4.140625 -1.1875 C 4.140625 -1.28125 4.03125 -1.28125 4 -1.28125 C 3.921875 -1.28125 3.890625 -1.25 3.875 -1.1875 C 3.59375 -0.265625 2.9375 -0.140625 2.578125 -0.140625 C 2.046875 -0.140625 1.171875 -0.5625 1.171875 -2.171875 Z M 1.171875 -2.171875 "
               style="stroke:none;" />
          </symbol>
          <symbol
             id="textext-f0d17cd1-8"
             overflow="visible">
            <path
               id="path5144"
               d="M 4.6875 -2.140625 C 4.6875 -3.40625 3.703125 -4.46875 2.5 -4.46875 C 1.25 -4.46875 0.28125 -3.375 0.28125 -2.140625 C 0.28125 -0.84375 1.3125 0.109375 2.484375 0.109375 C 3.6875 0.109375 4.6875 -0.875 4.6875 -2.140625 Z M 2.5 -0.140625 C 2.0625 -0.140625 1.625 -0.34375 1.359375 -0.8125 C 1.109375 -1.25 1.109375 -1.859375 1.109375 -2.21875 C 1.109375 -2.609375 1.109375 -3.140625 1.34375 -3.578125 C 1.609375 -4.03125 2.078125 -4.25 2.484375 -4.25 C 2.921875 -4.25 3.34375 -4.03125 3.609375 -3.59375 C 3.875 -3.171875 3.875 -2.59375 3.875 -2.21875 C 3.875 -1.859375 3.875 -1.3125 3.65625 -0.875 C 3.421875 -0.421875 2.984375 -0.140625 2.5 -0.140625 Z M 2.5 -0.140625 "
               style="stroke:none;" />
          </symbol>
          <symbol
             id="textext-f0d17cd1-9"
             overflow="visible">
            <path
               id="path5147"
               d="M 2.078125 -1.9375 C 2.296875 -1.890625 3.109375 -1.734375 3.109375 -1.015625 C 3.109375 -0.515625 2.765625 -0.109375 1.984375 -0.109375 C 1.140625 -0.109375 0.78125 -0.671875 0.59375 -1.53125 C 0.5625 -1.65625 0.5625 -1.6875 0.453125 -1.6875 C 0.328125 -1.6875 0.328125 -1.625 0.328125 -1.453125 L 0.328125 -0.125 C 0.328125 0.046875 0.328125 0.109375 0.4375 0.109375 C 0.484375 0.109375 0.5 0.09375 0.6875 -0.09375 C 0.703125 -0.109375 0.703125 -0.125 0.890625 -0.3125 C 1.328125 0.09375 1.78125 0.109375 1.984375 0.109375 C 3.125 0.109375 3.59375 -0.5625 3.59375 -1.28125 C 3.59375 -1.796875 3.296875 -2.109375 3.171875 -2.21875 C 2.84375 -2.546875 2.453125 -2.625 2.03125 -2.703125 C 1.46875 -2.8125 0.8125 -2.9375 0.8125 -3.515625 C 0.8125 -3.875 1.0625 -4.28125 1.921875 -4.28125 C 3.015625 -4.28125 3.078125 -3.375 3.09375 -3.078125 C 3.09375 -2.984375 3.1875 -2.984375 3.203125 -2.984375 C 3.34375 -2.984375 3.34375 -3.03125 3.34375 -3.21875 L 3.34375 -4.234375 C 3.34375 -4.390625 3.34375 -4.46875 3.234375 -4.46875 C 3.1875 -4.46875 3.15625 -4.46875 3.03125 -4.34375 C 3 -4.3125 2.90625 -4.21875 2.859375 -4.1875 C 2.484375 -4.46875 2.078125 -4.46875 1.921875 -4.46875 C 0.703125 -4.46875 0.328125 -3.796875 0.328125 -3.234375 C 0.328125 -2.890625 0.484375 -2.609375 0.75 -2.390625 C 1.078125 -2.140625 1.359375 -2.078125 2.078125 -1.9375 Z M 2.078125 -1.9375 "
               style="stroke:none;" />
          </symbol>
          <symbol
             id="textext-f0d17cd1-10"
             overflow="visible">
            <path
               id="path5150"
               d=""
               style="stroke:none;" />
          </symbol>
          <symbol
             id="textext-f0d17cd1-11"
             overflow="visible">
            <path
               id="path5153"
               d="M 4.109375 11.453125 C 4.109375 11.421875 4.09375 11.390625 4.078125 11.359375 C 3.625 10.875 2.9375 10.0625 2.515625 8.4375 C 2.296875 7.53125 2.203125 6.515625 2.203125 5.578125 C 2.203125 2.953125 2.828125 1.125 4.03125 -0.171875 C 4.109375 -0.265625 4.109375 -0.28125 4.109375 -0.296875 C 4.109375 -0.40625 4.03125 -0.40625 4 -0.40625 C 3.84375 -0.40625 3.3125 0.203125 3.1875 0.34375 C 2.15625 1.5625 1.515625 3.34375 1.515625 5.578125 C 1.515625 6.984375 1.765625 8.984375 3.078125 10.671875 C 3.171875 10.796875 3.8125 11.546875 4 11.546875 C 4.03125 11.546875 4.109375 11.546875 4.109375 11.453125 Z M 4.109375 11.453125 "
               style="stroke:none;" />
          </symbol>
          <symbol
             id="textext-f0d17cd1-12"
             overflow="visible">
            <path
               id="path5156"
               d="M 3.046875 5.578125 C 3.046875 4.171875 2.796875 2.15625 1.484375 0.484375 C 1.390625 0.359375 0.734375 -0.40625 0.5625 -0.40625 C 0.515625 -0.40625 0.4375 -0.375 0.4375 -0.296875 C 0.4375 -0.265625 0.453125 -0.234375 0.5 -0.203125 C 0.984375 0.3125 1.625 1.125 2.03125 2.71875 C 2.265625 3.625 2.359375 4.640625 2.359375 5.578125 C 2.359375 6.578125 2.265625 7.59375 2 8.578125 C 1.625 9.96875 1.03125 10.765625 0.53125 11.328125 C 0.4375 11.421875 0.4375 11.4375 0.4375 11.453125 C 0.4375 11.53125 0.515625 11.546875 0.5625 11.546875 C 0.703125 11.546875 1.25 10.953125 1.375 10.8125 C 2.390625 9.59375 3.046875 7.8125 3.046875 5.578125 Z M 3.046875 5.578125 "
               style="stroke:none;" />
          </symbol>
          <symbol
             id="textext-f0d17cd1-13"
             overflow="visible">
            <path
               id="path5159"
               d=""
               style="stroke:none;" />
          </symbol>
          <symbol
             id="textext-f0d17cd1-14"
             overflow="visible">
            <path
               id="path5162"
               d="M 2.171875 -2.53125 L 3 -2.53125 C 2.890625 -2.109375 2.734375 -1.484375 2.734375 -0.921875 C 2.734375 -0.640625 2.78125 -0.453125 2.8125 -0.3125 C 2.921875 0.046875 3.015625 0.0625 3.125 0.0625 C 3.296875 0.0625 3.453125 -0.078125 3.453125 -0.25 C 3.453125 -0.296875 3.4375 -0.328125 3.40625 -0.390625 C 3.265625 -0.65625 3.140625 -1.046875 3.140625 -1.625 C 3.140625 -1.75 3.140625 -2.03125 3.234375 -2.53125 L 4.109375 -2.53125 C 4.234375 -2.53125 4.296875 -2.53125 4.375 -2.578125 C 4.46875 -2.65625 4.484375 -2.765625 4.484375 -2.796875 C 4.484375 -3 4.3125 -3 4.1875 -3 L 1.5625 -3 C 1.28125 -3 1.078125 -2.9375 0.765625 -2.640625 C 0.578125 -2.484375 0.3125 -2.109375 0.3125 -2.046875 C 0.3125 -1.96875 0.40625 -1.96875 0.4375 -1.96875 C 0.515625 -1.96875 0.515625 -1.984375 0.5625 -2.046875 C 0.90625 -2.53125 1.34375 -2.53125 1.5 -2.53125 L 1.921875 -2.53125 C 1.703125 -1.765625 1.328125 -0.9375 1.125 -0.515625 C 1.078125 -0.4375 1.015625 -0.28125 0.984375 -0.265625 C 0.984375 -0.234375 0.96875 -0.203125 0.96875 -0.15625 C 0.96875 -0.046875 1.046875 0.0625 1.21875 0.0625 C 1.484375 0.0625 1.5625 -0.25 1.734375 -0.875 Z M 2.171875 -2.53125 "
               style="stroke:none;" />
          </symbol>
          <symbol
             id="textext-f0d17cd1-15"
             overflow="visible">
            <path
               id="path5165"
               d=""
               style="stroke:none;" />
          </symbol>
          <symbol
             id="textext-f0d17cd1-16"
             overflow="visible">
            <path
               id="path5168"
               d="M 3.59375 -2.109375 C 3.59375 -2.71875 3.296875 -3.078125 2.546875 -3.078125 C 1.96875 -3.078125 1.609375 -2.765625 1.40625 -2.390625 L 1.40625 -3.078125 L 0.375 -3 L 0.375 -2.75 C 0.84375 -2.75 0.90625 -2.703125 0.90625 -2.359375 L 0.90625 -0.546875 C 0.90625 -0.25 0.828125 -0.25 0.375 -0.25 L 0.375 0 C 0.390625 0 0.875 -0.03125 1.171875 -0.03125 C 1.421875 -0.03125 1.90625 0 1.96875 0 L 1.96875 -0.25 C 1.515625 -0.25 1.453125 -0.25 1.453125 -0.546875 L 1.453125 -1.8125 C 1.453125 -2.53125 2.03125 -2.875 2.484375 -2.875 C 2.96875 -2.875 3.03125 -2.5 3.03125 -2.140625 L 3.03125 -0.546875 C 3.03125 -0.25 2.96875 -0.25 2.515625 -0.25 L 2.515625 0 C 2.53125 0 3.015625 -0.03125 3.3125 -0.03125 C 3.5625 -0.03125 4.046875 0 4.109375 0 L 4.109375 -0.25 C 3.65625 -0.25 3.59375 -0.25 3.59375 -0.546875 Z M 3.59375 -2.109375 "
               style="stroke:none;" />
          </symbol>
          <symbol
             id="textext-f0d17cd1-17"
             overflow="visible">
            <path
               id="path5171"
               d="M 3.6875 -1.140625 L 3.6875 -1.390625 L 2.90625 -1.390625 L 2.90625 -4.5 C 2.90625 -4.640625 2.90625 -4.703125 2.765625 -4.703125 C 2.671875 -4.703125 2.640625 -4.703125 2.578125 -4.59375 L 0.265625 -1.390625 L 0.265625 -1.140625 L 2.328125 -1.140625 L 2.328125 -0.578125 C 2.328125 -0.328125 2.328125 -0.25 1.75 -0.25 L 1.5625 -0.25 L 1.5625 0 C 1.921875 -0.015625 2.359375 -0.03125 2.609375 -0.03125 C 2.875 -0.03125 3.3125 -0.015625 3.671875 0 L 3.671875 -0.25 L 3.484375 -0.25 C 2.90625 -0.25 2.90625 -0.328125 2.90625 -0.578125 L 2.90625 -1.140625 Z M 2.375 -3.9375 L 2.375 -1.390625 L 0.53125 -1.390625 Z M 2.375 -3.9375 "
               style="stroke:none;" />
          </symbol>
        </g>
      </defs>
      <g
         id="textext-f0d17cd1-18">
        <g
           id="g5174"
           style="fill:rgb(0%,0%,0%);fill-opacity:1;">
          <use
             id="use5176"
             y="134.765"
             x="223.432"
             xlink:href="#textext-f0d17cd1-1" />
        </g>
        <g
           id="g5178"
           style="fill:rgb(0%,0%,0%);fill-opacity:1;">
          <use
             id="use5180"
             y="134.765"
             x="229.126"
             xlink:href="#textext-f0d17cd1-3" />
          <use
             id="use5182"
             y="134.765"
             x="233.000455"
             xlink:href="#textext-f0d17cd1-4" />
          <use
             id="use5184"
             y="134.765"
             x="238.535676"
             xlink:href="#textext-f0d17cd1-5" />
        </g>
        <g
           id="g5186"
           style="fill:rgb(0%,0%,0%);fill-opacity:1;">
          <use
             id="use5188"
             y="134.765"
             x="245.179734"
             xlink:href="#textext-f0d17cd1-6" />
        </g>
        <g
           id="g5190"
           style="fill:rgb(0%,0%,0%);fill-opacity:1;">
          <use
             id="use5192"
             y="134.765"
             x="255.688284"
             xlink:href="#textext-f0d17cd1-7" />
        </g>
        <g
           id="g5194"
           style="fill:rgb(0%,0%,0%);fill-opacity:1;">
          <use
             id="use5196"
             y="134.765"
             x="260.125626"
             xlink:href="#textext-f0d17cd1-8" />
          <use
             id="use5198"
             y="134.765"
             x="265.106926"
             xlink:href="#textext-f0d17cd1-9" />
        </g>
        <g
           id="g5200"
           style="fill:rgb(0%,0%,0%);fill-opacity:1;">
          <use
             id="use5202"
             y="126.695"
             x="270.692"
             xlink:href="#textext-f0d17cd1-11" />
        </g>
        <g
           id="g5204"
           style="fill:rgb(0%,0%,0%);fill-opacity:1;">
          <use
             id="use5206"
             y="130.842"
             x="276.454"
             xlink:href="#textext-f0d17cd1-14" />
        </g>
        <g
           id="g5208"
           style="fill:rgb(0%,0%,0%);fill-opacity:1;">
          <use
             id="use5210"
             y="130.842"
             x="281.363"
             xlink:href="#textext-f0d17cd1-16" />
        </g>
        <path
           id="path5212"
           transform="matrix(1,0,0,-1,276.454,132.274)"
           d="M -0.000875 0.0005625 L 9.307719 0.0005625 "
           style="fill:none;stroke-width:0.398;stroke-linecap:butt;stroke-linejoin:miter;stroke:rgb(0%,0%,0%);stroke-opacity:1;stroke-miterlimit:10;" />
        <g
           id="g5214"
           style="fill:rgb(0%,0%,0%);fill-opacity:1;">
          <use
             id="use5216"
             y="138.2"
             x="279.123"
             xlink:href="#textext-f0d17cd1-17" />
        </g>
        <g
           id="g5218"
           style="fill:rgb(0%,0%,0%);fill-opacity:1;">
          <use
             id="use5220"
             y="126.695"
             x="286.959"
             xlink:href="#textext-f0d17cd1-12" />
        </g>
      </g>
    </g>
  </g>
</svg>
