<?xml version="1.0" encoding="UTF-8" standalone="no"?>
<!-- Created with Inkscape (http://www.inkscape.org/) -->

<svg
   xmlns:ns0="http://www.iki.fi/pav/software/textext/"
   xmlns:dc="http://purl.org/dc/elements/1.1/"
   xmlns:cc="http://creativecommons.org/ns#"
   xmlns:rdf="http://www.w3.org/1999/02/22-rdf-syntax-ns#"
   xmlns:svg="http://www.w3.org/2000/svg"
   xmlns="http://www.w3.org/2000/svg"
   xmlns:xlink="http://www.w3.org/1999/xlink"
   xmlns:sodipodi="http://sodipodi.sourceforge.net/DTD/sodipodi-0.dtd"
   xmlns:inkscape="http://www.inkscape.org/namespaces/inkscape"
   id="svg2"
   version="1.1"
   inkscape:version="0.48.4 r9939"
   width="425.19684"
   height="248.03149"
   sodipodi:docname="IMG_20161025_130229663.jpg">
  <sodipodi:namedview
     pagecolor="#ffffff"
     bordercolor="#666666"
     borderopacity="1"
     objecttolerance="10"
     gridtolerance="10"
     guidetolerance="10"
     inkscape:pageopacity="0"
     inkscape:pageshadow="2"
     inkscape:window-width="1024"
     inkscape:window-height="744"
     id="namedview4"
     showgrid="false"
     units="cm"
     inkscape:zoom="2.2165942"
     inkscape:cx="214.12876"
     inkscape:cy="103.54165"
     inkscape:window-x="0"
     inkscape:window-y="24"
     inkscape:window-maximized="1"
     inkscape:current-layer="svg2" />
  <metadata
     id="metadata8">
    <rdf:RDF>
      <cc:Work
         rdf:about="">
        <dc:format>image/svg+xml</dc:format>
        <dc:type
           rdf:resource="http://purl.org/dc/dcmitype/StillImage" />
        <dc:title></dc:title>
      </cc:Work>
    </rdf:RDF>
  </metadata>
  <defs
     id="defs6" />
  <path
     inkscape:connector-curvature="0"
     id="path2987"
     d="m 22.489343,115.71048 377.611757,0"
     style="fill:none;stroke:#000000;stroke-width:1.375;stroke-linecap:butt;stroke-linejoin:miter;stroke-opacity:1;stroke-miterlimit:4;stroke-dasharray:none" />
  <path
     inkscape:connector-curvature="0"
     id="path2989"
     d="m 46.024702,202.5298 0,-172.592632"
     style="fill:none;stroke:#000000;stroke-width:1.375;stroke-linecap:butt;stroke-linejoin:miter;stroke-opacity:1;stroke-miterlimit:4;stroke-dasharray:none" />
  <path
     sodipodi:nodetypes="cscscscscscscscscscscscscscscsc"
     inkscape:connector-curvature="0"
     id="path3759"
     d="m 46.024702,116.23348 c 0,0 12.266897,-54.908958 25.875754,-52.823801 15.403013,2.360058 26.086946,52.422251 26.086946,52.422251 0,0 6.942198,53.0875 19.351298,52.3008 11.10602,-0.70408 20.73541,-52.94526 20.73541,-52.94526 0,0 7.48423,-39.988119 16.58306,-39.685157 9.37078,0.312018 18.45847,41.254177 18.45847,41.254177 0,0 5.97651,41.3842 13.78312,41.28591 9.06,-0.11408 16.55134,-42.85493 16.55134,-42.85493 0,0 5.06073,-29.007318 12.18237,-30.609109 5.5037,-1.237888 11.35299,30.609109 11.35299,30.609109 0,0 3.25085,33.39871 12.55219,33.40905 8.2223,0.009 11.50618,-33.40905 11.50618,-33.40905 0,0 2.56703,-21.286349 9.28339,-21.574081 6.78705,-0.290761 10.59091,22.097091 10.59091,22.097091 0,0 1.60559,22.00723 9.87178,22.16246 8.41914,0.1581 11.63693,-22.35859 11.63693,-22.35859 0,0 1.1892,-14.38707 8.695,-14.12122 7.43189,0.26323 9.5449,15.36336 9.5449,15.36336 0,0 1.10571,14.48732 7.3221,14.4481 6.4032,-0.0404 9.21802,-16.01712 9.21802,-16.01712 0,0 1.07925,-10.91118 6.92986,-10.78704 4.84564,0.10281 6.40685,11.57155 6.40685,11.57155 0,0 0.8376,9.61063 4.96857,9.47952 5.10953,-0.16216 6.60298,-9.74103 6.60298,-9.74103 0,0 1.20088,-9.12459 5.29546,-9.02189 4.73127,0.11868 5.75308,9.08728 5.75308,9.08728 0,0 0.68963,7.90932 4.44557,7.97587 3.68292,0.0653 5.36083,-8.43351 5.36083,-8.43351 0,0 0.52365,-6.92527 3.98794,-7.12598 1.23068,-0.0713 2.54966,2.41891 2.54966,2.41891"
     style="fill:none;stroke:#000000;stroke-width:1px;stroke-linecap:butt;stroke-linejoin:miter;stroke-opacity:1" />
  <text
     sodipodi:linespacing="125%"
     id="text3761"
     y="118.32552"
     x="405.85419"
     style="font-size:10px;font-style:normal;font-variant:normal;font-weight:normal;font-stretch:normal;line-height:125%;letter-spacing:0px;word-spacing:0px;fill:#000000;fill-opacity:1;stroke:none;font-family:Nimbus Roman No9 L;-inkscape-font-specification:Nimbus Roman No9 L"
     xml:space="preserve"><tspan
       y="118.32552"
       x="405.85419"
       id="tspan3763"
       sodipodi:role="line">t</tspan></text>
  <text
     sodipodi:linespacing="125%"
     id="text3765"
     y="129.57019"
     x="32.164989"
     style="font-size:10px;font-style:normal;font-variant:normal;font-weight:normal;font-stretch:normal;line-height:125%;letter-spacing:0px;word-spacing:0px;fill:#000000;fill-opacity:1;stroke:none;font-family:Nimbus Roman No9 L;-inkscape-font-specification:Nimbus Roman No9 L"
     xml:space="preserve"><tspan
       y="129.57019"
       x="32.164989"
       id="tspan3767"
       sodipodi:role="line">0</tspan></text>
  <g
     id="g3781"
     ns0:preamble="/home/sriranga/Desktop/Mangaluru-Project/src/chap1/package.tex"
     ns0:text="$x$(t)"
     transform="matrix(1.2,0,0,1.2,-214.29272,-118.19935)">
    <defs
       id="defs3783">
      <g
         id="g3785">
        <symbol
           id="textext-0606d062-0"
           overflow="visible"
           style="overflow:visible">
          <path
             id="path3788"
             d=""
             style="stroke:none"
             inkscape:connector-curvature="0" />
        </symbol>
        <symbol
           id="textext-0606d062-1"
           overflow="visible"
           style="overflow:visible">
          <path
             id="path3791"
             d="M 4,-1.109375 C 3.921875,-1.015625 3.875,-0.953125 3.78125,-0.84375 3.5625,-0.53125 3.4375,-0.4375 3.328125,-0.4375 3.1875,-0.4375 3.09375,-0.5625 3.015625,-0.84375 3,-0.921875 2.984375,-0.984375 2.984375,-1.015625 2.734375,-2.03125 2.625,-2.484375 2.625,-2.625 c 0.4375,-0.78125 0.796875,-1.21875 0.96875,-1.21875 0.0625,0 0.140625,0.03125 0.25,0.078125 0.109375,0.078125 0.1875,0.09375 0.265625,0.09375 0.203125,0 0.34375,-0.140625 0.34375,-0.359375 0,-0.203125 -0.171875,-0.359375 -0.40625,-0.359375 -0.4375,0 -0.8125,0.359375 -1.5,1.421875 L 2.4375,-3.515625 c -0.140625,-0.6875 -0.25,-0.875 -0.53125,-0.875 -0.21875,0 -0.546875,0.078125 -1.15625,0.28125 L 0.640625,-4.0625 0.671875,-3.921875 C 1.0625,-4 1.140625,-4.03125 1.234375,-4.03125 c 0.25,0 0.3125,0.09375 0.453125,0.6875 l 0.28125,1.234375 -0.8125,1.15625 C 0.953125,-0.640625 0.75,-0.46875 0.640625,-0.46875 0.59375,-0.46875 0.484375,-0.5 0.390625,-0.5625 0.265625,-0.625 0.15625,-0.65625 0.0625,-0.65625 c -0.1875,0 -0.328125,0.140625 -0.328125,0.34375 0,0.265625 0.203125,0.421875 0.5,0.421875 0.296875,0 0.421875,-0.09375 0.921875,-0.703125 0.265625,-0.3125 0.484375,-0.578125 0.890625,-1.15625 l 0.3125,1.1875 c 0.125,0.515625 0.25,0.671875 0.578125,0.671875 0.375,0 0.625,-0.234375 1.203125,-1.140625 z m 0,0"
             style="stroke:none"
             inkscape:connector-curvature="0" />
        </symbol>
        <symbol
           id="textext-0606d062-2"
           overflow="visible"
           style="overflow:visible">
          <path
             id="path3794"
             d=""
             style="stroke:none"
             inkscape:connector-curvature="0" />
        </symbol>
        <symbol
           id="textext-0606d062-3"
           overflow="visible"
           style="overflow:visible">
          <path
             id="path3797"
             d="M 2.9375,-6.734375 C 2.203125,-6.265625 1.90625,-6 1.53125,-5.546875 c -0.703125,0.875 -1.046875,1.875 -1.046875,3.03125 0,1.265625 0.359375,2.25 1.234375,3.265625 0.421875,0.46875 0.671875,0.703125 1.1875,1.015625 l 0.125,-0.15625 C 2.234375,0.984375 1.953125,0.625 1.6875,-0.125 1.453125,-0.78125 1.328125,-1.546875 1.328125,-2.546875 1.328125,-3.59375 1.46875,-4.40625 1.734375,-5.03125 2.015625,-5.640625 2.3125,-6 3.03125,-6.578125 z m 0,0"
             style="stroke:none"
             inkscape:connector-curvature="0" />
        </symbol>
        <symbol
           id="textext-0606d062-4"
           overflow="visible"
           style="overflow:visible">
          <path
             id="path3800"
             d="m 2.546875,-4.484375 -1.015625,0 0,-1.15625 c 0,-0.09375 0,-0.125 -0.0625,-0.125 C 1.390625,-5.6875 1.328125,-5.59375 1.265625,-5.5 c -0.375,0.5625 -0.8125,1.03125 -0.96875,1.078125 C 0.1875,-4.359375 0.125,-4.28125 0.125,-4.234375 c 0,0.03125 0.015625,0.046875 0.046875,0.0625 l 0.53125,0 0,3 c 0,0.84375 0.296875,1.265625 0.875,1.265625 0.5,0 0.875,-0.234375 1.203125,-0.75 l -0.125,-0.109375 c -0.21875,0.25 -0.390625,0.34375 -0.609375,0.34375 C 1.6875,-0.421875 1.53125,-0.6875 1.53125,-1.3125 l 0,-2.859375 1.015625,0 z m 0,0"
             style="stroke:none"
             inkscape:connector-curvature="0" />
        </symbol>
        <symbol
           id="textext-0606d062-5"
           overflow="visible"
           style="overflow:visible">
          <path
             id="path3803"
             d="M 0.375,1.765625 C 1.109375,1.28125 1.421875,1.03125 1.78125,0.5625 2.5,-0.296875 2.84375,-1.296875 2.84375,-2.46875 c 0,-1.265625 -0.375,-2.234375 -1.25,-3.25 C 1.1875,-6.203125 0.921875,-6.421875 0.40625,-6.734375 l -0.109375,0.15625 c 0.796875,0.625 1.0625,0.96875 1.34375,1.71875 0.234375,0.671875 0.34375,1.4375 0.34375,2.421875 0,1.046875 -0.125,1.875 -0.40625,2.484375 C 1.3125,0.671875 1,1.03125 0.296875,1.609375 z m 0,0"
             style="stroke:none"
             inkscape:connector-curvature="0" />
        </symbol>
      </g>
    </defs>
    <g
       id="textext-0606d062-6">
      <g
         id="g3806"
         style="fill:#000000;fill-opacity:1">
        <use
           id="use3808"
           y="134.765"
           x="223.92999"
           xlink:href="#textext-0606d062-1"
           width="425.19684"
           height="248.03149" />
      </g>
      <g
         id="g3810"
         style="fill:#000000;fill-opacity:1">
        <use
           id="use3812"
           y="134.765"
           x="228.384"
           xlink:href="#textext-0606d062-3"
           width="425.19684"
           height="248.03149" />
        <use
           id="use3814"
           y="134.765"
           x="231.70155"
           xlink:href="#textext-0606d062-4"
           width="425.19684"
           height="248.03149" />
        <use
           id="use3816"
           y="134.765"
           x="234.47115"
           xlink:href="#textext-0606d062-5"
           width="425.19684"
           height="248.03149" />
      </g>
    </g>
  </g>
</svg>
