<?xml version="1.0" encoding="UTF-8" standalone="no"?>
<!-- Created with Inkscape (http://www.inkscape.org/) -->

<svg
   xmlns:ns0="http://www.iki.fi/pav/software/textext/"
   xmlns:dc="http://purl.org/dc/elements/1.1/"
   xmlns:cc="http://creativecommons.org/ns#"
   xmlns:rdf="http://www.w3.org/1999/02/22-rdf-syntax-ns#"
   xmlns:svg="http://www.w3.org/2000/svg"
   xmlns="http://www.w3.org/2000/svg"
   xmlns:xlink="http://www.w3.org/1999/xlink"
   xmlns:sodipodi="http://sodipodi.sourceforge.net/DTD/sodipodi-0.dtd"
   xmlns:inkscape="http://www.inkscape.org/namespaces/inkscape"
   sodipodi:docname="2.jpg"
   height="212.59842"
   width="425.19684"
   inkscape:version="0.48.4 r9939"
   version="1.1"
   id="svg2">
  <sodipodi:namedview
     pagecolor="#ffffff"
     bordercolor="#666666"
     borderopacity="1"
     objecttolerance="10"
     gridtolerance="10"
     guidetolerance="10"
     inkscape:pageopacity="0"
     inkscape:pageshadow="2"
     inkscape:window-width="1024"
     inkscape:window-height="744"
     id="namedview4"
     showgrid="false"
     units="cm"
     inkscape:zoom="1.7071578"
     inkscape:cx="198.94554"
     inkscape:cy="111.002"
     inkscape:window-x="0"
     inkscape:window-y="24"
     inkscape:window-maximized="1"
     inkscape:current-layer="svg2" />
  <metadata
     id="metadata8">
    <rdf:RDF>
      <cc:Work
         rdf:about="">
        <dc:format>image/svg+xml</dc:format>
        <dc:type
           rdf:resource="http://purl.org/dc/dcmitype/StillImage" />
        <dc:title></dc:title>
      </cc:Work>
    </rdf:RDF>
  </metadata>
  <defs
     id="defs6" />
  <path
     style="fill:none;stroke:#000000;stroke-width:1.25;stroke-linecap:butt;stroke-linejoin:miter;stroke-opacity:1;stroke-miterlimit:4;stroke-dasharray:none"
     d="m 39.246518,144.64922 351.461362,0"
     id="path2987"
     inkscape:connector-curvature="0" />
  <path
     style="fill:none;stroke:#000000;stroke-width:1.25;stroke-linecap:butt;stroke-linejoin:miter;stroke-opacity:1;stroke-miterlimit:4;stroke-dasharray:none"
     d="m 167.52991,33.353126 0,143.513384"
     id="path2989"
     inkscape:connector-curvature="0" />
  <path
     style="fill:none;stroke:#000000;stroke-width:1.5;stroke-linecap:butt;stroke-linejoin:miter;stroke-opacity:1;stroke-miterlimit:4;stroke-dasharray:none"
     d="m 58.195266,121.47416 c 9.704118,2.54302 28.973824,-5.0559 55.026634,-29.137585 12.3893,-8.067605 20.36989,-16.326892 44.58875,-23.880168 25.63354,-3.557611 64.89316,39.034133 101.47929,53.846153 18.26256,4.39709 34.10837,14.93676 65.02959,-12.84024"
     id="path3759"
     inkscape:connector-curvature="0"
     sodipodi:nodetypes="ccccc" />
  <g
     transform="matrix(1.2,0,0,1.2,-109.34911,-6.2130178)"
     ns0:text="$0$"
     ns0:preamble="/home/sriranga/Desktop/Mangaluru-Project/src/chap1/package.tex"
     id="g3769">
    <defs
       id="defs3771">
      <g
         id="g3773">
        <symbol
           style="overflow:visible"
           overflow="visible"
           id="textext-41c3d95d-0">
          <path
             inkscape:connector-curvature="0"
             style="stroke:none"
             d=""
             id="path3776" />
        </symbol>
        <symbol
           style="overflow:visible"
           overflow="visible"
           id="textext-41c3d95d-1">
          <path
             inkscape:connector-curvature="0"
             style="stroke:none"
             d="m 2.53125,-6.734375 c -0.546875,0 -0.96875,0.171875 -1.328125,0.515625 -0.578125,0.5625 -0.96875,1.703125 -0.96875,2.875 0,1.078125 0.328125,2.25 0.796875,2.8125 0.375,0.4375 0.875,0.671875 1.46875,0.671875 0.5,0 0.921875,-0.171875 1.28125,-0.515625 C 4.359375,-0.921875 4.75,-2.078125 4.75,-3.296875 c 0,-2.03125 -0.90625,-3.4375 -2.21875,-3.4375 z m -0.03125,0.25 c 0.84375,0 1.28125,1.125 1.28125,3.21875 0,2.078125 -0.4375,3.140625 -1.28125,3.140625 -0.859375,0 -1.296875,-1.0625 -1.296875,-3.140625 0,-2.109375 0.4375,-3.21875 1.296875,-3.21875 z m 0,0"
             id="path3779" />
        </symbol>
      </g>
    </defs>
    <g
       id="textext-41c3d95d-2">
      <g
         style="fill:#000000;fill-opacity:1"
         id="g3782">
        <use
           height="212.59842"
           width="425.19684"
           xlink:href="#textext-41c3d95d-1"
           x="223.43201"
           y="134.765"
           id="use3784" />
      </g>
    </g>
  </g>
  <g
     id="g3840"
     transform="matrix(1.2,0,0,1.2,128.81657,-14.201184)"
     ns0:preamble="/home/sriranga/Desktop/Mangaluru-Project/src/chap1/package.tex"
     ns0:text="t">
    <defs
       id="defs3842">
      <g
         id="g3844">
        <symbol
           id="textext-92fbb229-0"
           overflow="visible"
           style="overflow:visible">
          <path
             id="path3847"
             d=""
             style="stroke:none"
             inkscape:connector-curvature="0" />
        </symbol>
        <symbol
           id="textext-92fbb229-1"
           overflow="visible"
           style="overflow:visible">
          <path
             id="path3850"
             d="m 2.546875,-4.484375 -1.015625,0 0,-1.15625 c 0,-0.09375 0,-0.125 -0.0625,-0.125 C 1.390625,-5.6875 1.328125,-5.59375 1.265625,-5.5 c -0.375,0.5625 -0.8125,1.03125 -0.96875,1.078125 C 0.1875,-4.359375 0.125,-4.28125 0.125,-4.234375 c 0,0.03125 0.015625,0.046875 0.046875,0.0625 l 0.53125,0 0,3 c 0,0.84375 0.296875,1.265625 0.875,1.265625 0.5,0 0.875,-0.234375 1.203125,-0.75 l -0.125,-0.109375 c -0.21875,0.25 -0.390625,0.34375 -0.609375,0.34375 C 1.6875,-0.421875 1.53125,-0.6875 1.53125,-1.3125 l 0,-2.859375 1.015625,0 z m 0,0"
             style="stroke:none"
             inkscape:connector-curvature="0" />
        </symbol>
      </g>
    </defs>
    <g
       id="textext-92fbb229-2">
      <g
         id="g3853"
         style="fill:#000000;fill-opacity:1">
        <use
           id="use3855"
           y="134.765"
           x="223.43201"
           xlink:href="#textext-92fbb229-1"
           width="425.19684"
           height="212.59842" />
      </g>
    </g>
  </g>
  <g
     ns0:text="$x({\\rm t})$"
     ns0:preamble="/home/sriranga/Desktop/Mangaluru-Project/src/chap1/package.tex"
     transform="matrix(1.2,0,0,1.2,-94.710057,-108.21302)"
     id="g3931">
    <defs
       id="defs3933">
      <g
         id="g3935">
        <symbol
           style="overflow:visible"
           overflow="visible"
           id="textext-82182894-0">
          <path
             inkscape:connector-curvature="0"
             style="stroke:none"
             d=""
             id="path3938" />
        </symbol>
        <symbol
           style="overflow:visible"
           overflow="visible"
           id="textext-82182894-1">
          <path
             inkscape:connector-curvature="0"
             style="stroke:none"
             d="M 4,-1.109375 C 3.921875,-1.015625 3.875,-0.953125 3.78125,-0.84375 3.5625,-0.53125 3.4375,-0.4375 3.328125,-0.4375 3.1875,-0.4375 3.09375,-0.5625 3.015625,-0.84375 3,-0.921875 2.984375,-0.984375 2.984375,-1.015625 2.734375,-2.03125 2.625,-2.484375 2.625,-2.625 c 0.4375,-0.78125 0.796875,-1.21875 0.96875,-1.21875 0.0625,0 0.140625,0.03125 0.25,0.078125 0.109375,0.078125 0.1875,0.09375 0.265625,0.09375 0.203125,0 0.34375,-0.140625 0.34375,-0.359375 0,-0.203125 -0.171875,-0.359375 -0.40625,-0.359375 -0.4375,0 -0.8125,0.359375 -1.5,1.421875 L 2.4375,-3.515625 c -0.140625,-0.6875 -0.25,-0.875 -0.53125,-0.875 -0.21875,0 -0.546875,0.078125 -1.15625,0.28125 L 0.640625,-4.0625 0.671875,-3.921875 C 1.0625,-4 1.140625,-4.03125 1.234375,-4.03125 c 0.25,0 0.3125,0.09375 0.453125,0.6875 l 0.28125,1.234375 -0.8125,1.15625 C 0.953125,-0.640625 0.75,-0.46875 0.640625,-0.46875 0.59375,-0.46875 0.484375,-0.5 0.390625,-0.5625 0.265625,-0.625 0.15625,-0.65625 0.0625,-0.65625 c -0.1875,0 -0.328125,0.140625 -0.328125,0.34375 0,0.265625 0.203125,0.421875 0.5,0.421875 0.296875,0 0.421875,-0.09375 0.921875,-0.703125 0.265625,-0.3125 0.484375,-0.578125 0.890625,-1.15625 l 0.3125,1.1875 c 0.125,0.515625 0.25,0.671875 0.578125,0.671875 0.375,0 0.625,-0.234375 1.203125,-1.140625 z m 0,0"
             id="path3941" />
        </symbol>
        <symbol
           style="overflow:visible"
           overflow="visible"
           id="textext-82182894-2">
          <path
             inkscape:connector-curvature="0"
             style="stroke:none"
             d=""
             id="path3944" />
        </symbol>
        <symbol
           style="overflow:visible"
           overflow="visible"
           id="textext-82182894-3">
          <path
             inkscape:connector-curvature="0"
             style="stroke:none"
             d="M 2.9375,-6.734375 C 2.203125,-6.265625 1.90625,-6 1.53125,-5.546875 c -0.703125,0.875 -1.046875,1.875 -1.046875,3.03125 0,1.265625 0.359375,2.25 1.234375,3.265625 0.421875,0.46875 0.671875,0.703125 1.1875,1.015625 l 0.125,-0.15625 C 2.234375,0.984375 1.953125,0.625 1.6875,-0.125 1.453125,-0.78125 1.328125,-1.546875 1.328125,-2.546875 1.328125,-3.59375 1.46875,-4.40625 1.734375,-5.03125 2.015625,-5.640625 2.3125,-6 3.03125,-6.578125 z m 0,0"
             id="path3947" />
        </symbol>
        <symbol
           style="overflow:visible"
           overflow="visible"
           id="textext-82182894-4">
          <path
             inkscape:connector-curvature="0"
             style="stroke:none"
             d="m 2.546875,-4.484375 -1.015625,0 0,-1.15625 c 0,-0.09375 0,-0.125 -0.0625,-0.125 C 1.390625,-5.6875 1.328125,-5.59375 1.265625,-5.5 c -0.375,0.5625 -0.8125,1.03125 -0.96875,1.078125 C 0.1875,-4.359375 0.125,-4.28125 0.125,-4.234375 c 0,0.03125 0.015625,0.046875 0.046875,0.0625 l 0.53125,0 0,3 c 0,0.84375 0.296875,1.265625 0.875,1.265625 0.5,0 0.875,-0.234375 1.203125,-0.75 l -0.125,-0.109375 c -0.21875,0.25 -0.390625,0.34375 -0.609375,0.34375 C 1.6875,-0.421875 1.53125,-0.6875 1.53125,-1.3125 l 0,-2.859375 1.015625,0 z m 0,0"
             id="path3950" />
        </symbol>
        <symbol
           style="overflow:visible"
           overflow="visible"
           id="textext-82182894-5">
          <path
             inkscape:connector-curvature="0"
             style="stroke:none"
             d="M 0.375,1.765625 C 1.109375,1.28125 1.421875,1.03125 1.78125,0.5625 2.5,-0.296875 2.84375,-1.296875 2.84375,-2.46875 c 0,-1.265625 -0.375,-2.234375 -1.25,-3.25 C 1.1875,-6.203125 0.921875,-6.421875 0.40625,-6.734375 l -0.109375,0.15625 c 0.796875,0.625 1.0625,0.96875 1.34375,1.71875 0.234375,0.671875 0.34375,1.4375 0.34375,2.421875 0,1.046875 -0.125,1.875 -0.40625,2.484375 C 1.3125,0.671875 1,1.03125 0.296875,1.609375 z m 0,0"
             id="path3953" />
        </symbol>
      </g>
    </defs>
    <g
       id="textext-82182894-6">
      <g
         style="fill:#000000;fill-opacity:1"
         id="g3956">
        <use
           height="212.59842"
           width="425.19684"
           xlink:href="#textext-82182894-1"
           x="223.92999"
           y="134.765"
           id="use3958" />
      </g>
      <g
         style="fill:#000000;fill-opacity:1"
         id="g3960">
        <use
           height="212.59842"
           width="425.19684"
           xlink:href="#textext-82182894-3"
           x="228.384"
           y="134.765"
           id="use3962" />
        <use
           height="212.59842"
           width="425.19684"
           xlink:href="#textext-82182894-4"
           x="231.70155"
           y="134.765"
           id="use3964" />
        <use
           height="212.59842"
           width="425.19684"
           xlink:href="#textext-82182894-5"
           x="234.47115"
           y="134.765"
           id="use3966" />
      </g>
    </g>
  </g>
  <g
     id="g4183"
     transform="matrix(1.4050438,0,0,1.4050438,-90.113842,-14.089429)"
     ns0:preamble="/home/sriranga/Desktop/Mangaluru-Project/src/chap1/package.tex"
     ns0:text="(a)">
    <defs
       id="defs4185">
      <g
         id="g4187">
        <symbol
           id="textext-4c07ec0f-0"
           overflow="visible"
           style="overflow:visible">
          <path
             id="path4190"
             d=""
             style="stroke:none"
             inkscape:connector-curvature="0" />
        </symbol>
        <symbol
           id="textext-4c07ec0f-1"
           overflow="visible"
           style="overflow:visible">
          <path
             id="path4193"
             d="M 2.9375,-6.734375 C 2.203125,-6.265625 1.90625,-6 1.53125,-5.546875 c -0.703125,0.875 -1.046875,1.875 -1.046875,3.03125 0,1.265625 0.359375,2.25 1.234375,3.265625 0.421875,0.46875 0.671875,0.703125 1.1875,1.015625 l 0.125,-0.15625 C 2.234375,0.984375 1.953125,0.625 1.6875,-0.125 1.453125,-0.78125 1.328125,-1.546875 1.328125,-2.546875 1.328125,-3.59375 1.46875,-4.40625 1.734375,-5.03125 2.015625,-5.640625 2.3125,-6 3.03125,-6.578125 z m 0,0"
             style="stroke:none"
             inkscape:connector-curvature="0" />
        </symbol>
        <symbol
           id="textext-4c07ec0f-2"
           overflow="visible"
           style="overflow:visible">
          <path
             id="path4196"
             d="m 4.40625,-0.65625 c -0.171875,0.140625 -0.296875,0.1875 -0.4375,0.1875 -0.234375,0 -0.296875,-0.140625 -0.296875,-0.578125 l 0,-1.9375 c 0,-0.53125 -0.046875,-0.8125 -0.203125,-1.046875 C 3.25,-4.390625 2.828125,-4.578125 2.234375,-4.578125 c -0.9375,0 -1.671875,0.484375 -1.671875,1.109375 0,0.234375 0.1875,0.421875 0.421875,0.421875 0.234375,0 0.453125,-0.1875 0.453125,-0.40625 0,-0.046875 -0.015625,-0.09375 -0.015625,-0.171875 -0.03125,-0.078125 -0.03125,-0.15625 -0.03125,-0.234375 0,-0.265625 0.3125,-0.484375 0.71875,-0.484375 0.484375,0 0.75,0.28125 0.75,0.828125 l 0,0.609375 c -1.53125,0.609375 -1.703125,0.6875 -2.125,1.078125 -0.21875,0.1875 -0.359375,0.53125 -0.359375,0.859375 0,0.625 0.4375,1.0625 1.046875,1.0625 0.4375,0 0.84375,-0.203125 1.453125,-0.71875 0.046875,0.515625 0.21875,0.71875 0.640625,0.71875 0.328125,0 0.546875,-0.109375 0.890625,-0.5 z m -1.546875,-0.5625 c 0,0.296875 -0.046875,0.390625 -0.25,0.515625 -0.25,0.140625 -0.53125,0.21875 -0.734375,0.21875 C 1.53125,-0.484375 1.25,-0.8125 1.25,-1.25 l 0,-0.03125 c 0,-0.59375 0.40625,-0.953125 1.609375,-1.390625 z m 0,0"
             style="stroke:none"
             inkscape:connector-curvature="0" />
        </symbol>
        <symbol
           id="textext-4c07ec0f-3"
           overflow="visible"
           style="overflow:visible">
          <path
             id="path4199"
             d="M 0.375,1.765625 C 1.109375,1.28125 1.421875,1.03125 1.78125,0.5625 2.5,-0.296875 2.84375,-1.296875 2.84375,-2.46875 c 0,-1.265625 -0.375,-2.234375 -1.25,-3.25 C 1.1875,-6.203125 0.921875,-6.421875 0.40625,-6.734375 l -0.109375,0.15625 c 0.796875,0.625 1.0625,0.96875 1.34375,1.71875 0.234375,0.671875 0.34375,1.4375 0.34375,2.421875 0,1.046875 -0.125,1.875 -0.40625,2.484375 C 1.3125,0.671875 1,1.03125 0.296875,1.609375 z m 0,0"
             style="stroke:none"
             inkscape:connector-curvature="0" />
        </symbol>
      </g>
    </defs>
    <g
       id="textext-4c07ec0f-4">
      <g
         id="g4202"
         style="fill:#000000;fill-opacity:1">
        <use
           id="use4204"
           y="134.765"
           x="223.43201"
           xlink:href="#textext-4c07ec0f-1"
           width="425.19684"
           height="212.59842" />
        <use
           id="use4206"
           y="134.765"
           x="226.74954"
           xlink:href="#textext-4c07ec0f-2"
           width="425.19684"
           height="212.59842" />
        <use
           id="use4208"
           y="134.765"
           x="231.17294"
           xlink:href="#textext-4c07ec0f-3"
           width="425.19684"
           height="212.59842" />
      </g>
    </g>
  </g>
</svg>
