<?xml version="1.0" encoding="UTF-8" standalone="no"?>
<!-- Created with Inkscape (http://www.inkscape.org/) -->

<svg
   xmlns:ns0="http://www.iki.fi/pav/software/textext/"
   xmlns:dc="http://purl.org/dc/elements/1.1/"
   xmlns:cc="http://creativecommons.org/ns#"
   xmlns:rdf="http://www.w3.org/1999/02/22-rdf-syntax-ns#"
   xmlns:svg="http://www.w3.org/2000/svg"
   xmlns="http://www.w3.org/2000/svg"
   xmlns:xlink="http://www.w3.org/1999/xlink"
   xmlns:sodipodi="http://sodipodi.sourceforge.net/DTD/sodipodi-0.dtd"
   xmlns:inkscape="http://www.inkscape.org/namespaces/inkscape"
   width="425.19684"
   height="212.59842"
   id="svg2"
   version="1.1"
   inkscape:version="0.48.4 r9939"
   sodipodi:docname="New document 1">
  <sodipodi:namedview
     id="base"
     pagecolor="#ffffff"
     bordercolor="#666666"
     borderopacity="1.0"
     inkscape:pageopacity="0.0"
     inkscape:pageshadow="2"
     inkscape:zoom="2.0490196"
     inkscape:cx="185.02736"
     inkscape:cy="47.843303"
     inkscape:document-units="px"
     inkscape:current-layer="layer1"
     showgrid="false"
     units="cm"
     inkscape:window-width="1024"
     inkscape:window-height="744"
     inkscape:window-x="0"
     inkscape:window-y="24"
     inkscape:window-maximized="1" />
  <defs
     id="defs4">
    <marker
       inkscape:stockid="Arrow1Mend"
       orient="auto"
       refY="0.0"
       refX="0.0"
       id="Arrow1Mend"
       style="overflow:visible;">
      <path
         id="path3925"
         d="M 0.0,0.0 L 5.0,-5.0 L -12.5,0.0 L 5.0,5.0 L 0.0,0.0 z "
         style="fill-rule:evenodd;stroke:#000000;stroke-width:1.0pt;"
         transform="scale(0.4) rotate(180) translate(10,0)" />
    </marker>
  </defs>
  <metadata
     id="metadata7">
    <rdf:RDF>
      <cc:Work
         rdf:about="">
        <dc:format>image/svg+xml</dc:format>
        <dc:type
           rdf:resource="http://purl.org/dc/dcmitype/StillImage" />
        <dc:title></dc:title>
      </cc:Work>
    </rdf:RDF>
  </metadata>
  <g
     transform="translate(0,-839.76245)"
     id="layer1"
     inkscape:groupmode="layer"
     inkscape:label="Layer 1">
    <rect
       y="921.10052"
       x="117.4845"
       height="33.849918"
       width="149.95801"
       id="rect2985"
       style="fill:none;stroke:#000000;stroke-width:1.375;stroke-miterlimit:4;stroke-opacity:1;stroke-dasharray:none;stroke-dashoffset:0" />
    <g
       id="g2993"
       ns0:preamble="/home/sriranga/Desktop/Mangaluru-Project/src/chap1/package.tex"
       ns0:text="Continuous-time\n   System"
       transform="matrix(1.2,0,0,1.2,-115.08017,773.6715)">
      <defs
         id="defs2995">
        <g
           id="g2997">
          <symbol
             id="textext-72fe2817-0"
             overflow="visible"
             style="overflow:visible">
            <path
               id="path3000"
               d=""
               style="stroke:none"
               inkscape:connector-curvature="0" />
          </symbol>
          <symbol
             id="textext-72fe2817-1"
             overflow="visible"
             style="overflow:visible">
            <path
               id="path3003"
               d="m 6.1875,-4.484375 -0.09375,-2.25 -0.21875,0 C 5.828125,-6.53125 5.65625,-6.40625 5.46875,-6.40625 5.375,-6.40625 5.21875,-6.4375 5.078125,-6.5 4.578125,-6.65625 4.09375,-6.734375 3.625,-6.734375 2.796875,-6.734375 1.96875,-6.4375 1.359375,-5.875 0.65625,-5.265625 0.28125,-4.34375 0.28125,-3.234375 c 0,0.921875 0.296875,1.78125 0.8125,2.34375 0.59375,0.65625 1.515625,1.03125 2.5,1.03125 1.125,0 2.109375,-0.453125 2.71875,-1.265625 L 6.125,-1.3125 C 5.390625,-0.59375 4.734375,-0.296875 3.90625,-0.296875 3.28125,-0.296875 2.71875,-0.5 2.296875,-0.875 1.75,-1.359375 1.4375,-2.265625 1.4375,-3.375 c 0,-1.796875 0.921875,-2.96875 2.375,-2.96875 0.5625,0 1.078125,0.21875 1.484375,0.609375 0.3125,0.328125 0.46875,0.59375 0.65625,1.25 z m 0,0"
               style="stroke:none"
               inkscape:connector-curvature="0" />
          </symbol>
          <symbol
             id="textext-72fe2817-2"
             overflow="visible"
             style="overflow:visible">
            <path
               id="path3006"
               d="m 2.5,-4.578125 c -1.296875,0 -2.203125,0.953125 -2.203125,2.328125 0,1.34375 0.921875,2.34375 2.171875,2.34375 1.265625,0 2.21875,-1.046875 2.21875,-2.421875 0,-1.3125 -0.921875,-2.25 -2.1875,-2.25 z M 2.359375,-4.3125 c 0.84375,0 1.421875,0.96875 1.421875,2.328125 0,1.125 -0.4375,1.8125 -1.1875,1.8125 -0.390625,0 -0.765625,-0.25 -0.96875,-0.640625 C 1.34375,-1.328125 1.1875,-2.03125 1.1875,-2.734375 1.1875,-3.6875 1.65625,-4.3125 2.359375,-4.3125 z m 0,0"
               style="stroke:none"
               inkscape:connector-curvature="0" />
          </symbol>
          <symbol
             id="textext-72fe2817-3"
             overflow="visible"
             style="overflow:visible">
            <path
               id="path3009"
               d="M 0.15625,-3.96875 C 0.21875,-4 0.3125,-4 0.421875,-4 c 0.28125,0 0.375,0.140625 0.375,0.625 l 0,2.484375 c 0,0.5625 -0.109375,0.703125 -0.625,0.734375 l 0,0.15625 2.125,0 0,-0.15625 C 1.78125,-0.1875 1.640625,-0.3125 1.640625,-0.671875 l 0,-2.796875 c 0.46875,-0.453125 0.6875,-0.5625 1.015625,-0.5625 0.5,0 0.734375,0.296875 0.734375,0.953125 l 0,2.09375 c 0,0.625 -0.125,0.796875 -0.625,0.828125 l 0,0.15625 2.0625,0 0,-0.15625 C 4.34375,-0.203125 4.234375,-0.3125 4.234375,-0.8125 l 0,-2.28125 c 0,-0.9375 -0.453125,-1.484375 -1.1875,-1.484375 -0.453125,0 -0.765625,0.15625 -1.4375,0.796875 l 0,-0.78125 -0.078125,-0.015625 c -0.484375,0.171875 -0.828125,0.28125 -1.375,0.4375 z m 0,0"
               style="stroke:none"
               inkscape:connector-curvature="0" />
          </symbol>
          <symbol
             id="textext-72fe2817-4"
             overflow="visible"
             style="overflow:visible">
            <path
               id="path3012"
               d="m 2.546875,-4.484375 -1.015625,0 0,-1.15625 c 0,-0.09375 0,-0.125 -0.0625,-0.125 C 1.390625,-5.6875 1.328125,-5.59375 1.265625,-5.5 c -0.375,0.5625 -0.8125,1.03125 -0.96875,1.078125 C 0.1875,-4.359375 0.125,-4.28125 0.125,-4.234375 c 0,0.03125 0.015625,0.046875 0.046875,0.0625 l 0.53125,0 0,3 c 0,0.84375 0.296875,1.265625 0.875,1.265625 0.5,0 0.875,-0.234375 1.203125,-0.75 l -0.125,-0.109375 c -0.21875,0.25 -0.390625,0.34375 -0.609375,0.34375 C 1.6875,-0.421875 1.53125,-0.6875 1.53125,-1.3125 l 0,-2.859375 1.015625,0 z m 0,0"
               style="stroke:none"
               inkscape:connector-curvature="0" />
          </symbol>
          <symbol
             id="textext-72fe2817-5"
             overflow="visible"
             style="overflow:visible">
            <path
               id="path3015"
               d="m 1.75,-4.578125 -1.546875,0.546875 0,0.140625 0.078125,0 c 0.125,-0.03125 0.25,-0.03125 0.34375,-0.03125 0.234375,0 0.328125,0.15625 0.328125,0.59375 l 0,2.3125 c 0,0.71875 -0.109375,0.828125 -0.796875,0.859375 l 0,0.15625 2.359375,0 0,-0.15625 C 1.859375,-0.203125 1.78125,-0.296875 1.78125,-1.015625 l 0,-3.546875 z M 1.28125,-6.8125 c -0.28125,0 -0.5,0.234375 -0.5,0.515625 0,0.28125 0.21875,0.5 0.5,0.5 0.28125,0 0.515625,-0.21875 0.515625,-0.5 0,-0.28125 -0.234375,-0.515625 -0.515625,-0.515625 z m 0,0"
               style="stroke:none"
               inkscape:connector-curvature="0" />
          </symbol>
          <symbol
             id="textext-72fe2817-6"
             overflow="visible"
             style="overflow:visible">
            <path
               id="path3018"
               d="m 4.78125,-0.5 -0.0625,0 c -0.453125,0 -0.5625,-0.109375 -0.5625,-0.5625 l 0,-3.421875 -1.578125,0 0,0.171875 c 0.625,0.03125 0.734375,0.125 0.734375,0.625 l 0,2.34375 c 0,0.28125 -0.046875,0.421875 -0.1875,0.53125 -0.265625,0.21875 -0.578125,0.328125 -0.875,0.328125 -0.390625,0 -0.703125,-0.328125 -0.703125,-0.75 l 0,-3.25 -1.453125,0 0,0.140625 c 0.46875,0.03125 0.609375,0.171875 0.609375,0.640625 l 0,2.5 c 0,0.796875 0.484375,1.296875 1.203125,1.296875 0.375,0 0.765625,-0.15625 1.03125,-0.421875 L 3.375,-0.75 l 0,0.8125 0.03125,0.03125 c 0.5,-0.203125 0.859375,-0.3125 1.375,-0.453125 z m 0,0"
               style="stroke:none"
               inkscape:connector-curvature="0" />
          </symbol>
          <symbol
             id="textext-72fe2817-7"
             overflow="visible"
             style="overflow:visible">
            <path
               id="path3021"
               d="m 3.140625,-3.125 -0.046875,-1.359375 -0.109375,0 L 2.96875,-4.46875 C 2.875,-4.390625 2.875,-4.390625 2.828125,-4.390625 c -0.0625,0 -0.15625,-0.015625 -0.265625,-0.0625 -0.21875,-0.078125 -0.4375,-0.125 -0.703125,-0.125 -0.78125,0 -1.34375,0.515625 -1.34375,1.234375 0,0.546875 0.3125,0.953125 1.15625,1.4375 L 2.25,-1.578125 c 0.359375,0.1875 0.515625,0.4375 0.515625,0.734375 0,0.4375 -0.3125,0.71875 -0.828125,0.71875 -0.328125,0 -0.640625,-0.125 -0.828125,-0.34375 -0.21875,-0.25 -0.296875,-0.484375 -0.4375,-1.046875 l -0.15625,0 0,1.5625 0.125,0 C 0.71875,-0.0625 0.75,-0.078125 0.875,-0.078125 c 0.09375,0 0.234375,0.015625 0.453125,0.078125 0.28125,0.0625 0.5625,0.09375 0.734375,0.09375 0.765625,0 1.40625,-0.578125 1.40625,-1.265625 0,-0.5 -0.234375,-0.828125 -0.84375,-1.1875 L 1.5625,-3 C 1.28125,-3.15625 1.125,-3.40625 1.125,-3.671875 c 0,-0.40625 0.3125,-0.6875 0.765625,-0.6875 0.578125,0 0.875,0.34375 1.09375,1.234375 z m 0,0"
               style="stroke:none"
               inkscape:connector-curvature="0" />
          </symbol>
          <symbol
             id="textext-72fe2817-8"
             overflow="visible"
             style="overflow:visible">
            <path
               id="path3024"
               d="m 0.390625,-2.5625 0,0.625 2.453125,0 0,-0.625 z m 0,0"
               style="stroke:none"
               inkscape:connector-curvature="0" />
          </symbol>
          <symbol
             id="textext-72fe2817-9"
             overflow="visible"
             style="overflow:visible">
            <path
               id="path3027"
               d="M 0.1875,-3.96875 C 0.3125,-4 0.40625,-4 0.515625,-4 c 0.25,0 0.34375,0.15625 0.34375,0.625 l 0,2.53125 c 0,0.53125 -0.140625,0.6875 -0.703125,0.6875 l 0,0.15625 2.21875,0 0,-0.15625 C 1.84375,-0.171875 1.6875,-0.28125 1.6875,-0.671875 l 0,-2.8125 c 0,-0.015625 0.09375,-0.109375 0.15625,-0.1875 0.25,-0.21875 0.671875,-0.390625 1.03125,-0.390625 0.4375,0 0.65625,0.34375 0.65625,1.046875 l 0,2.15625 c 0,0.5625 -0.109375,0.671875 -0.6875,0.703125 l 0,0.15625 2.234375,0 0,-0.15625 c -0.5625,0 -0.71875,-0.171875 -0.71875,-0.796875 l 0,-2.5 C 4.671875,-3.890625 5,-4.0625 5.453125,-4.0625 c 0.5625,0 0.75,0.265625 0.75,1.09375 l 0,2.09375 c 0,0.578125 -0.078125,0.65625 -0.65625,0.71875 l 0,0.15625 2.171875,0 0,-0.15625 -0.25,-0.015625 C 7.171875,-0.1875 7.03125,-0.375 7.03125,-0.75 l 0,-2.0625 c 0,-1.171875 -0.375,-1.765625 -1.15625,-1.765625 -0.578125,0 -1.078125,0.25 -1.625,0.828125 -0.171875,-0.5625 -0.515625,-0.828125 -1.046875,-0.828125 -0.4375,0 -0.71875,0.125 -1.546875,0.765625 l 0,-0.75 -0.078125,-0.015625 c -0.5,0.1875 -0.84375,0.296875 -1.390625,0.4375 z m 0,0"
               style="stroke:none"
               inkscape:connector-curvature="0" />
          </symbol>
          <symbol
             id="textext-72fe2817-10"
             overflow="visible"
             style="overflow:visible">
            <path
               id="path3030"
               d="M 4.0625,-1.640625 C 3.59375,-0.875 3.15625,-0.59375 2.515625,-0.59375 c -0.5625,0 -0.984375,-0.28125 -1.28125,-0.859375 -0.171875,-0.375 -0.25,-0.703125 -0.265625,-1.3125 l 3.0625,0 c -0.078125,-0.640625 -0.171875,-0.9375 -0.421875,-1.25 -0.296875,-0.359375 -0.765625,-0.5625 -1.28125,-0.5625 -0.5,0 -0.96875,0.171875 -1.34375,0.515625 C 0.515625,-3.65625 0.25,-2.953125 0.25,-2.140625 0.25,-0.75 0.96875,0.09375 2.109375,0.09375 c 0.953125,0 1.703125,-0.578125 2.125,-1.65625 z m -3.078125,-1.4375 c 0.109375,-0.78125 0.453125,-1.15625 1.0625,-1.15625 0.609375,0 0.84375,0.28125 0.96875,1.15625 z m 0,0"
               style="stroke:none"
               inkscape:connector-curvature="0" />
          </symbol>
          <symbol
             id="textext-72fe2817-11"
             overflow="visible"
             style="overflow:visible">
            <path
               id="path3033"
               d="m 4.453125,-6.734375 -0.203125,0 c -0.046875,0.21875 -0.15625,0.328125 -0.328125,0.328125 -0.09375,0 -0.265625,-0.03125 -0.4375,-0.109375 C 3.125,-6.65625 2.75,-6.734375 2.4375,-6.734375 c -0.4375,0 -0.875,0.171875 -1.203125,0.453125 -0.34375,0.3125 -0.53125,0.734375 -0.53125,1.25 0,0.796875 0.4375,1.359375 1.5625,1.9375 0.71875,0.375 1.234375,0.796875 1.484375,1.171875 0.09375,0.125 0.140625,0.34375 0.140625,0.578125 0,0.671875 -0.5,1.125 -1.234375,1.125 -0.875,0 -1.515625,-0.546875 -2.015625,-1.765625 l -0.21875,0 0.296875,2.109375 0.21875,0 c 0.015625,-0.1875 0.125,-0.328125 0.28125,-0.328125 0.109375,0 0.28125,0.046875 0.46875,0.109375 0.375,0.15625 0.78125,0.234375 1.171875,0.234375 1.140625,0 2.03125,-0.78125 2.03125,-1.8125 C 4.890625,-2.5 4.34375,-3.140625 3.03125,-3.84375 1.984375,-4.421875 1.5625,-4.859375 1.5625,-5.40625 c 0,-0.546875 0.421875,-0.921875 1.046875,-0.921875 0.4375,0 0.859375,0.1875 1.203125,0.546875 0.3125,0.3125 0.453125,0.578125 0.609375,1.171875 l 0.25,0 z m 0,0"
               style="stroke:none"
               inkscape:connector-curvature="0" />
          </symbol>
          <symbol
             id="textext-72fe2817-12"
             overflow="visible"
             style="overflow:visible">
            <path
               id="path3036"
               d="m 4.734375,-4.484375 -1.34375,0 0,0.140625 c 0.3125,0 0.484375,0.09375 0.484375,0.25 0,0.046875 -0.015625,0.109375 -0.046875,0.171875 l -0.96875,2.75 L 1.71875,-3.6875 c -0.0625,-0.140625 -0.109375,-0.265625 -0.109375,-0.375 0,-0.1875 0.15625,-0.25 0.578125,-0.28125 l 0,-0.140625 -2.046875,0 0,0.140625 c 0.265625,0.03125 0.421875,0.140625 0.5,0.3125 L 1.78125,-1.578125 1.8125,-1.5 1.96875,-1.203125 c 0.28125,0.5 0.4375,0.859375 0.4375,1.015625 0,0.140625 -0.234375,0.78125 -0.40625,1.078125 -0.140625,0.25 -0.359375,0.4375 -0.5,0.4375 -0.046875,0 -0.140625,-0.015625 -0.25,-0.0625 C 1.0625,1.203125 0.890625,1.15625 0.734375,1.15625 c -0.234375,0 -0.4375,0.203125 -0.4375,0.4375 0,0.328125 0.328125,0.578125 0.734375,0.578125 0.671875,0 1.15625,-0.5625 1.6875,-2 L 4.25,-3.890625 C 4.390625,-4.203125 4.5,-4.3125 4.734375,-4.34375 z m 0,0"
               style="stroke:none"
               inkscape:connector-curvature="0" />
          </symbol>
        </g>
      </defs>
      <g
         id="textext-72fe2817-13">
        <g
           id="g3039"
           style="fill:#000000;fill-opacity:1">
          <use
             id="use3041"
             y="134.765"
             x="223.43201"
             xlink:href="#textext-72fe2817-1"
             width="425.19684"
             height="212.59842" />
          <use
             id="use3043"
             y="134.765"
             x="230.07706"
             xlink:href="#textext-72fe2817-2"
             width="425.19684"
             height="212.59842" />
          <use
             id="use3045"
             y="134.765"
             x="235.05835"
             xlink:href="#textext-72fe2817-3"
             width="425.19684"
             height="212.59842" />
          <use
             id="use3047"
             y="134.765"
             x="240.03966"
             xlink:href="#textext-72fe2817-4"
             width="425.19684"
             height="212.59842" />
          <use
             id="use3049"
             y="134.765"
             x="242.80925"
             xlink:href="#textext-72fe2817-5"
             width="425.19684"
             height="212.59842" />
          <use
             id="use3051"
             y="134.765"
             x="245.57886"
             xlink:href="#textext-72fe2817-3"
             width="425.19684"
             height="212.59842" />
          <use
             id="use3053"
             y="134.765"
             x="250.56017"
             xlink:href="#textext-72fe2817-6"
             width="425.19684"
             height="212.59842" />
          <use
             id="use3055"
             y="134.765"
             x="255.54146"
             xlink:href="#textext-72fe2817-2"
             width="425.19684"
             height="212.59842" />
          <use
             id="use3057"
             y="134.765"
             x="260.52277"
             xlink:href="#textext-72fe2817-6"
             width="425.19684"
             height="212.59842" />
          <use
             id="use3059"
             y="134.765"
             x="265.50406"
             xlink:href="#textext-72fe2817-7"
             width="425.19684"
             height="212.59842" />
          <use
             id="use3061"
             y="134.765"
             x="269.37952"
             xlink:href="#textext-72fe2817-8"
             width="425.19684"
             height="212.59842" />
          <use
             id="use3063"
             y="134.765"
             x="272.69705"
             xlink:href="#textext-72fe2817-4"
             width="425.19684"
             height="212.59842" />
          <use
             id="use3065"
             y="134.765"
             x="275.46667"
             xlink:href="#textext-72fe2817-5"
             width="425.19684"
             height="212.59842" />
          <use
             id="use3067"
             y="134.765"
             x="278.23627"
             xlink:href="#textext-72fe2817-9"
             width="425.19684"
             height="212.59842" />
          <use
             id="use3069"
             y="134.765"
             x="285.98715"
             xlink:href="#textext-72fe2817-10"
             width="425.19684"
             height="212.59842" />
        </g>
        <g
           id="g3071"
           style="fill:#000000;fill-opacity:1"
           transform="translate(-49.683206,10.109955)">
          <use
             id="use3073"
             y="134.765"
             x="292.90121"
             xlink:href="#textext-72fe2817-11"
             width="425.19684"
             height="212.59842" />
          <use
             id="use3075"
             y="134.765"
             x="298.44043"
             xlink:href="#textext-72fe2817-12"
             width="425.19684"
             height="212.59842" />
          <use
             id="use3077"
             y="134.765"
             x="303.42172"
             xlink:href="#textext-72fe2817-7"
             width="425.19684"
             height="212.59842" />
          <use
             id="use3079"
             y="134.765"
             x="307.29718"
             xlink:href="#textext-72fe2817-4"
             width="425.19684"
             height="212.59842" />
          <use
             id="use3081"
             y="134.765"
             x="310.06677"
             xlink:href="#textext-72fe2817-10"
             width="425.19684"
             height="212.59842" />
          <use
             id="use3083"
             y="134.765"
             x="314.49017"
             xlink:href="#textext-72fe2817-9"
             width="425.19684"
             height="212.59842" />
        </g>
      </g>
    </g>
    <path
       style="fill:none;stroke:#000000;stroke-width:1.375;stroke-linecap:butt;stroke-linejoin:miter;stroke-opacity:1;marker-end:url(#Arrow1Mend);stroke-miterlimit:4;stroke-dasharray:none"
       d="m 267.24943,98.558131 56.84683,0"
       id="path3142"
       inkscape:connector-curvature="0"
       transform="translate(0,839.76245)" />
    <path
       inkscape:connector-curvature="0"
       id="path4356"
       d="m 58.289311,938.32058 56.846839,0"
       style="fill:none;stroke:#000000;stroke-width:1.375;stroke-linecap:butt;stroke-linejoin:miter;stroke-miterlimit:4;stroke-opacity:1;stroke-dasharray:none;marker-end:url(#Arrow1Mend)" />
    <g
       transform="matrix(1.2,0,0,1.2,-230.52358,779.34332)"
       ns0:text="$x$(t)"
       ns0:preamble="/home/sriranga/Desktop/Mangaluru-Project/src/chap1/package.tex"
       id="g4421">
      <defs
         id="defs4423">
        <g
           id="g4425">
          <symbol
             style="overflow:visible"
             overflow="visible"
             id="textext-0606d062-0">
            <path
               inkscape:connector-curvature="0"
               style="stroke:none"
               d=""
               id="path4428" />
          </symbol>
          <symbol
             style="overflow:visible"
             overflow="visible"
             id="textext-0606d062-1">
            <path
               inkscape:connector-curvature="0"
               style="stroke:none"
               d="M 4,-1.109375 C 3.921875,-1.015625 3.875,-0.953125 3.78125,-0.84375 3.5625,-0.53125 3.4375,-0.4375 3.328125,-0.4375 3.1875,-0.4375 3.09375,-0.5625 3.015625,-0.84375 3,-0.921875 2.984375,-0.984375 2.984375,-1.015625 2.734375,-2.03125 2.625,-2.484375 2.625,-2.625 c 0.4375,-0.78125 0.796875,-1.21875 0.96875,-1.21875 0.0625,0 0.140625,0.03125 0.25,0.078125 0.109375,0.078125 0.1875,0.09375 0.265625,0.09375 0.203125,0 0.34375,-0.140625 0.34375,-0.359375 0,-0.203125 -0.171875,-0.359375 -0.40625,-0.359375 -0.4375,0 -0.8125,0.359375 -1.5,1.421875 L 2.4375,-3.515625 c -0.140625,-0.6875 -0.25,-0.875 -0.53125,-0.875 -0.21875,0 -0.546875,0.078125 -1.15625,0.28125 L 0.640625,-4.0625 0.671875,-3.921875 C 1.0625,-4 1.140625,-4.03125 1.234375,-4.03125 c 0.25,0 0.3125,0.09375 0.453125,0.6875 l 0.28125,1.234375 -0.8125,1.15625 C 0.953125,-0.640625 0.75,-0.46875 0.640625,-0.46875 0.59375,-0.46875 0.484375,-0.5 0.390625,-0.5625 0.265625,-0.625 0.15625,-0.65625 0.0625,-0.65625 c -0.1875,0 -0.328125,0.140625 -0.328125,0.34375 0,0.265625 0.203125,0.421875 0.5,0.421875 0.296875,0 0.421875,-0.09375 0.921875,-0.703125 0.265625,-0.3125 0.484375,-0.578125 0.890625,-1.15625 l 0.3125,1.1875 c 0.125,0.515625 0.25,0.671875 0.578125,0.671875 0.375,0 0.625,-0.234375 1.203125,-1.140625 z m 0,0"
               id="path4431" />
          </symbol>
          <symbol
             style="overflow:visible"
             overflow="visible"
             id="textext-0606d062-2">
            <path
               inkscape:connector-curvature="0"
               style="stroke:none"
               d=""
               id="path4434" />
          </symbol>
          <symbol
             style="overflow:visible"
             overflow="visible"
             id="textext-0606d062-3">
            <path
               inkscape:connector-curvature="0"
               style="stroke:none"
               d="M 2.9375,-6.734375 C 2.203125,-6.265625 1.90625,-6 1.53125,-5.546875 c -0.703125,0.875 -1.046875,1.875 -1.046875,3.03125 0,1.265625 0.359375,2.25 1.234375,3.265625 0.421875,0.46875 0.671875,0.703125 1.1875,1.015625 l 0.125,-0.15625 C 2.234375,0.984375 1.953125,0.625 1.6875,-0.125 1.453125,-0.78125 1.328125,-1.546875 1.328125,-2.546875 1.328125,-3.59375 1.46875,-4.40625 1.734375,-5.03125 2.015625,-5.640625 2.3125,-6 3.03125,-6.578125 z m 0,0"
               id="path4437" />
          </symbol>
          <symbol
             style="overflow:visible"
             overflow="visible"
             id="textext-0606d062-4">
            <path
               inkscape:connector-curvature="0"
               style="stroke:none"
               d="m 2.546875,-4.484375 -1.015625,0 0,-1.15625 c 0,-0.09375 0,-0.125 -0.0625,-0.125 C 1.390625,-5.6875 1.328125,-5.59375 1.265625,-5.5 c -0.375,0.5625 -0.8125,1.03125 -0.96875,1.078125 C 0.1875,-4.359375 0.125,-4.28125 0.125,-4.234375 c 0,0.03125 0.015625,0.046875 0.046875,0.0625 l 0.53125,0 0,3 c 0,0.84375 0.296875,1.265625 0.875,1.265625 0.5,0 0.875,-0.234375 1.203125,-0.75 l -0.125,-0.109375 c -0.21875,0.25 -0.390625,0.34375 -0.609375,0.34375 C 1.6875,-0.421875 1.53125,-0.6875 1.53125,-1.3125 l 0,-2.859375 1.015625,0 z m 0,0"
               id="path4440" />
          </symbol>
          <symbol
             style="overflow:visible"
             overflow="visible"
             id="textext-0606d062-5">
            <path
               inkscape:connector-curvature="0"
               style="stroke:none"
               d="M 0.375,1.765625 C 1.109375,1.28125 1.421875,1.03125 1.78125,0.5625 2.5,-0.296875 2.84375,-1.296875 2.84375,-2.46875 c 0,-1.265625 -0.375,-2.234375 -1.25,-3.25 C 1.1875,-6.203125 0.921875,-6.421875 0.40625,-6.734375 l -0.109375,0.15625 c 0.796875,0.625 1.0625,0.96875 1.34375,1.71875 0.234375,0.671875 0.34375,1.4375 0.34375,2.421875 0,1.046875 -0.125,1.875 -0.40625,2.484375 C 1.3125,0.671875 1,1.03125 0.296875,1.609375 z m 0,0"
               id="path4443" />
          </symbol>
        </g>
      </defs>
      <g
         id="textext-0606d062-6">
        <g
           style="fill:#000000;fill-opacity:1"
           id="g4446">
          <use
             height="212.59842"
             width="425.19684"
             xlink:href="#textext-0606d062-1"
             x="223.92999"
             y="134.765"
             id="use4448" />
        </g>
        <g
           style="fill:#000000;fill-opacity:1"
           id="g4450">
          <use
             height="212.59842"
             width="425.19684"
             xlink:href="#textext-0606d062-3"
             x="228.384"
             y="134.765"
             id="use4452" />
          <use
             height="212.59842"
             width="425.19684"
             xlink:href="#textext-0606d062-4"
             x="231.70155"
             y="134.765"
             id="use4454" />
          <use
             height="212.59842"
             width="425.19684"
             xlink:href="#textext-0606d062-5"
             x="234.47115"
             y="134.765"
             id="use4456" />
        </g>
      </g>
    </g>
    <g
       id="g4670"
       transform="matrix(1.2,0,0,1.2,61.811351,779.13279)"
       ns0:preamble="/home/sriranga/Desktop/Mangaluru-Project/src/chap1/package.tex"
       ns0:text="$y$(t)">
      <defs
         id="defs4672">
        <g
           id="g4674">
          <symbol
             id="textext-077b34be-0"
             overflow="visible"
             style="overflow:visible">
            <path
               id="path4677"
               d=""
               style="stroke:none"
               inkscape:connector-curvature="0" />
          </symbol>
          <symbol
             id="textext-077b34be-1"
             overflow="visible"
             style="overflow:visible">
            <path
               id="path4680"
               d="m 0.15625,-3.984375 c 0.125,-0.03125 0.1875,-0.046875 0.296875,-0.046875 0.578125,0 0.71875,0.25 1.1875,1.96875 0.15625,0.640625 0.40625,1.8125 0.40625,1.984375 0,0.15625 -0.0625,0.3125 -0.21875,0.5 -0.296875,0.40625 -0.5,0.671875 -0.609375,0.78125 C 1,1.421875 0.890625,1.5 0.75,1.5 0.703125,1.5 0.625,1.46875 0.515625,1.390625 0.375,1.28125 0.265625,1.21875 0.15625,1.21875 c -0.21875,0 -0.390625,0.171875 -0.390625,0.390625 0,0.25 0.21875,0.4375 0.5,0.4375 0.640625,0 1.953125,-1.484375 3.03125,-3.46875 C 3.96875,-2.640625 4.25,-3.359375 4.25,-3.84375 4.25,-4.140625 4,-4.390625 3.703125,-4.390625 3.46875,-4.390625 3.3125,-4.25 3.3125,-4.03125 c 0,0.15625 0.078125,0.265625 0.28125,0.390625 0.1875,0.109375 0.25,0.203125 0.25,0.34375 0,0.390625 -0.359375,1.171875 -1.21875,2.578125 L 2.4375,-1.875 C 2.28125,-2.75 1.71875,-4.390625 1.578125,-4.390625 l -0.046875,0 c 0,0 -0.046875,0 -0.078125,0 C 1.359375,-4.375 1,-4.3125 0.46875,-4.21875 c -0.046875,0.015625 -0.171875,0.046875 -0.3125,0.0625 z m 0,0"
               style="stroke:none"
               inkscape:connector-curvature="0" />
          </symbol>
          <symbol
             id="textext-077b34be-2"
             overflow="visible"
             style="overflow:visible">
            <path
               id="path4683"
               d=""
               style="stroke:none"
               inkscape:connector-curvature="0" />
          </symbol>
          <symbol
             id="textext-077b34be-3"
             overflow="visible"
             style="overflow:visible">
            <path
               id="path4686"
               d="M 2.9375,-6.734375 C 2.203125,-6.265625 1.90625,-6 1.53125,-5.546875 c -0.703125,0.875 -1.046875,1.875 -1.046875,3.03125 0,1.265625 0.359375,2.25 1.234375,3.265625 0.421875,0.46875 0.671875,0.703125 1.1875,1.015625 l 0.125,-0.15625 C 2.234375,0.984375 1.953125,0.625 1.6875,-0.125 1.453125,-0.78125 1.328125,-1.546875 1.328125,-2.546875 1.328125,-3.59375 1.46875,-4.40625 1.734375,-5.03125 2.015625,-5.640625 2.3125,-6 3.03125,-6.578125 z m 0,0"
               style="stroke:none"
               inkscape:connector-curvature="0" />
          </symbol>
          <symbol
             id="textext-077b34be-4"
             overflow="visible"
             style="overflow:visible">
            <path
               id="path4689"
               d="m 2.546875,-4.484375 -1.015625,0 0,-1.15625 c 0,-0.09375 0,-0.125 -0.0625,-0.125 C 1.390625,-5.6875 1.328125,-5.59375 1.265625,-5.5 c -0.375,0.5625 -0.8125,1.03125 -0.96875,1.078125 C 0.1875,-4.359375 0.125,-4.28125 0.125,-4.234375 c 0,0.03125 0.015625,0.046875 0.046875,0.0625 l 0.53125,0 0,3 c 0,0.84375 0.296875,1.265625 0.875,1.265625 0.5,0 0.875,-0.234375 1.203125,-0.75 l -0.125,-0.109375 c -0.21875,0.25 -0.390625,0.34375 -0.609375,0.34375 C 1.6875,-0.421875 1.53125,-0.6875 1.53125,-1.3125 l 0,-2.859375 1.015625,0 z m 0,0"
               style="stroke:none"
               inkscape:connector-curvature="0" />
          </symbol>
          <symbol
             id="textext-077b34be-5"
             overflow="visible"
             style="overflow:visible">
            <path
               id="path4692"
               d="M 0.375,1.765625 C 1.109375,1.28125 1.421875,1.03125 1.78125,0.5625 2.5,-0.296875 2.84375,-1.296875 2.84375,-2.46875 c 0,-1.265625 -0.375,-2.234375 -1.25,-3.25 C 1.1875,-6.203125 0.921875,-6.421875 0.40625,-6.734375 l -0.109375,0.15625 c 0.796875,0.625 1.0625,0.96875 1.34375,1.71875 0.234375,0.671875 0.34375,1.4375 0.34375,2.421875 0,1.046875 -0.125,1.875 -0.40625,2.484375 C 1.3125,0.671875 1,1.03125 0.296875,1.609375 z m 0,0"
               style="stroke:none"
               inkscape:connector-curvature="0" />
          </symbol>
        </g>
      </defs>
      <g
         id="textext-077b34be-6">
        <g
           id="g4695"
           style="fill:#000000;fill-opacity:1">
          <use
             id="use4697"
             y="134.765"
             x="223.43201"
             xlink:href="#textext-077b34be-1"
             width="425.19684"
             height="212.59842" />
        </g>
        <g
           id="g4699"
           style="fill:#000000;fill-opacity:1">
          <use
             id="use4701"
             y="134.765"
             x="227.856"
             xlink:href="#textext-077b34be-3"
             width="425.19684"
             height="212.59842" />
          <use
             id="use4703"
             y="134.765"
             x="231.17355"
             xlink:href="#textext-077b34be-4"
             width="425.19684"
             height="212.59842" />
          <use
             id="use4705"
             y="134.765"
             x="233.94315"
             xlink:href="#textext-077b34be-5"
             width="425.19684"
             height="212.59842" />
        </g>
      </g>
    </g>
  </g>
</svg>
