<?xml version="1.0" encoding="UTF-8" standalone="no"?>
<!-- Created with Inkscape (http://www.inkscape.org/) -->

<svg
   xmlns:ns0="http://www.iki.fi/pav/software/textext/"
   xmlns:dc="http://purl.org/dc/elements/1.1/"
   xmlns:cc="http://creativecommons.org/ns#"
   xmlns:rdf="http://www.w3.org/1999/02/22-rdf-syntax-ns#"
   xmlns:svg="http://www.w3.org/2000/svg"
   xmlns="http://www.w3.org/2000/svg"
   xmlns:xlink="http://www.w3.org/1999/xlink"
   xmlns:sodipodi="http://sodipodi.sourceforge.net/DTD/sodipodi-0.dtd"
   xmlns:inkscape="http://www.inkscape.org/namespaces/inkscape"
   width="425.19684"
   height="212.59842"
   id="svg2"
   version="1.1"
   inkscape:version="0.48.4 r9939"
   sodipodi:docname="fig5.eps">
  <sodipodi:namedview
     id="base"
     pagecolor="#ffffff"
     bordercolor="#666666"
     borderopacity="1.0"
     inkscape:pageopacity="0.0"
     inkscape:pageshadow="2"
     inkscape:zoom="2.0487801"
     inkscape:cx="227.68936"
     inkscape:cy="152.34334"
     inkscape:document-units="px"
     inkscape:current-layer="layer1"
     showgrid="false"
     units="cm"
     inkscape:window-width="1024"
     inkscape:window-height="744"
     inkscape:window-x="0"
     inkscape:window-y="24"
     inkscape:window-maximized="1" />
  <defs
     id="defs4">
    <marker
       style="overflow:visible;"
       id="Arrow1Mend"
       refX="0.0"
       refY="0.0"
       orient="auto"
       inkscape:stockid="Arrow1Mend">
      <path
         transform="scale(0.4) rotate(180) translate(10,0)"
         style="fill-rule:evenodd;stroke:#000000;stroke-width:1.0pt;"
         d="M 0.0,0.0 L 5.0,-5.0 L -12.5,0.0 L 5.0,5.0 L 0.0,0.0 z "
         id="path3925" />
    </marker>
  </defs>
  <metadata
     id="metadata7">
    <rdf:RDF>
      <cc:Work
         rdf:about="">
        <dc:format>image/svg+xml</dc:format>
        <dc:type
           rdf:resource="http://purl.org/dc/dcmitype/StillImage" />
        <dc:title></dc:title>
      </cc:Work>
    </rdf:RDF>
  </metadata>
  <g
     inkscape:label="Layer 1"
     inkscape:groupmode="layer"
     id="layer1"
     transform="translate(0,-839.76245)">
    <rect
       style="fill:none;stroke:#000000;stroke-width:1.375;stroke-miterlimit:4;stroke-opacity:1;stroke-dasharray:none;stroke-dashoffset:0"
       id="rect2985"
       width="149.95801"
       height="33.849918"
       x="117.4845"
       y="921.10052" />
    <path
       transform="translate(0,839.76245)"
       inkscape:connector-curvature="0"
       id="path3142"
       d="m 267.24943,98.558131 56.84683,0"
       style="fill:none;stroke:#000000;stroke-width:1.375;stroke-linecap:butt;stroke-linejoin:miter;stroke-opacity:1;marker-end:url(#Arrow1Mend);stroke-miterlimit:4;stroke-dasharray:none" />
    <path
       style="fill:none;stroke:#000000;stroke-width:1.375;stroke-linecap:butt;stroke-linejoin:miter;stroke-miterlimit:4;stroke-opacity:1;stroke-dasharray:none;marker-end:url(#Arrow1Mend)"
       d="m 58.289311,938.32058 56.846839,0"
       id="path4356"
       inkscape:connector-curvature="0" />
    <g
       ns0:text="Computer"
       ns0:preamble="/home/sriranga/Desktop/Mangaluru-Project/src/chap1/package.tex"
       transform="matrix(1.2,0,0,1.2,-101.48001,779.18741)"
       id="g5982">
      <defs
         id="defs5984">
        <g
           id="g5986">
          <symbol
             style="overflow:visible"
             overflow="visible"
             id="textext-7cfbd61e-0">
            <path
               inkscape:connector-curvature="0"
               style="stroke:none"
               d=""
               id="path5989" />
          </symbol>
          <symbol
             style="overflow:visible"
             overflow="visible"
             id="textext-7cfbd61e-1">
            <path
               inkscape:connector-curvature="0"
               style="stroke:none"
               d="m 6.1875,-4.484375 -0.09375,-2.25 -0.21875,0 C 5.828125,-6.53125 5.65625,-6.40625 5.46875,-6.40625 5.375,-6.40625 5.21875,-6.4375 5.078125,-6.5 4.578125,-6.65625 4.09375,-6.734375 3.625,-6.734375 2.796875,-6.734375 1.96875,-6.4375 1.359375,-5.875 0.65625,-5.265625 0.28125,-4.34375 0.28125,-3.234375 c 0,0.921875 0.296875,1.78125 0.8125,2.34375 0.59375,0.65625 1.515625,1.03125 2.5,1.03125 1.125,0 2.109375,-0.453125 2.71875,-1.265625 L 6.125,-1.3125 C 5.390625,-0.59375 4.734375,-0.296875 3.90625,-0.296875 3.28125,-0.296875 2.71875,-0.5 2.296875,-0.875 1.75,-1.359375 1.4375,-2.265625 1.4375,-3.375 c 0,-1.796875 0.921875,-2.96875 2.375,-2.96875 0.5625,0 1.078125,0.21875 1.484375,0.609375 0.3125,0.328125 0.46875,0.59375 0.65625,1.25 z m 0,0"
               id="path5992" />
          </symbol>
          <symbol
             style="overflow:visible"
             overflow="visible"
             id="textext-7cfbd61e-2">
            <path
               inkscape:connector-curvature="0"
               style="stroke:none"
               d="m 2.5,-4.578125 c -1.296875,0 -2.203125,0.953125 -2.203125,2.328125 0,1.34375 0.921875,2.34375 2.171875,2.34375 1.265625,0 2.21875,-1.046875 2.21875,-2.421875 0,-1.3125 -0.921875,-2.25 -2.1875,-2.25 z M 2.359375,-4.3125 c 0.84375,0 1.421875,0.96875 1.421875,2.328125 0,1.125 -0.4375,1.8125 -1.1875,1.8125 -0.390625,0 -0.765625,-0.25 -0.96875,-0.640625 C 1.34375,-1.328125 1.1875,-2.03125 1.1875,-2.734375 1.1875,-3.6875 1.65625,-4.3125 2.359375,-4.3125 z m 0,0"
               id="path5995" />
          </symbol>
          <symbol
             style="overflow:visible"
             overflow="visible"
             id="textext-7cfbd61e-3">
            <path
               inkscape:connector-curvature="0"
               style="stroke:none"
               d="M 0.1875,-3.96875 C 0.3125,-4 0.40625,-4 0.515625,-4 c 0.25,0 0.34375,0.15625 0.34375,0.625 l 0,2.53125 c 0,0.53125 -0.140625,0.6875 -0.703125,0.6875 l 0,0.15625 2.21875,0 0,-0.15625 C 1.84375,-0.171875 1.6875,-0.28125 1.6875,-0.671875 l 0,-2.8125 c 0,-0.015625 0.09375,-0.109375 0.15625,-0.1875 0.25,-0.21875 0.671875,-0.390625 1.03125,-0.390625 0.4375,0 0.65625,0.34375 0.65625,1.046875 l 0,2.15625 c 0,0.5625 -0.109375,0.671875 -0.6875,0.703125 l 0,0.15625 2.234375,0 0,-0.15625 c -0.5625,0 -0.71875,-0.171875 -0.71875,-0.796875 l 0,-2.5 C 4.671875,-3.890625 5,-4.0625 5.453125,-4.0625 c 0.5625,0 0.75,0.265625 0.75,1.09375 l 0,2.09375 c 0,0.578125 -0.078125,0.65625 -0.65625,0.71875 l 0,0.15625 2.171875,0 0,-0.15625 -0.25,-0.015625 C 7.171875,-0.1875 7.03125,-0.375 7.03125,-0.75 l 0,-2.0625 c 0,-1.171875 -0.375,-1.765625 -1.15625,-1.765625 -0.578125,0 -1.078125,0.25 -1.625,0.828125 -0.171875,-0.5625 -0.515625,-0.828125 -1.046875,-0.828125 -0.4375,0 -0.71875,0.125 -1.546875,0.765625 l 0,-0.75 -0.078125,-0.015625 c -0.5,0.1875 -0.84375,0.296875 -1.390625,0.4375 z m 0,0"
               id="path5998" />
          </symbol>
          <symbol
             style="overflow:visible"
             overflow="visible"
             id="textext-7cfbd61e-4">
            <path
               inkscape:connector-curvature="0"
               style="stroke:none"
               d="m 0.09375,-3.921875 c 0.078125,0 0.15625,0 0.25,0 0.328125,0 0.40625,0.09375 0.40625,0.5625 l 0,4.671875 C 0.75,1.828125 0.640625,1.9375 0.046875,2 l 0,0.15625 2.421875,0 0,-0.171875 c -0.75,-0.015625 -0.890625,-0.125 -0.890625,-0.75 l 0,-1.5625 C 1.9375,0 2.171875,0.09375 2.59375,0.09375 c 1.171875,0 2.09375,-1.109375 2.09375,-2.5625 0,-1.234375 -0.703125,-2.109375 -1.671875,-2.109375 -0.546875,0 -0.984375,0.234375 -1.4375,0.78125 l 0,-0.765625 L 1.53125,-4.578125 C 0.984375,-4.375 0.640625,-4.25 0.09375,-4.078125 z m 1.484375,0.59375 c 0,-0.296875 0.5625,-0.65625 1.03125,-0.65625 0.734375,0 1.21875,0.75 1.21875,1.90625 0,1.109375 -0.484375,1.859375 -1.203125,1.859375 -0.46875,0 -1.046875,-0.359375 -1.046875,-0.65625 z m 0,0"
               id="path6001" />
          </symbol>
          <symbol
             style="overflow:visible"
             overflow="visible"
             id="textext-7cfbd61e-5">
            <path
               inkscape:connector-curvature="0"
               style="stroke:none"
               d="m 4.78125,-0.5 -0.0625,0 c -0.453125,0 -0.5625,-0.109375 -0.5625,-0.5625 l 0,-3.421875 -1.578125,0 0,0.171875 c 0.625,0.03125 0.734375,0.125 0.734375,0.625 l 0,2.34375 c 0,0.28125 -0.046875,0.421875 -0.1875,0.53125 -0.265625,0.21875 -0.578125,0.328125 -0.875,0.328125 -0.390625,0 -0.703125,-0.328125 -0.703125,-0.75 l 0,-3.25 -1.453125,0 0,0.140625 c 0.46875,0.03125 0.609375,0.171875 0.609375,0.640625 l 0,2.5 c 0,0.796875 0.484375,1.296875 1.203125,1.296875 0.375,0 0.765625,-0.15625 1.03125,-0.421875 L 3.375,-0.75 l 0,0.8125 0.03125,0.03125 c 0.5,-0.203125 0.859375,-0.3125 1.375,-0.453125 z m 0,0"
               id="path6004" />
          </symbol>
          <symbol
             style="overflow:visible"
             overflow="visible"
             id="textext-7cfbd61e-6">
            <path
               inkscape:connector-curvature="0"
               style="stroke:none"
               d="m 2.546875,-4.484375 -1.015625,0 0,-1.15625 c 0,-0.09375 0,-0.125 -0.0625,-0.125 C 1.390625,-5.6875 1.328125,-5.59375 1.265625,-5.5 c -0.375,0.5625 -0.8125,1.03125 -0.96875,1.078125 C 0.1875,-4.359375 0.125,-4.28125 0.125,-4.234375 c 0,0.03125 0.015625,0.046875 0.046875,0.0625 l 0.53125,0 0,3 c 0,0.84375 0.296875,1.265625 0.875,1.265625 0.5,0 0.875,-0.234375 1.203125,-0.75 l -0.125,-0.109375 c -0.21875,0.25 -0.390625,0.34375 -0.609375,0.34375 C 1.6875,-0.421875 1.53125,-0.6875 1.53125,-1.3125 l 0,-2.859375 1.015625,0 z m 0,0"
               id="path6007" />
          </symbol>
          <symbol
             style="overflow:visible"
             overflow="visible"
             id="textext-7cfbd61e-7">
            <path
               inkscape:connector-curvature="0"
               style="stroke:none"
               d="M 4.0625,-1.640625 C 3.59375,-0.875 3.15625,-0.59375 2.515625,-0.59375 c -0.5625,0 -0.984375,-0.28125 -1.28125,-0.859375 -0.171875,-0.375 -0.25,-0.703125 -0.265625,-1.3125 l 3.0625,0 c -0.078125,-0.640625 -0.171875,-0.9375 -0.421875,-1.25 -0.296875,-0.359375 -0.765625,-0.5625 -1.28125,-0.5625 -0.5,0 -0.96875,0.171875 -1.34375,0.515625 C 0.515625,-3.65625 0.25,-2.953125 0.25,-2.140625 0.25,-0.75 0.96875,0.09375 2.109375,0.09375 c 0.953125,0 1.703125,-0.578125 2.125,-1.65625 z m -3.078125,-1.4375 c 0.109375,-0.78125 0.453125,-1.15625 1.0625,-1.15625 0.609375,0 0.84375,0.28125 0.96875,1.15625 z m 0,0"
               id="path6010" />
          </symbol>
          <symbol
             style="overflow:visible"
             overflow="visible"
             id="textext-7cfbd61e-8">
            <path
               inkscape:connector-curvature="0"
               style="stroke:none"
               d="m 0.0625,-3.890625 c 0.140625,-0.03125 0.234375,-0.03125 0.359375,-0.03125 0.25,0 0.328125,0.15625 0.328125,0.59375 l 0,2.484375 c 0,0.5 -0.0625,0.578125 -0.703125,0.6875 l 0,0.15625 2.390625,0 0,-0.15625 C 1.765625,-0.171875 1.59375,-0.328125 1.59375,-0.890625 l 0,-2.25 c 0,-0.3125 0.4375,-0.8125 0.703125,-0.8125 0.0625,0 0.140625,0.046875 0.25,0.140625 0.171875,0.140625 0.28125,0.203125 0.40625,0.203125 0.234375,0 0.390625,-0.171875 0.390625,-0.453125 0,-0.328125 -0.21875,-0.515625 -0.546875,-0.515625 -0.421875,0 -0.71875,0.21875 -1.203125,0.921875 l 0,-0.90625 -0.046875,-0.015625 c -0.53125,0.21875 -0.890625,0.34375 -1.484375,0.53125 z m 0,0"
               id="path6013" />
          </symbol>
        </g>
      </defs>
      <g
         id="textext-7cfbd61e-9">
        <g
           style="fill:#000000;fill-opacity:1"
           id="g6016">
          <use
             height="212.59842"
             width="425.19684"
             xlink:href="#textext-7cfbd61e-1"
             x="223.43201"
             y="134.765"
             id="use6018" />
          <use
             height="212.59842"
             width="425.19684"
             xlink:href="#textext-7cfbd61e-2"
             x="230.07706"
             y="134.765"
             id="use6020" />
          <use
             height="212.59842"
             width="425.19684"
             xlink:href="#textext-7cfbd61e-3"
             x="235.05835"
             y="134.765"
             id="use6022" />
          <use
             height="212.59842"
             width="425.19684"
             xlink:href="#textext-7cfbd61e-4"
             x="242.80925"
             y="134.765"
             id="use6024" />
          <use
             height="212.59842"
             width="425.19684"
             xlink:href="#textext-7cfbd61e-5"
             x="247.79056"
             y="134.765"
             id="use6026" />
          <use
             height="212.59842"
             width="425.19684"
             xlink:href="#textext-7cfbd61e-6"
             x="252.77185"
             y="134.765"
             id="use6028" />
          <use
             height="212.59842"
             width="425.19684"
             xlink:href="#textext-7cfbd61e-7"
             x="255.54146"
             y="134.765"
             id="use6030" />
          <use
             height="212.59842"
             width="425.19684"
             xlink:href="#textext-7cfbd61e-8"
             x="259.96484"
             y="134.765"
             id="use6032" />
        </g>
      </g>
    </g>
    <g
       id="g6264"
       transform="matrix(1.2,0,0,1.2,-214.23003,771.10406)"
       ns0:preamble="/home/sriranga/Desktop/Mangaluru-Project/src/chap1/package.tex"
       ns0:text="Voice">
      <defs
         id="defs6266">
        <g
           id="g6268">
          <symbol
             id="textext-b10eabbe-0"
             overflow="visible"
             style="overflow:visible">
            <path
               id="path6271"
               d=""
               style="stroke:none"
               inkscape:connector-curvature="0" />
          </symbol>
          <symbol
             id="textext-b10eabbe-1"
             overflow="visible"
             style="overflow:visible">
            <path
               id="path6274"
               d="m 6.953125,-6.59375 -2.046875,0 0,0.1875 C 5.453125,-6.375 5.625,-6.265625 5.625,-5.984375 c 0,0.15625 -0.0625,0.421875 -0.1875,0.71875 L 3.984375,-1.609375 2.46875,-4.96875 C 2.140625,-5.703125 2.0625,-5.9375 2.0625,-6.078125 c 0,-0.1875 0.140625,-0.296875 0.453125,-0.3125 0.046875,0 0.15625,-0.015625 0.296875,-0.015625 l 0,-0.1875 -2.65625,0 0,0.1875 c 0.484375,0.015625 0.625,0.15625 1.0625,1.046875 l 2.453125,5.46875 0.140625,0 2.21875,-5.59375 C 6.359375,-6.265625 6.46875,-6.375 6.953125,-6.40625 z m 0,0"
               style="stroke:none"
               inkscape:connector-curvature="0" />
          </symbol>
          <symbol
             id="textext-b10eabbe-2"
             overflow="visible"
             style="overflow:visible">
            <path
               id="path6277"
               d="m 2.5,-4.578125 c -1.296875,0 -2.203125,0.953125 -2.203125,2.328125 0,1.34375 0.921875,2.34375 2.171875,2.34375 1.265625,0 2.21875,-1.046875 2.21875,-2.421875 0,-1.3125 -0.921875,-2.25 -2.1875,-2.25 z M 2.359375,-4.3125 c 0.84375,0 1.421875,0.96875 1.421875,2.328125 0,1.125 -0.4375,1.8125 -1.1875,1.8125 -0.390625,0 -0.765625,-0.25 -0.96875,-0.640625 C 1.34375,-1.328125 1.1875,-2.03125 1.1875,-2.734375 1.1875,-3.6875 1.65625,-4.3125 2.359375,-4.3125 z m 0,0"
               style="stroke:none"
               inkscape:connector-curvature="0" />
          </symbol>
          <symbol
             id="textext-b10eabbe-3"
             overflow="visible"
             style="overflow:visible">
            <path
               id="path6280"
               d="m 1.75,-4.578125 -1.546875,0.546875 0,0.140625 0.078125,0 c 0.125,-0.03125 0.25,-0.03125 0.34375,-0.03125 0.234375,0 0.328125,0.15625 0.328125,0.59375 l 0,2.3125 c 0,0.71875 -0.109375,0.828125 -0.796875,0.859375 l 0,0.15625 2.359375,0 0,-0.15625 C 1.859375,-0.203125 1.78125,-0.296875 1.78125,-1.015625 l 0,-3.546875 z M 1.28125,-6.8125 c -0.28125,0 -0.5,0.234375 -0.5,0.515625 0,0.28125 0.21875,0.5 0.5,0.5 0.28125,0 0.515625,-0.21875 0.515625,-0.5 0,-0.28125 -0.234375,-0.515625 -0.515625,-0.515625 z m 0,0"
               style="stroke:none"
               inkscape:connector-curvature="0" />
          </symbol>
          <symbol
             id="textext-b10eabbe-4"
             overflow="visible"
             style="overflow:visible">
            <path
               id="path6283"
               d="M 3.96875,-1.5625 C 3.484375,-0.859375 3.125,-0.625 2.5625,-0.625 c -0.90625,0 -1.546875,-0.796875 -1.546875,-1.9375 0,-1.03125 0.546875,-1.734375 1.359375,-1.734375 0.359375,0 0.484375,0.109375 0.578125,0.484375 l 0.0625,0.21875 c 0.078125,0.28125 0.265625,0.453125 0.46875,0.453125 0.265625,0 0.484375,-0.1875 0.484375,-0.421875 0,-0.546875 -0.703125,-1.015625 -1.53125,-1.015625 -0.5,0 -1,0.1875 -1.40625,0.546875 -0.5,0.4375 -0.78125,1.125 -0.78125,1.90625 0,1.296875 0.78125,2.21875 1.890625,2.21875 0.453125,0 0.84375,-0.15625 1.203125,-0.46875 0.28125,-0.234375 0.46875,-0.5 0.765625,-1.09375 z m 0,0"
               style="stroke:none"
               inkscape:connector-curvature="0" />
          </symbol>
          <symbol
             id="textext-b10eabbe-5"
             overflow="visible"
             style="overflow:visible">
            <path
               id="path6286"
               d="M 4.0625,-1.640625 C 3.59375,-0.875 3.15625,-0.59375 2.515625,-0.59375 c -0.5625,0 -0.984375,-0.28125 -1.28125,-0.859375 -0.171875,-0.375 -0.25,-0.703125 -0.265625,-1.3125 l 3.0625,0 c -0.078125,-0.640625 -0.171875,-0.9375 -0.421875,-1.25 -0.296875,-0.359375 -0.765625,-0.5625 -1.28125,-0.5625 -0.5,0 -0.96875,0.171875 -1.34375,0.515625 C 0.515625,-3.65625 0.25,-2.953125 0.25,-2.140625 0.25,-0.75 0.96875,0.09375 2.109375,0.09375 c 0.953125,0 1.703125,-0.578125 2.125,-1.65625 z m -3.078125,-1.4375 c 0.109375,-0.78125 0.453125,-1.15625 1.0625,-1.15625 0.609375,0 0.84375,0.28125 0.96875,1.15625 z m 0,0"
               style="stroke:none"
               inkscape:connector-curvature="0" />
          </symbol>
        </g>
      </defs>
      <g
         id="textext-b10eabbe-6">
        <g
           id="g6289"
           style="fill:#000000;fill-opacity:1">
          <use
             id="use6291"
             y="134.765"
             x="223.43201"
             xlink:href="#textext-b10eabbe-1"
             width="425.19684"
             height="212.59842" />
        </g>
        <g
           id="g6293"
           style="fill:#000000;fill-opacity:1">
          <use
             id="use6295"
             y="134.765"
             x="229.33983"
             xlink:href="#textext-b10eabbe-2"
             width="425.19684"
             height="212.59842" />
          <use
             id="use6297"
             y="134.765"
             x="234.32112"
             xlink:href="#textext-b10eabbe-3"
             width="425.19684"
             height="212.59842" />
          <use
             id="use6299"
             y="134.765"
             x="237.09073"
             xlink:href="#textext-b10eabbe-4"
             width="425.19684"
             height="212.59842" />
          <use
             id="use6301"
             y="134.765"
             x="241.51411"
             xlink:href="#textext-b10eabbe-5"
             width="425.19684"
             height="212.59842" />
        </g>
      </g>
    </g>
    <g
       ns0:text="Identity of the"
       ns0:preamble="/home/sriranga/Desktop/Mangaluru-Project/src/chap1/package.tex"
       transform="matrix(1.2,0,0,1.2,39.579542,770.4493)"
       id="g6557">
      <defs
         id="defs6559">
        <g
           id="g6561">
          <symbol
             style="overflow:visible"
             overflow="visible"
             id="textext-2f6e5ffd-0">
            <path
               inkscape:connector-curvature="0"
               style="stroke:none"
               d=""
               id="path6564" />
          </symbol>
          <symbol
             style="overflow:visible"
             overflow="visible"
             id="textext-2f6e5ffd-1">
            <path
               inkscape:connector-curvature="0"
               style="stroke:none"
               d="m 1.140625,-1.09375 c 0,0.75 -0.125,0.875 -0.96875,0.90625 l 0,0.1875 2.96875,0 0,-0.1875 C 2.328125,-0.21875 2.15625,-0.359375 2.15625,-1.09375 l 0,-4.421875 c 0,-0.71875 0.140625,-0.859375 0.984375,-0.890625 l 0,-0.1875 -2.96875,0 0,0.1875 c 0.859375,0.046875 0.96875,0.15625 0.96875,0.890625 z m 0,0"
               id="path6567" />
          </symbol>
          <symbol
             style="overflow:visible"
             overflow="visible"
             id="textext-2f6e5ffd-2">
            <path
               inkscape:connector-curvature="0"
               style="stroke:none"
               d="m 3.421875,0.09375 1.46875,-0.515625 0,-0.15625 C 4.71875,-0.5625 4.6875,-0.5625 4.671875,-0.5625 c -0.359375,0 -0.4375,-0.109375 -0.4375,-0.578125 l 0,-5.640625 -0.0625,-0.03125 C 3.703125,-6.640625 3.34375,-6.546875 2.71875,-6.375 l 0,0.171875 c 0.078125,-0.015625 0.125,-0.015625 0.21875,-0.015625 0.359375,0 0.453125,0.09375 0.453125,0.5 l 0,1.5625 c -0.375,-0.3125 -0.65625,-0.421875 -1.046875,-0.421875 -1.140625,0 -2.078125,1.125 -2.078125,2.53125 0,1.28125 0.75,2.140625 1.84375,2.140625 0.5625,0 0.9375,-0.1875 1.28125,-0.65625 l 0,0.625 z m -0.03125,-1.109375 c 0,0.0625 -0.078125,0.1875 -0.171875,0.296875 -0.171875,0.203125 -0.421875,0.296875 -0.71875,0.296875 -0.828125,0 -1.375,-0.796875 -1.375,-2.015625 0,-1.125 0.484375,-1.875 1.25,-1.875 0.53125,0 1.015625,0.46875 1.015625,1 z m 0,0"
               id="path6570" />
          </symbol>
          <symbol
             style="overflow:visible"
             overflow="visible"
             id="textext-2f6e5ffd-3">
            <path
               inkscape:connector-curvature="0"
               style="stroke:none"
               d="M 4.0625,-1.640625 C 3.59375,-0.875 3.15625,-0.59375 2.515625,-0.59375 c -0.5625,0 -0.984375,-0.28125 -1.28125,-0.859375 -0.171875,-0.375 -0.25,-0.703125 -0.265625,-1.3125 l 3.0625,0 c -0.078125,-0.640625 -0.171875,-0.9375 -0.421875,-1.25 -0.296875,-0.359375 -0.765625,-0.5625 -1.28125,-0.5625 -0.5,0 -0.96875,0.171875 -1.34375,0.515625 C 0.515625,-3.65625 0.25,-2.953125 0.25,-2.140625 0.25,-0.75 0.96875,0.09375 2.109375,0.09375 c 0.953125,0 1.703125,-0.578125 2.125,-1.65625 z m -3.078125,-1.4375 c 0.109375,-0.78125 0.453125,-1.15625 1.0625,-1.15625 0.609375,0 0.84375,0.28125 0.96875,1.15625 z m 0,0"
               id="path6573" />
          </symbol>
          <symbol
             style="overflow:visible"
             overflow="visible"
             id="textext-2f6e5ffd-4">
            <path
               inkscape:connector-curvature="0"
               style="stroke:none"
               d="M 0.15625,-3.96875 C 0.21875,-4 0.3125,-4 0.421875,-4 c 0.28125,0 0.375,0.140625 0.375,0.625 l 0,2.484375 c 0,0.5625 -0.109375,0.703125 -0.625,0.734375 l 0,0.15625 2.125,0 0,-0.15625 C 1.78125,-0.1875 1.640625,-0.3125 1.640625,-0.671875 l 0,-2.796875 c 0.46875,-0.453125 0.6875,-0.5625 1.015625,-0.5625 0.5,0 0.734375,0.296875 0.734375,0.953125 l 0,2.09375 c 0,0.625 -0.125,0.796875 -0.625,0.828125 l 0,0.15625 2.0625,0 0,-0.15625 C 4.34375,-0.203125 4.234375,-0.3125 4.234375,-0.8125 l 0,-2.28125 c 0,-0.9375 -0.453125,-1.484375 -1.1875,-1.484375 -0.453125,0 -0.765625,0.15625 -1.4375,0.796875 l 0,-0.78125 -0.078125,-0.015625 c -0.484375,0.171875 -0.828125,0.28125 -1.375,0.4375 z m 0,0"
               id="path6576" />
          </symbol>
          <symbol
             style="overflow:visible"
             overflow="visible"
             id="textext-2f6e5ffd-5">
            <path
               inkscape:connector-curvature="0"
               style="stroke:none"
               d="m 2.546875,-4.484375 -1.015625,0 0,-1.15625 c 0,-0.09375 0,-0.125 -0.0625,-0.125 C 1.390625,-5.6875 1.328125,-5.59375 1.265625,-5.5 c -0.375,0.5625 -0.8125,1.03125 -0.96875,1.078125 C 0.1875,-4.359375 0.125,-4.28125 0.125,-4.234375 c 0,0.03125 0.015625,0.046875 0.046875,0.0625 l 0.53125,0 0,3 c 0,0.84375 0.296875,1.265625 0.875,1.265625 0.5,0 0.875,-0.234375 1.203125,-0.75 l -0.125,-0.109375 c -0.21875,0.25 -0.390625,0.34375 -0.609375,0.34375 C 1.6875,-0.421875 1.53125,-0.6875 1.53125,-1.3125 l 0,-2.859375 1.015625,0 z m 0,0"
               id="path6579" />
          </symbol>
          <symbol
             style="overflow:visible"
             overflow="visible"
             id="textext-2f6e5ffd-6">
            <path
               inkscape:connector-curvature="0"
               style="stroke:none"
               d="m 1.75,-4.578125 -1.546875,0.546875 0,0.140625 0.078125,0 c 0.125,-0.03125 0.25,-0.03125 0.34375,-0.03125 0.234375,0 0.328125,0.15625 0.328125,0.59375 l 0,2.3125 c 0,0.71875 -0.109375,0.828125 -0.796875,0.859375 l 0,0.15625 2.359375,0 0,-0.15625 C 1.859375,-0.203125 1.78125,-0.296875 1.78125,-1.015625 l 0,-3.546875 z M 1.28125,-6.8125 c -0.28125,0 -0.5,0.234375 -0.5,0.515625 0,0.28125 0.21875,0.5 0.5,0.5 0.28125,0 0.515625,-0.21875 0.515625,-0.5 0,-0.28125 -0.234375,-0.515625 -0.515625,-0.515625 z m 0,0"
               id="path6582" />
          </symbol>
          <symbol
             style="overflow:visible"
             overflow="visible"
             id="textext-2f6e5ffd-7">
            <path
               inkscape:connector-curvature="0"
               style="stroke:none"
               d="m 4.734375,-4.484375 -1.34375,0 0,0.140625 c 0.3125,0 0.484375,0.09375 0.484375,0.25 0,0.046875 -0.015625,0.109375 -0.046875,0.171875 l -0.96875,2.75 L 1.71875,-3.6875 c -0.0625,-0.140625 -0.109375,-0.265625 -0.109375,-0.375 0,-0.1875 0.15625,-0.25 0.578125,-0.28125 l 0,-0.140625 -2.046875,0 0,0.140625 c 0.265625,0.03125 0.421875,0.140625 0.5,0.3125 L 1.78125,-1.578125 1.8125,-1.5 1.96875,-1.203125 c 0.28125,0.5 0.4375,0.859375 0.4375,1.015625 0,0.140625 -0.234375,0.78125 -0.40625,1.078125 -0.140625,0.25 -0.359375,0.4375 -0.5,0.4375 -0.046875,0 -0.140625,-0.015625 -0.25,-0.0625 C 1.0625,1.203125 0.890625,1.15625 0.734375,1.15625 c -0.234375,0 -0.4375,0.203125 -0.4375,0.4375 0,0.328125 0.328125,0.578125 0.734375,0.578125 0.671875,0 1.15625,-0.5625 1.6875,-2 L 4.25,-3.890625 C 4.390625,-4.203125 4.5,-4.3125 4.734375,-4.34375 z m 0,0"
               id="path6585" />
          </symbol>
          <symbol
             style="overflow:visible"
             overflow="visible"
             id="textext-2f6e5ffd-8">
            <path
               inkscape:connector-curvature="0"
               style="stroke:none"
               d="m 2.5,-4.578125 c -1.296875,0 -2.203125,0.953125 -2.203125,2.328125 0,1.34375 0.921875,2.34375 2.171875,2.34375 1.265625,0 2.21875,-1.046875 2.21875,-2.421875 0,-1.3125 -0.921875,-2.25 -2.1875,-2.25 z M 2.359375,-4.3125 c 0.84375,0 1.421875,0.96875 1.421875,2.328125 0,1.125 -0.4375,1.8125 -1.1875,1.8125 -0.390625,0 -0.765625,-0.25 -0.96875,-0.640625 C 1.34375,-1.328125 1.1875,-2.03125 1.1875,-2.734375 1.1875,-3.6875 1.65625,-4.3125 2.359375,-4.3125 z m 0,0"
               id="path6588" />
          </symbol>
          <symbol
             style="overflow:visible"
             overflow="visible"
             id="textext-2f6e5ffd-9">
            <path
               inkscape:connector-curvature="0"
               style="stroke:none"
               d="m 3.078125,-4.484375 -1.21875,0 0,-1.15625 c 0,-0.578125 0.1875,-0.890625 0.5625,-0.890625 0.203125,0 0.34375,0.09375 0.53125,0.390625 0.15625,0.265625 0.28125,0.359375 0.453125,0.359375 0.21875,0 0.40625,-0.1875 0.40625,-0.40625 0,-0.359375 -0.4375,-0.625 -1.03125,-0.625 -0.625,0 -1.140625,0.265625 -1.40625,0.734375 -0.265625,0.4375 -0.34375,0.796875 -0.34375,1.59375 l -0.828125,0 0,0.3125 0.828125,0 0,3.140625 c 0,0.71875 -0.109375,0.84375 -0.828125,0.875 l 0,0.15625 2.59375,0 0,-0.15625 c -0.828125,-0.015625 -0.9375,-0.140625 -0.9375,-0.875 l 0,-3.140625 1.21875,0 z m 0,0"
               id="path6591" />
          </symbol>
          <symbol
             style="overflow:visible"
             overflow="visible"
             id="textext-2f6e5ffd-10">
            <path
               inkscape:connector-curvature="0"
               style="stroke:none"
               d="m 1.5625,-3.421875 c 0.421875,-0.453125 0.71875,-0.625 1.109375,-0.625 0.5,0 0.75,0.359375 0.75,1.0625 l 0,1.96875 c 0,0.671875 -0.109375,0.8125 -0.6875,0.859375 l 0,0.15625 2.125,0 0,-0.15625 C 4.3125,-0.25 4.25,-0.328125 4.25,-1.015625 L 4.25,-3 c 0,-1.046875 -0.40625,-1.578125 -1.21875,-1.578125 -0.59375,0 -1,0.234375 -1.46875,0.828125 l 0,-3.03125 L 1.515625,-6.8125 C 1.171875,-6.6875 0.921875,-6.609375 0.375,-6.453125 L 0.09375,-6.375 l 0,0.171875 c 0.046875,-0.015625 0.078125,-0.015625 0.125,-0.015625 0.421875,0 0.515625,0.078125 0.515625,0.5 l 0,4.703125 c 0,0.703125 -0.0625,0.78125 -0.640625,0.859375 L 0.09375,0 2.25,0 l 0,-0.15625 C 1.671875,-0.203125 1.5625,-0.328125 1.5625,-1.015625 z m 0,0"
               id="path6594" />
          </symbol>
        </g>
      </defs>
      <g
         id="textext-2f6e5ffd-11">
        <g
           style="fill:#000000;fill-opacity:1"
           id="g6597">
          <use
             height="212.59842"
             width="425.19684"
             xlink:href="#textext-2f6e5ffd-1"
             x="223.43201"
             y="134.765"
             id="use6599" />
          <use
             height="212.59842"
             width="425.19684"
             xlink:href="#textext-2f6e5ffd-2"
             x="226.74954"
             y="134.765"
             id="use6601" />
          <use
             height="212.59842"
             width="425.19684"
             xlink:href="#textext-2f6e5ffd-3"
             x="231.73085"
             y="134.765"
             id="use6603" />
          <use
             height="212.59842"
             width="425.19684"
             xlink:href="#textext-2f6e5ffd-4"
             x="236.15424"
             y="134.765"
             id="use6605" />
          <use
             height="212.59842"
             width="425.19684"
             xlink:href="#textext-2f6e5ffd-5"
             x="241.13554"
             y="134.765"
             id="use6607" />
          <use
             height="212.59842"
             width="425.19684"
             xlink:href="#textext-2f6e5ffd-6"
             x="243.90514"
             y="134.765"
             id="use6609" />
          <use
             height="212.59842"
             width="425.19684"
             xlink:href="#textext-2f6e5ffd-5"
             x="246.67474"
             y="134.765"
             id="use6611" />
          <use
             height="212.59842"
             width="425.19684"
             xlink:href="#textext-2f6e5ffd-7"
             x="249.44435"
             y="134.765"
             id="use6613" />
        </g>
        <g
           style="fill:#000000;fill-opacity:1"
           id="g6615">
          <use
             height="212.59842"
             width="425.19684"
             xlink:href="#textext-2f6e5ffd-8"
             x="256.91629"
             y="134.765"
             id="use6617" />
          <use
             height="212.59842"
             width="425.19684"
             xlink:href="#textext-2f6e5ffd-9"
             x="261.89761"
             y="134.765"
             id="use6619" />
        </g>
        <g
           style="fill:#000000;fill-opacity:1"
           id="g6621">
          <use
             height="212.59842"
             width="425.19684"
             xlink:href="#textext-2f6e5ffd-5"
             x="267.70578"
             y="134.765"
             id="use6623" />
          <use
             height="212.59842"
             width="425.19684"
             xlink:href="#textext-2f6e5ffd-10"
             x="270.4754"
             y="134.765"
             id="use6625" />
          <use
             height="212.59842"
             width="425.19684"
             xlink:href="#textext-2f6e5ffd-3"
             x="275.4567"
             y="134.765"
             id="use6627" />
        </g>
      </g>
    </g>
    <g
       id="g6923"
       transform="matrix(1.2,0,0,1.2,57.150974,784.75882)"
       ns0:preamble="/home/sriranga/Desktop/Mangaluru-Project/src/chap1/package.tex"
       ns0:text="speaker">
      <defs
         id="defs6925">
        <g
           id="g6927">
          <symbol
             id="textext-2f625e39-0"
             overflow="visible"
             style="overflow:visible">
            <path
               id="path6930"
               d=""
               style="stroke:none"
               inkscape:connector-curvature="0" />
          </symbol>
          <symbol
             id="textext-2f625e39-1"
             overflow="visible"
             style="overflow:visible">
            <path
               id="path6933"
               d="m 3.140625,-3.125 -0.046875,-1.359375 -0.109375,0 L 2.96875,-4.46875 C 2.875,-4.390625 2.875,-4.390625 2.828125,-4.390625 c -0.0625,0 -0.15625,-0.015625 -0.265625,-0.0625 -0.21875,-0.078125 -0.4375,-0.125 -0.703125,-0.125 -0.78125,0 -1.34375,0.515625 -1.34375,1.234375 0,0.546875 0.3125,0.953125 1.15625,1.4375 L 2.25,-1.578125 c 0.359375,0.1875 0.515625,0.4375 0.515625,0.734375 0,0.4375 -0.3125,0.71875 -0.828125,0.71875 -0.328125,0 -0.640625,-0.125 -0.828125,-0.34375 -0.21875,-0.25 -0.296875,-0.484375 -0.4375,-1.046875 l -0.15625,0 0,1.5625 0.125,0 C 0.71875,-0.0625 0.75,-0.078125 0.875,-0.078125 c 0.09375,0 0.234375,0.015625 0.453125,0.078125 0.28125,0.0625 0.5625,0.09375 0.734375,0.09375 0.765625,0 1.40625,-0.578125 1.40625,-1.265625 0,-0.5 -0.234375,-0.828125 -0.84375,-1.1875 L 1.5625,-3 C 1.28125,-3.15625 1.125,-3.40625 1.125,-3.671875 c 0,-0.40625 0.3125,-0.6875 0.765625,-0.6875 0.578125,0 0.875,0.34375 1.09375,1.234375 z m 0,0"
               style="stroke:none"
               inkscape:connector-curvature="0" />
          </symbol>
          <symbol
             id="textext-2f625e39-2"
             overflow="visible"
             style="overflow:visible">
            <path
               id="path6936"
               d="m 0.09375,-3.921875 c 0.078125,0 0.15625,0 0.25,0 0.328125,0 0.40625,0.09375 0.40625,0.5625 l 0,4.671875 C 0.75,1.828125 0.640625,1.9375 0.046875,2 l 0,0.15625 2.421875,0 0,-0.171875 c -0.75,-0.015625 -0.890625,-0.125 -0.890625,-0.75 l 0,-1.5625 C 1.9375,0 2.171875,0.09375 2.59375,0.09375 c 1.171875,0 2.09375,-1.109375 2.09375,-2.5625 0,-1.234375 -0.703125,-2.109375 -1.671875,-2.109375 -0.546875,0 -0.984375,0.234375 -1.4375,0.78125 l 0,-0.765625 L 1.53125,-4.578125 C 0.984375,-4.375 0.640625,-4.25 0.09375,-4.078125 z m 1.484375,0.59375 c 0,-0.296875 0.5625,-0.65625 1.03125,-0.65625 0.734375,0 1.21875,0.75 1.21875,1.90625 0,1.109375 -0.484375,1.859375 -1.203125,1.859375 -0.46875,0 -1.046875,-0.359375 -1.046875,-0.65625 z m 0,0"
               style="stroke:none"
               inkscape:connector-curvature="0" />
          </symbol>
          <symbol
             id="textext-2f625e39-3"
             overflow="visible"
             style="overflow:visible">
            <path
               id="path6939"
               d="M 4.0625,-1.640625 C 3.59375,-0.875 3.15625,-0.59375 2.515625,-0.59375 c -0.5625,0 -0.984375,-0.28125 -1.28125,-0.859375 -0.171875,-0.375 -0.25,-0.703125 -0.265625,-1.3125 l 3.0625,0 c -0.078125,-0.640625 -0.171875,-0.9375 -0.421875,-1.25 -0.296875,-0.359375 -0.765625,-0.5625 -1.28125,-0.5625 -0.5,0 -0.96875,0.171875 -1.34375,0.515625 C 0.515625,-3.65625 0.25,-2.953125 0.25,-2.140625 0.25,-0.75 0.96875,0.09375 2.109375,0.09375 c 0.953125,0 1.703125,-0.578125 2.125,-1.65625 z m -3.078125,-1.4375 c 0.109375,-0.78125 0.453125,-1.15625 1.0625,-1.15625 0.609375,0 0.84375,0.28125 0.96875,1.15625 z m 0,0"
               style="stroke:none"
               inkscape:connector-curvature="0" />
          </symbol>
          <symbol
             id="textext-2f625e39-4"
             overflow="visible"
             style="overflow:visible">
            <path
               id="path6942"
               d="m 4.40625,-0.65625 c -0.171875,0.140625 -0.296875,0.1875 -0.4375,0.1875 -0.234375,0 -0.296875,-0.140625 -0.296875,-0.578125 l 0,-1.9375 c 0,-0.53125 -0.046875,-0.8125 -0.203125,-1.046875 C 3.25,-4.390625 2.828125,-4.578125 2.234375,-4.578125 c -0.9375,0 -1.671875,0.484375 -1.671875,1.109375 0,0.234375 0.1875,0.421875 0.421875,0.421875 0.234375,0 0.453125,-0.1875 0.453125,-0.40625 0,-0.046875 -0.015625,-0.09375 -0.015625,-0.171875 -0.03125,-0.078125 -0.03125,-0.15625 -0.03125,-0.234375 0,-0.265625 0.3125,-0.484375 0.71875,-0.484375 0.484375,0 0.75,0.28125 0.75,0.828125 l 0,0.609375 c -1.53125,0.609375 -1.703125,0.6875 -2.125,1.078125 -0.21875,0.1875 -0.359375,0.53125 -0.359375,0.859375 0,0.625 0.4375,1.0625 1.046875,1.0625 0.4375,0 0.84375,-0.203125 1.453125,-0.71875 0.046875,0.515625 0.21875,0.71875 0.640625,0.71875 0.328125,0 0.546875,-0.109375 0.890625,-0.5 z m -1.546875,-0.5625 c 0,0.296875 -0.046875,0.390625 -0.25,0.515625 -0.25,0.140625 -0.53125,0.21875 -0.734375,0.21875 C 1.53125,-0.484375 1.25,-0.8125 1.25,-1.25 l 0,-0.03125 c 0,-0.59375 0.40625,-0.953125 1.609375,-1.390625 z m 0,0"
               style="stroke:none"
               inkscape:connector-curvature="0" />
          </symbol>
          <symbol
             id="textext-2f625e39-5"
             overflow="visible"
             style="overflow:visible">
            <path
               id="path6945"
               d="m 0.0625,-6.203125 c 0.140625,-0.015625 0.234375,-0.03125 0.328125,-0.03125 0.328125,0 0.421875,0.140625 0.421875,0.609375 l 0,4.8125 c 0,0.515625 -0.03125,0.546875 -0.75,0.65625 l 0,0.15625 2.34375,0 0,-0.15625 -0.203125,0 C 1.796875,-0.171875 1.65625,-0.3125 1.65625,-0.671875 l 0,-1.828125 1.390625,1.859375 0.03125,0.046875 c 0.015625,0.03125 0.046875,0.0625 0.078125,0.078125 0.078125,0.109375 0.109375,0.171875 0.109375,0.21875 0,0.09375 -0.09375,0.140625 -0.21875,0.140625 l -0.1875,0 0,0.15625 2.171875,0 0,-0.15625 C 4.59375,-0.171875 4.28125,-0.375 3.875,-0.875 L 2.34375,-2.8125 2.625,-3.078125 c 0.71875,-0.65625 1.328125,-1.125 1.625,-1.203125 0.140625,-0.03125 0.28125,-0.0625 0.453125,-0.0625 l 0.078125,0 0,-0.140625 -2.03125,0 0,0.140625 c 0.390625,0 0.5,0.046875 0.5,0.1875 0,0.078125 -0.09375,0.21875 -0.234375,0.34375 l -1.359375,1.203125 0,-4.171875 -0.046875,-0.03125 c -0.375,0.125 -0.65625,0.203125 -1.234375,0.359375 L 0.0625,-6.375 z m 0,0"
               style="stroke:none"
               inkscape:connector-curvature="0" />
          </symbol>
          <symbol
             id="textext-2f625e39-6"
             overflow="visible"
             style="overflow:visible">
            <path
               id="path6948"
               d="m 0.0625,-3.890625 c 0.140625,-0.03125 0.234375,-0.03125 0.359375,-0.03125 0.25,0 0.328125,0.15625 0.328125,0.59375 l 0,2.484375 c 0,0.5 -0.0625,0.578125 -0.703125,0.6875 l 0,0.15625 2.390625,0 0,-0.15625 C 1.765625,-0.171875 1.59375,-0.328125 1.59375,-0.890625 l 0,-2.25 c 0,-0.3125 0.4375,-0.8125 0.703125,-0.8125 0.0625,0 0.140625,0.046875 0.25,0.140625 0.171875,0.140625 0.28125,0.203125 0.40625,0.203125 0.234375,0 0.390625,-0.171875 0.390625,-0.453125 0,-0.328125 -0.21875,-0.515625 -0.546875,-0.515625 -0.421875,0 -0.71875,0.21875 -1.203125,0.921875 l 0,-0.90625 -0.046875,-0.015625 c -0.53125,0.21875 -0.890625,0.34375 -1.484375,0.53125 z m 0,0"
               style="stroke:none"
               inkscape:connector-curvature="0" />
          </symbol>
        </g>
      </defs>
      <g
         id="textext-2f625e39-7">
        <g
           id="g6951"
           style="fill:#000000;fill-opacity:1">
          <use
             id="use6953"
             y="134.765"
             x="223.43201"
             xlink:href="#textext-2f625e39-1"
             width="425.19684"
             height="212.59842" />
          <use
             id="use6955"
             y="134.765"
             x="227.30745"
             xlink:href="#textext-2f625e39-2"
             width="425.19684"
             height="212.59842" />
          <use
             id="use6957"
             y="134.765"
             x="232.28876"
             xlink:href="#textext-2f625e39-3"
             width="425.19684"
             height="212.59842" />
          <use
             id="use6959"
             y="134.765"
             x="236.71214"
             xlink:href="#textext-2f625e39-4"
             width="425.19684"
             height="212.59842" />
          <use
             id="use6961"
             y="134.765"
             x="241.13554"
             xlink:href="#textext-2f625e39-5"
             width="425.19684"
             height="212.59842" />
        </g>
        <g
           id="g6963"
           style="fill:#000000;fill-opacity:1">
          <use
             id="use6965"
             y="134.765"
             x="246.01721"
             xlink:href="#textext-2f625e39-3"
             width="425.19684"
             height="212.59842" />
          <use
             id="use6967"
             y="134.765"
             x="250.44061"
             xlink:href="#textext-2f625e39-6"
             width="425.19684"
             height="212.59842" />
        </g>
      </g>
    </g>
  </g>
</svg>
