<?xml version="1.0" encoding="UTF-8" standalone="no"?>
<!-- Created with Inkscape (http://www.inkscape.org/) -->

<svg
   xmlns:ns0="http://www.iki.fi/pav/software/textext/"
   xmlns:dc="http://purl.org/dc/elements/1.1/"
   xmlns:cc="http://creativecommons.org/ns#"
   xmlns:rdf="http://www.w3.org/1999/02/22-rdf-syntax-ns#"
   xmlns:svg="http://www.w3.org/2000/svg"
   xmlns="http://www.w3.org/2000/svg"
   xmlns:xlink="http://www.w3.org/1999/xlink"
   xmlns:sodipodi="http://sodipodi.sourceforge.net/DTD/sodipodi-0.dtd"
   xmlns:inkscape="http://www.inkscape.org/namespaces/inkscape"
   width="496.06299"
   height="212.59842"
   id="svg2"
   version="1.1"
   inkscape:version="0.48.4 r9939"
   sodipodi:docname="fig6.eps">
  <sodipodi:namedview
     id="base"
     pagecolor="#ffffff"
     bordercolor="#666666"
     borderopacity="1.0"
     inkscape:pageopacity="0.0"
     inkscape:pageshadow="2"
     inkscape:zoom="1.4487063"
     inkscape:cx="204.80947"
     inkscape:cy="-25.302592"
     inkscape:document-units="px"
     inkscape:current-layer="layer1"
     showgrid="false"
     units="cm"
     inkscape:window-width="1024"
     inkscape:window-height="744"
     inkscape:window-x="0"
     inkscape:window-y="24"
     inkscape:window-maximized="1" />
  <defs
     id="defs4">
    <marker
       inkscape:stockid="Arrow1Mend"
       orient="auto"
       refY="0"
       refX="0"
       id="Arrow1Mend"
       style="overflow:visible">
      <path
         id="path3925"
         d="M 0,0 5,-5 -12.5,0 5,5 0,0 z"
         style="fill-rule:evenodd;stroke:#000000;stroke-width:1pt"
         transform="matrix(-0.4,0,0,-0.4,-4,0)"
         inkscape:connector-curvature="0" />
    </marker>
  </defs>
  <metadata
     id="metadata7">
    <rdf:RDF>
      <cc:Work
         rdf:about="">
        <dc:format>image/svg+xml</dc:format>
        <dc:type
           rdf:resource="http://purl.org/dc/dcmitype/StillImage" />
        <dc:title></dc:title>
      </cc:Work>
    </rdf:RDF>
  </metadata>
  <g
     transform="translate(0,-839.76245)"
     id="layer1"
     inkscape:groupmode="layer"
     inkscape:label="Layer 1">
    <path
       inkscape:connector-curvature="0"
       id="path4356"
       d="m 42.05429,932.10814 39.240719,0"
       style="fill:none;stroke:#000000;stroke-width:1.375;stroke-linecap:butt;stroke-linejoin:miter;stroke-miterlimit:4;stroke-opacity:1;stroke-dasharray:none;marker-end:url(#Arrow1Mend)"
       sodipodi:nodetypes="cc" />
    <g
       id="g7376"
       transform="matrix(1.2,0,0,1.2,-170.60687,773.46306)"
       ns0:preamble="/home/sriranga/Desktop/Mangaluru-Project/src/chap1/package.tex"
       ns0:text="Transmitter">
      <defs
         id="defs7378">
        <g
           id="g7380">
          <symbol
             id="textext-ae8f4fa2-0"
             overflow="visible"
             style="overflow:visible">
            <path
               id="path7383"
               d=""
               style="stroke:none"
               inkscape:connector-curvature="0" />
          </symbol>
          <symbol
             id="textext-ae8f4fa2-1"
             overflow="visible"
             style="overflow:visible">
            <path
               id="path7386"
               d="m 2.53125,-6.1875 0,4.984375 c 0,0.859375 -0.109375,0.96875 -0.9375,1.015625 L 1.59375,0 4.5,0 4.5,-0.1875 C 3.6875,-0.234375 3.546875,-0.359375 3.546875,-1.09375 l 0,-5.09375 0.546875,0 c 1.125,0 1.34375,0.1875 1.578125,1.28125 l 0.234375,0 -0.046875,-1.6875 -5.625,0 -0.0625,1.6875 0.234375,0 C 0.640625,-5.984375 0.875,-6.1875 2,-6.1875 z m 0,0"
               style="stroke:none"
               inkscape:connector-curvature="0" />
          </symbol>
          <symbol
             id="textext-ae8f4fa2-2"
             overflow="visible"
             style="overflow:visible">
            <path
               id="path7389"
               d="m 0.0625,-3.890625 c 0.140625,-0.03125 0.234375,-0.03125 0.359375,-0.03125 0.25,0 0.328125,0.15625 0.328125,0.59375 l 0,2.484375 c 0,0.5 -0.0625,0.578125 -0.703125,0.6875 l 0,0.15625 2.390625,0 0,-0.15625 C 1.765625,-0.171875 1.59375,-0.328125 1.59375,-0.890625 l 0,-2.25 c 0,-0.3125 0.4375,-0.8125 0.703125,-0.8125 0.0625,0 0.140625,0.046875 0.25,0.140625 0.171875,0.140625 0.28125,0.203125 0.40625,0.203125 0.234375,0 0.390625,-0.171875 0.390625,-0.453125 0,-0.328125 -0.21875,-0.515625 -0.546875,-0.515625 -0.421875,0 -0.71875,0.21875 -1.203125,0.921875 l 0,-0.90625 -0.046875,-0.015625 c -0.53125,0.21875 -0.890625,0.34375 -1.484375,0.53125 z m 0,0"
               style="stroke:none"
               inkscape:connector-curvature="0" />
          </symbol>
          <symbol
             id="textext-ae8f4fa2-3"
             overflow="visible"
             style="overflow:visible">
            <path
               id="path7392"
               d="m 4.40625,-0.65625 c -0.171875,0.140625 -0.296875,0.1875 -0.4375,0.1875 -0.234375,0 -0.296875,-0.140625 -0.296875,-0.578125 l 0,-1.9375 c 0,-0.53125 -0.046875,-0.8125 -0.203125,-1.046875 C 3.25,-4.390625 2.828125,-4.578125 2.234375,-4.578125 c -0.9375,0 -1.671875,0.484375 -1.671875,1.109375 0,0.234375 0.1875,0.421875 0.421875,0.421875 0.234375,0 0.453125,-0.1875 0.453125,-0.40625 0,-0.046875 -0.015625,-0.09375 -0.015625,-0.171875 -0.03125,-0.078125 -0.03125,-0.15625 -0.03125,-0.234375 0,-0.265625 0.3125,-0.484375 0.71875,-0.484375 0.484375,0 0.75,0.28125 0.75,0.828125 l 0,0.609375 c -1.53125,0.609375 -1.703125,0.6875 -2.125,1.078125 -0.21875,0.1875 -0.359375,0.53125 -0.359375,0.859375 0,0.625 0.4375,1.0625 1.046875,1.0625 0.4375,0 0.84375,-0.203125 1.453125,-0.71875 0.046875,0.515625 0.21875,0.71875 0.640625,0.71875 0.328125,0 0.546875,-0.109375 0.890625,-0.5 z m -1.546875,-0.5625 c 0,0.296875 -0.046875,0.390625 -0.25,0.515625 -0.25,0.140625 -0.53125,0.21875 -0.734375,0.21875 C 1.53125,-0.484375 1.25,-0.8125 1.25,-1.25 l 0,-0.03125 c 0,-0.59375 0.40625,-0.953125 1.609375,-1.390625 z m 0,0"
               style="stroke:none"
               inkscape:connector-curvature="0" />
          </symbol>
          <symbol
             id="textext-ae8f4fa2-4"
             overflow="visible"
             style="overflow:visible">
            <path
               id="path7395"
               d="M 0.15625,-3.96875 C 0.21875,-4 0.3125,-4 0.421875,-4 c 0.28125,0 0.375,0.140625 0.375,0.625 l 0,2.484375 c 0,0.5625 -0.109375,0.703125 -0.625,0.734375 l 0,0.15625 2.125,0 0,-0.15625 C 1.78125,-0.1875 1.640625,-0.3125 1.640625,-0.671875 l 0,-2.796875 c 0.46875,-0.453125 0.6875,-0.5625 1.015625,-0.5625 0.5,0 0.734375,0.296875 0.734375,0.953125 l 0,2.09375 c 0,0.625 -0.125,0.796875 -0.625,0.828125 l 0,0.15625 2.0625,0 0,-0.15625 C 4.34375,-0.203125 4.234375,-0.3125 4.234375,-0.8125 l 0,-2.28125 c 0,-0.9375 -0.453125,-1.484375 -1.1875,-1.484375 -0.453125,0 -0.765625,0.15625 -1.4375,0.796875 l 0,-0.78125 -0.078125,-0.015625 c -0.484375,0.171875 -0.828125,0.28125 -1.375,0.4375 z m 0,0"
               style="stroke:none"
               inkscape:connector-curvature="0" />
          </symbol>
          <symbol
             id="textext-ae8f4fa2-5"
             overflow="visible"
             style="overflow:visible">
            <path
               id="path7398"
               d="m 3.140625,-3.125 -0.046875,-1.359375 -0.109375,0 L 2.96875,-4.46875 C 2.875,-4.390625 2.875,-4.390625 2.828125,-4.390625 c -0.0625,0 -0.15625,-0.015625 -0.265625,-0.0625 -0.21875,-0.078125 -0.4375,-0.125 -0.703125,-0.125 -0.78125,0 -1.34375,0.515625 -1.34375,1.234375 0,0.546875 0.3125,0.953125 1.15625,1.4375 L 2.25,-1.578125 c 0.359375,0.1875 0.515625,0.4375 0.515625,0.734375 0,0.4375 -0.3125,0.71875 -0.828125,0.71875 -0.328125,0 -0.640625,-0.125 -0.828125,-0.34375 -0.21875,-0.25 -0.296875,-0.484375 -0.4375,-1.046875 l -0.15625,0 0,1.5625 0.125,0 C 0.71875,-0.0625 0.75,-0.078125 0.875,-0.078125 c 0.09375,0 0.234375,0.015625 0.453125,0.078125 0.28125,0.0625 0.5625,0.09375 0.734375,0.09375 0.765625,0 1.40625,-0.578125 1.40625,-1.265625 0,-0.5 -0.234375,-0.828125 -0.84375,-1.1875 L 1.5625,-3 C 1.28125,-3.15625 1.125,-3.40625 1.125,-3.671875 c 0,-0.40625 0.3125,-0.6875 0.765625,-0.6875 0.578125,0 0.875,0.34375 1.09375,1.234375 z m 0,0"
               style="stroke:none"
               inkscape:connector-curvature="0" />
          </symbol>
          <symbol
             id="textext-ae8f4fa2-6"
             overflow="visible"
             style="overflow:visible">
            <path
               id="path7401"
               d="M 0.1875,-3.96875 C 0.3125,-4 0.40625,-4 0.515625,-4 c 0.25,0 0.34375,0.15625 0.34375,0.625 l 0,2.53125 c 0,0.53125 -0.140625,0.6875 -0.703125,0.6875 l 0,0.15625 2.21875,0 0,-0.15625 C 1.84375,-0.171875 1.6875,-0.28125 1.6875,-0.671875 l 0,-2.8125 c 0,-0.015625 0.09375,-0.109375 0.15625,-0.1875 0.25,-0.21875 0.671875,-0.390625 1.03125,-0.390625 0.4375,0 0.65625,0.34375 0.65625,1.046875 l 0,2.15625 c 0,0.5625 -0.109375,0.671875 -0.6875,0.703125 l 0,0.15625 2.234375,0 0,-0.15625 c -0.5625,0 -0.71875,-0.171875 -0.71875,-0.796875 l 0,-2.5 C 4.671875,-3.890625 5,-4.0625 5.453125,-4.0625 c 0.5625,0 0.75,0.265625 0.75,1.09375 l 0,2.09375 c 0,0.578125 -0.078125,0.65625 -0.65625,0.71875 l 0,0.15625 2.171875,0 0,-0.15625 -0.25,-0.015625 C 7.171875,-0.1875 7.03125,-0.375 7.03125,-0.75 l 0,-2.0625 c 0,-1.171875 -0.375,-1.765625 -1.15625,-1.765625 -0.578125,0 -1.078125,0.25 -1.625,0.828125 -0.171875,-0.5625 -0.515625,-0.828125 -1.046875,-0.828125 -0.4375,0 -0.71875,0.125 -1.546875,0.765625 l 0,-0.75 -0.078125,-0.015625 c -0.5,0.1875 -0.84375,0.296875 -1.390625,0.4375 z m 0,0"
               style="stroke:none"
               inkscape:connector-curvature="0" />
          </symbol>
          <symbol
             id="textext-ae8f4fa2-7"
             overflow="visible"
             style="overflow:visible">
            <path
               id="path7404"
               d="m 1.75,-4.578125 -1.546875,0.546875 0,0.140625 0.078125,0 c 0.125,-0.03125 0.25,-0.03125 0.34375,-0.03125 0.234375,0 0.328125,0.15625 0.328125,0.59375 l 0,2.3125 c 0,0.71875 -0.109375,0.828125 -0.796875,0.859375 l 0,0.15625 2.359375,0 0,-0.15625 C 1.859375,-0.203125 1.78125,-0.296875 1.78125,-1.015625 l 0,-3.546875 z M 1.28125,-6.8125 c -0.28125,0 -0.5,0.234375 -0.5,0.515625 0,0.28125 0.21875,0.5 0.5,0.5 0.28125,0 0.515625,-0.21875 0.515625,-0.5 0,-0.28125 -0.234375,-0.515625 -0.515625,-0.515625 z m 0,0"
               style="stroke:none"
               inkscape:connector-curvature="0" />
          </symbol>
          <symbol
             id="textext-ae8f4fa2-8"
             overflow="visible"
             style="overflow:visible">
            <path
               id="path7407"
               d="m 2.546875,-4.484375 -1.015625,0 0,-1.15625 c 0,-0.09375 0,-0.125 -0.0625,-0.125 C 1.390625,-5.6875 1.328125,-5.59375 1.265625,-5.5 c -0.375,0.5625 -0.8125,1.03125 -0.96875,1.078125 C 0.1875,-4.359375 0.125,-4.28125 0.125,-4.234375 c 0,0.03125 0.015625,0.046875 0.046875,0.0625 l 0.53125,0 0,3 c 0,0.84375 0.296875,1.265625 0.875,1.265625 0.5,0 0.875,-0.234375 1.203125,-0.75 l -0.125,-0.109375 c -0.21875,0.25 -0.390625,0.34375 -0.609375,0.34375 C 1.6875,-0.421875 1.53125,-0.6875 1.53125,-1.3125 l 0,-2.859375 1.015625,0 z m 0,0"
               style="stroke:none"
               inkscape:connector-curvature="0" />
          </symbol>
          <symbol
             id="textext-ae8f4fa2-9"
             overflow="visible"
             style="overflow:visible">
            <path
               id="path7410"
               d="M 4.0625,-1.640625 C 3.59375,-0.875 3.15625,-0.59375 2.515625,-0.59375 c -0.5625,0 -0.984375,-0.28125 -1.28125,-0.859375 -0.171875,-0.375 -0.25,-0.703125 -0.265625,-1.3125 l 3.0625,0 c -0.078125,-0.640625 -0.171875,-0.9375 -0.421875,-1.25 -0.296875,-0.359375 -0.765625,-0.5625 -1.28125,-0.5625 -0.5,0 -0.96875,0.171875 -1.34375,0.515625 C 0.515625,-3.65625 0.25,-2.953125 0.25,-2.140625 0.25,-0.75 0.96875,0.09375 2.109375,0.09375 c 0.953125,0 1.703125,-0.578125 2.125,-1.65625 z m -3.078125,-1.4375 c 0.109375,-0.78125 0.453125,-1.15625 1.0625,-1.15625 0.609375,0 0.84375,0.28125 0.96875,1.15625 z m 0,0"
               style="stroke:none"
               inkscape:connector-curvature="0" />
          </symbol>
        </g>
      </defs>
      <g
         id="textext-ae8f4fa2-10">
        <g
           id="g7413"
           style="fill:#000000;fill-opacity:1">
          <use
             id="use7415"
             y="134.765"
             x="223.43201"
             xlink:href="#textext-ae8f4fa2-1"
             width="425.19684"
             height="212.59842" />
        </g>
        <g
           id="g7417"
           style="fill:#000000;fill-opacity:1">
          <use
             id="use7419"
             y="134.765"
             x="229.17046"
             xlink:href="#textext-ae8f4fa2-2"
             width="425.19684"
             height="212.59842" />
          <use
             id="use7421"
             y="134.765"
             x="232.48801"
             xlink:href="#textext-ae8f4fa2-3"
             width="425.19684"
             height="212.59842" />
          <use
             id="use7423"
             y="134.765"
             x="236.91139"
             xlink:href="#textext-ae8f4fa2-4"
             width="425.19684"
             height="212.59842" />
          <use
             id="use7425"
             y="134.765"
             x="241.8927"
             xlink:href="#textext-ae8f4fa2-5"
             width="425.19684"
             height="212.59842" />
          <use
             id="use7427"
             y="134.765"
             x="245.76814"
             xlink:href="#textext-ae8f4fa2-6"
             width="425.19684"
             height="212.59842" />
          <use
             id="use7429"
             y="134.765"
             x="253.51906"
             xlink:href="#textext-ae8f4fa2-7"
             width="425.19684"
             height="212.59842" />
          <use
             id="use7431"
             y="134.765"
             x="256.28867"
             xlink:href="#textext-ae8f4fa2-8"
             width="425.19684"
             height="212.59842" />
          <use
             id="use7433"
             y="134.765"
             x="259.05826"
             xlink:href="#textext-ae8f4fa2-8"
             width="425.19684"
             height="212.59842" />
          <use
             id="use7435"
             y="134.765"
             x="261.82785"
             xlink:href="#textext-ae8f4fa2-9"
             width="425.19684"
             height="212.59842" />
          <use
             id="use7437"
             y="134.765"
             x="266.25125"
             xlink:href="#textext-ae8f4fa2-2"
             width="425.19684"
             height="212.59842" />
        </g>
      </g>
    </g>
    <path
       sodipodi:nodetypes="cc"
       style="fill:none;stroke:#000000;stroke-width:1.375;stroke-linecap:butt;stroke-linejoin:miter;stroke-miterlimit:4;stroke-opacity:1;stroke-dasharray:none;marker-end:url(#Arrow1Mend)"
       d="m 166.74574,932.10814 28.04921,0"
       id="path7483"
       inkscape:connector-curvature="0" />
    <g
       ns0:text="Channel"
       ns0:preamble="/home/sriranga/Desktop/Mangaluru-Project/src/chap1/package.tex"
       transform="matrix(1.2,0,0,1.2,-45.333061,773.95116)"
       id="g7609">
      <defs
         id="defs7611">
        <g
           id="g7613">
          <symbol
             style="overflow:visible"
             overflow="visible"
             id="textext-8347fd0b-0">
            <path
               inkscape:connector-curvature="0"
               style="stroke:none"
               d=""
               id="path7616" />
          </symbol>
          <symbol
             style="overflow:visible"
             overflow="visible"
             id="textext-8347fd0b-1">
            <path
               inkscape:connector-curvature="0"
               style="stroke:none"
               d="m 6.1875,-4.484375 -0.09375,-2.25 -0.21875,0 C 5.828125,-6.53125 5.65625,-6.40625 5.46875,-6.40625 5.375,-6.40625 5.21875,-6.4375 5.078125,-6.5 4.578125,-6.65625 4.09375,-6.734375 3.625,-6.734375 2.796875,-6.734375 1.96875,-6.4375 1.359375,-5.875 0.65625,-5.265625 0.28125,-4.34375 0.28125,-3.234375 c 0,0.921875 0.296875,1.78125 0.8125,2.34375 0.59375,0.65625 1.515625,1.03125 2.5,1.03125 1.125,0 2.109375,-0.453125 2.71875,-1.265625 L 6.125,-1.3125 C 5.390625,-0.59375 4.734375,-0.296875 3.90625,-0.296875 3.28125,-0.296875 2.71875,-0.5 2.296875,-0.875 1.75,-1.359375 1.4375,-2.265625 1.4375,-3.375 c 0,-1.796875 0.921875,-2.96875 2.375,-2.96875 0.5625,0 1.078125,0.21875 1.484375,0.609375 0.3125,0.328125 0.46875,0.59375 0.65625,1.25 z m 0,0"
               id="path7619" />
          </symbol>
          <symbol
             style="overflow:visible"
             overflow="visible"
             id="textext-8347fd0b-2">
            <path
               inkscape:connector-curvature="0"
               style="stroke:none"
               d="m 1.5625,-3.421875 c 0.421875,-0.453125 0.71875,-0.625 1.109375,-0.625 0.5,0 0.75,0.359375 0.75,1.0625 l 0,1.96875 c 0,0.671875 -0.109375,0.8125 -0.6875,0.859375 l 0,0.15625 2.125,0 0,-0.15625 C 4.3125,-0.25 4.25,-0.328125 4.25,-1.015625 L 4.25,-3 c 0,-1.046875 -0.40625,-1.578125 -1.21875,-1.578125 -0.59375,0 -1,0.234375 -1.46875,0.828125 l 0,-3.03125 L 1.515625,-6.8125 C 1.171875,-6.6875 0.921875,-6.609375 0.375,-6.453125 L 0.09375,-6.375 l 0,0.171875 c 0.046875,-0.015625 0.078125,-0.015625 0.125,-0.015625 0.421875,0 0.515625,0.078125 0.515625,0.5 l 0,4.703125 c 0,0.703125 -0.0625,0.78125 -0.640625,0.859375 L 0.09375,0 2.25,0 l 0,-0.15625 C 1.671875,-0.203125 1.5625,-0.328125 1.5625,-1.015625 z m 0,0"
               id="path7622" />
          </symbol>
          <symbol
             style="overflow:visible"
             overflow="visible"
             id="textext-8347fd0b-3">
            <path
               inkscape:connector-curvature="0"
               style="stroke:none"
               d="m 4.40625,-0.65625 c -0.171875,0.140625 -0.296875,0.1875 -0.4375,0.1875 -0.234375,0 -0.296875,-0.140625 -0.296875,-0.578125 l 0,-1.9375 c 0,-0.53125 -0.046875,-0.8125 -0.203125,-1.046875 C 3.25,-4.390625 2.828125,-4.578125 2.234375,-4.578125 c -0.9375,0 -1.671875,0.484375 -1.671875,1.109375 0,0.234375 0.1875,0.421875 0.421875,0.421875 0.234375,0 0.453125,-0.1875 0.453125,-0.40625 0,-0.046875 -0.015625,-0.09375 -0.015625,-0.171875 -0.03125,-0.078125 -0.03125,-0.15625 -0.03125,-0.234375 0,-0.265625 0.3125,-0.484375 0.71875,-0.484375 0.484375,0 0.75,0.28125 0.75,0.828125 l 0,0.609375 c -1.53125,0.609375 -1.703125,0.6875 -2.125,1.078125 -0.21875,0.1875 -0.359375,0.53125 -0.359375,0.859375 0,0.625 0.4375,1.0625 1.046875,1.0625 0.4375,0 0.84375,-0.203125 1.453125,-0.71875 0.046875,0.515625 0.21875,0.71875 0.640625,0.71875 0.328125,0 0.546875,-0.109375 0.890625,-0.5 z m -1.546875,-0.5625 c 0,0.296875 -0.046875,0.390625 -0.25,0.515625 -0.25,0.140625 -0.53125,0.21875 -0.734375,0.21875 C 1.53125,-0.484375 1.25,-0.8125 1.25,-1.25 l 0,-0.03125 c 0,-0.59375 0.40625,-0.953125 1.609375,-1.390625 z m 0,0"
               id="path7625" />
          </symbol>
          <symbol
             style="overflow:visible"
             overflow="visible"
             id="textext-8347fd0b-4">
            <path
               inkscape:connector-curvature="0"
               style="stroke:none"
               d="M 0.15625,-3.96875 C 0.21875,-4 0.3125,-4 0.421875,-4 c 0.28125,0 0.375,0.140625 0.375,0.625 l 0,2.484375 c 0,0.5625 -0.109375,0.703125 -0.625,0.734375 l 0,0.15625 2.125,0 0,-0.15625 C 1.78125,-0.1875 1.640625,-0.3125 1.640625,-0.671875 l 0,-2.796875 c 0.46875,-0.453125 0.6875,-0.5625 1.015625,-0.5625 0.5,0 0.734375,0.296875 0.734375,0.953125 l 0,2.09375 c 0,0.625 -0.125,0.796875 -0.625,0.828125 l 0,0.15625 2.0625,0 0,-0.15625 C 4.34375,-0.203125 4.234375,-0.3125 4.234375,-0.8125 l 0,-2.28125 c 0,-0.9375 -0.453125,-1.484375 -1.1875,-1.484375 -0.453125,0 -0.765625,0.15625 -1.4375,0.796875 l 0,-0.78125 -0.078125,-0.015625 c -0.484375,0.171875 -0.828125,0.28125 -1.375,0.4375 z m 0,0"
               id="path7628" />
          </symbol>
          <symbol
             style="overflow:visible"
             overflow="visible"
             id="textext-8347fd0b-5">
            <path
               inkscape:connector-curvature="0"
               style="stroke:none"
               d="M 4.0625,-1.640625 C 3.59375,-0.875 3.15625,-0.59375 2.515625,-0.59375 c -0.5625,0 -0.984375,-0.28125 -1.28125,-0.859375 -0.171875,-0.375 -0.25,-0.703125 -0.265625,-1.3125 l 3.0625,0 c -0.078125,-0.640625 -0.171875,-0.9375 -0.421875,-1.25 -0.296875,-0.359375 -0.765625,-0.5625 -1.28125,-0.5625 -0.5,0 -0.96875,0.171875 -1.34375,0.515625 C 0.515625,-3.65625 0.25,-2.953125 0.25,-2.140625 0.25,-0.75 0.96875,0.09375 2.109375,0.09375 c 0.953125,0 1.703125,-0.578125 2.125,-1.65625 z m -3.078125,-1.4375 c 0.109375,-0.78125 0.453125,-1.15625 1.0625,-1.15625 0.609375,0 0.84375,0.28125 0.96875,1.15625 z m 0,0"
               id="path7631" />
          </symbol>
          <symbol
             style="overflow:visible"
             overflow="visible"
             id="textext-8347fd0b-6">
            <path
               inkscape:connector-curvature="0"
               style="stroke:none"
               d="m 0.1875,-6.203125 0.0625,0 c 0.109375,-0.015625 0.234375,-0.03125 0.3125,-0.03125 0.3125,0 0.421875,0.140625 0.421875,0.609375 l 0,4.75 c 0,0.546875 -0.140625,0.671875 -0.78125,0.71875 l 0,0.15625 2.359375,0 0,-0.15625 c -0.625,-0.03125 -0.75,-0.140625 -0.75,-0.6875 l 0,-5.9375 L 1.78125,-6.8125 C 1.25,-6.640625 0.875,-6.546875 0.1875,-6.375 z m 0,0"
               id="path7634" />
          </symbol>
        </g>
      </defs>
      <g
         id="textext-8347fd0b-7">
        <g
           style="fill:#000000;fill-opacity:1"
           id="g7637">
          <use
             height="212.59842"
             width="425.19684"
             xlink:href="#textext-8347fd0b-1"
             x="223.43201"
             y="134.765"
             id="use7639" />
          <use
             height="212.59842"
             width="425.19684"
             xlink:href="#textext-8347fd0b-2"
             x="230.07706"
             y="134.765"
             id="use7641" />
          <use
             height="212.59842"
             width="425.19684"
             xlink:href="#textext-8347fd0b-3"
             x="235.05835"
             y="134.765"
             id="use7643" />
          <use
             height="212.59842"
             width="425.19684"
             xlink:href="#textext-8347fd0b-4"
             x="239.48175"
             y="134.765"
             id="use7645" />
          <use
             height="212.59842"
             width="425.19684"
             xlink:href="#textext-8347fd0b-4"
             x="244.46304"
             y="134.765"
             id="use7647" />
          <use
             height="212.59842"
             width="425.19684"
             xlink:href="#textext-8347fd0b-5"
             x="249.44435"
             y="134.765"
             id="use7649" />
          <use
             height="212.59842"
             width="425.19684"
             xlink:href="#textext-8347fd0b-6"
             x="253.86774"
             y="134.765"
             id="use7651" />
        </g>
      </g>
    </g>
    <path
       inkscape:connector-curvature="0"
       id="path7725"
       d="m 280.74574,932.10814 28.04921,0"
       style="fill:none;stroke:#000000;stroke-width:1.375;stroke-linecap:butt;stroke-linejoin:miter;stroke-miterlimit:4;stroke-opacity:1;stroke-dasharray:none;marker-end:url(#Arrow1Mend)"
       sodipodi:nodetypes="cc" />
    <g
       id="g7857"
       transform="matrix(1.2,0,0,1.2,70.226459,773.95116)"
       ns0:preamble="/home/sriranga/Desktop/Mangaluru-Project/src/chap1/package.tex"
       ns0:text="Receiver">
      <defs
         id="defs7859">
        <g
           id="g7861">
          <symbol
             id="textext-99c0ef3f-0"
             overflow="visible"
             style="overflow:visible">
            <path
               id="path7864"
               d=""
               style="stroke:none"
               inkscape:connector-curvature="0" />
          </symbol>
          <symbol
             id="textext-99c0ef3f-1"
             overflow="visible"
             style="overflow:visible">
            <path
               id="path7867"
               d="M 6.5625,-0.1875 C 6.1875,-0.21875 5.984375,-0.3125 5.703125,-0.65625 L 3.65625,-3.1875 c 0.65625,-0.125 0.953125,-0.234375 1.28125,-0.515625 0.328125,-0.25 0.515625,-0.671875 0.515625,-1.140625 0,-0.4375 -0.125,-0.796875 -0.390625,-1.09375 -0.375,-0.40625 -1.203125,-0.65625 -2.140625,-0.65625 l -2.75,0 0,0.1875 c 0.75,0.078125 0.84375,0.1875 0.84375,0.890625 l 0,4.3125 c 0,0.828125 -0.09375,0.953125 -0.84375,1.015625 l 0,0.1875 2.765625,0 0,-0.1875 C 2.15625,-0.234375 2.03125,-0.375 2.03125,-1.09375 l 0,-1.953125 0.5625,-0.03125 L 4.96875,0 6.5625,0 z M 2.03125,-5.875 c 0,-0.28125 0.109375,-0.359375 0.515625,-0.359375 1.234375,0 1.8125,0.4375 1.8125,1.375 0,0.5 -0.203125,0.90625 -0.5625,1.09375 C 3.34375,-3.5 2.984375,-3.4375 2.03125,-3.421875 z m 0,0"
               style="stroke:none"
               inkscape:connector-curvature="0" />
          </symbol>
          <symbol
             id="textext-99c0ef3f-2"
             overflow="visible"
             style="overflow:visible">
            <path
               id="path7870"
               d="M 4.0625,-1.640625 C 3.59375,-0.875 3.15625,-0.59375 2.515625,-0.59375 c -0.5625,0 -0.984375,-0.28125 -1.28125,-0.859375 -0.171875,-0.375 -0.25,-0.703125 -0.265625,-1.3125 l 3.0625,0 c -0.078125,-0.640625 -0.171875,-0.9375 -0.421875,-1.25 -0.296875,-0.359375 -0.765625,-0.5625 -1.28125,-0.5625 -0.5,0 -0.96875,0.171875 -1.34375,0.515625 C 0.515625,-3.65625 0.25,-2.953125 0.25,-2.140625 0.25,-0.75 0.96875,0.09375 2.109375,0.09375 c 0.953125,0 1.703125,-0.578125 2.125,-1.65625 z m -3.078125,-1.4375 c 0.109375,-0.78125 0.453125,-1.15625 1.0625,-1.15625 0.609375,0 0.84375,0.28125 0.96875,1.15625 z m 0,0"
               style="stroke:none"
               inkscape:connector-curvature="0" />
          </symbol>
          <symbol
             id="textext-99c0ef3f-3"
             overflow="visible"
             style="overflow:visible">
            <path
               id="path7873"
               d="M 3.96875,-1.5625 C 3.484375,-0.859375 3.125,-0.625 2.5625,-0.625 c -0.90625,0 -1.546875,-0.796875 -1.546875,-1.9375 0,-1.03125 0.546875,-1.734375 1.359375,-1.734375 0.359375,0 0.484375,0.109375 0.578125,0.484375 l 0.0625,0.21875 c 0.078125,0.28125 0.265625,0.453125 0.46875,0.453125 0.265625,0 0.484375,-0.1875 0.484375,-0.421875 0,-0.546875 -0.703125,-1.015625 -1.53125,-1.015625 -0.5,0 -1,0.1875 -1.40625,0.546875 -0.5,0.4375 -0.78125,1.125 -0.78125,1.90625 0,1.296875 0.78125,2.21875 1.890625,2.21875 0.453125,0 0.84375,-0.15625 1.203125,-0.46875 0.28125,-0.234375 0.46875,-0.5 0.765625,-1.09375 z m 0,0"
               style="stroke:none"
               inkscape:connector-curvature="0" />
          </symbol>
          <symbol
             id="textext-99c0ef3f-4"
             overflow="visible"
             style="overflow:visible">
            <path
               id="path7876"
               d="m 1.75,-4.578125 -1.546875,0.546875 0,0.140625 0.078125,0 c 0.125,-0.03125 0.25,-0.03125 0.34375,-0.03125 0.234375,0 0.328125,0.15625 0.328125,0.59375 l 0,2.3125 c 0,0.71875 -0.109375,0.828125 -0.796875,0.859375 l 0,0.15625 2.359375,0 0,-0.15625 C 1.859375,-0.203125 1.78125,-0.296875 1.78125,-1.015625 l 0,-3.546875 z M 1.28125,-6.8125 c -0.28125,0 -0.5,0.234375 -0.5,0.515625 0,0.28125 0.21875,0.5 0.5,0.5 0.28125,0 0.515625,-0.21875 0.515625,-0.5 0,-0.28125 -0.234375,-0.515625 -0.515625,-0.515625 z m 0,0"
               style="stroke:none"
               inkscape:connector-curvature="0" />
          </symbol>
          <symbol
             id="textext-99c0ef3f-5"
             overflow="visible"
             style="overflow:visible">
            <path
               id="path7879"
               d="m 4.75,-4.484375 -1.375,0 0,0.140625 c 0.3125,0.03125 0.46875,0.140625 0.46875,0.328125 0,0.09375 -0.03125,0.203125 -0.0625,0.296875 L 2.796875,-1.140625 1.78125,-3.6875 C 1.71875,-3.828125 1.6875,-3.96875 1.6875,-4.0625 c 0,-0.171875 0.109375,-0.25 0.453125,-0.28125 l 0,-0.140625 -1.953125,0 0,0.140625 c 0.375,0.03125 0.453125,0.125 0.90625,1.15625 l 1.203125,2.859375 C 2.3125,-0.265625 2.34375,-0.203125 2.375,-0.125 2.4375,0.0625 2.5,0.140625 2.546875,0.140625 c 0.0625,0 0.140625,-0.125 0.28125,-0.5 L 4.109375,-3.5625 c 0.28125,-0.671875 0.34375,-0.75 0.640625,-0.78125 z m 0,0"
               style="stroke:none"
               inkscape:connector-curvature="0" />
          </symbol>
          <symbol
             id="textext-99c0ef3f-6"
             overflow="visible"
             style="overflow:visible">
            <path
               id="path7882"
               d="m 0.0625,-3.890625 c 0.140625,-0.03125 0.234375,-0.03125 0.359375,-0.03125 0.25,0 0.328125,0.15625 0.328125,0.59375 l 0,2.484375 c 0,0.5 -0.0625,0.578125 -0.703125,0.6875 l 0,0.15625 2.390625,0 0,-0.15625 C 1.765625,-0.171875 1.59375,-0.328125 1.59375,-0.890625 l 0,-2.25 c 0,-0.3125 0.4375,-0.8125 0.703125,-0.8125 0.0625,0 0.140625,0.046875 0.25,0.140625 0.171875,0.140625 0.28125,0.203125 0.40625,0.203125 0.234375,0 0.390625,-0.171875 0.390625,-0.453125 0,-0.328125 -0.21875,-0.515625 -0.546875,-0.515625 -0.421875,0 -0.71875,0.21875 -1.203125,0.921875 l 0,-0.90625 -0.046875,-0.015625 c -0.53125,0.21875 -0.890625,0.34375 -1.484375,0.53125 z m 0,0"
               style="stroke:none"
               inkscape:connector-curvature="0" />
          </symbol>
        </g>
      </defs>
      <g
         id="textext-99c0ef3f-7">
        <g
           id="g7885"
           style="fill:#000000;fill-opacity:1">
          <use
             id="use7887"
             y="134.765"
             x="223.43201"
             xlink:href="#textext-99c0ef3f-1"
             width="425.19684"
             height="212.59842" />
          <use
             id="use7889"
             y="134.765"
             x="230.07706"
             xlink:href="#textext-99c0ef3f-2"
             width="425.19684"
             height="212.59842" />
          <use
             id="use7891"
             y="134.765"
             x="234.50044"
             xlink:href="#textext-99c0ef3f-3"
             width="425.19684"
             height="212.59842" />
          <use
             id="use7893"
             y="134.765"
             x="238.92384"
             xlink:href="#textext-99c0ef3f-2"
             width="425.19684"
             height="212.59842" />
          <use
             id="use7895"
             y="134.765"
             x="243.34724"
             xlink:href="#textext-99c0ef3f-4"
             width="425.19684"
             height="212.59842" />
        </g>
        <g
           id="g7897"
           style="fill:#000000;fill-opacity:1">
          <use
             id="use7899"
             y="134.765"
             x="245.86778"
             xlink:href="#textext-99c0ef3f-5"
             width="425.19684"
             height="212.59842" />
        </g>
        <g
           id="g7901"
           style="fill:#000000;fill-opacity:1">
          <use
             id="use7903"
             y="134.765"
             x="250.69963"
             xlink:href="#textext-99c0ef3f-2"
             width="425.19684"
             height="212.59842" />
          <use
             id="use7905"
             y="134.765"
             x="255.12303"
             xlink:href="#textext-99c0ef3f-6"
             width="425.19684"
             height="212.59842" />
        </g>
      </g>
    </g>
    <path
       sodipodi:nodetypes="cc"
       style="fill:none;stroke:#000000;stroke-width:1.375;stroke-linecap:butt;stroke-linejoin:miter;stroke-miterlimit:4;stroke-opacity:1;stroke-dasharray:none;marker-end:url(#Arrow1Mend)"
       d="m 394.60294,932.10814 36.83493,0"
       id="path8010"
       inkscape:connector-curvature="0" />
    <rect
       y="914.88806"
       x="310.13147"
       height="33.849918"
       width="84.06514"
       id="rect8014"
       style="fill:none;stroke:#000000;stroke-width:1.375;stroke-miterlimit:4;stroke-opacity:1;stroke-dasharray:none;stroke-dashoffset:0" />
    <g
       ns0:text="Speech\n\nSignal\n\nor data"
       ns0:preamble="/home/sriranga/Desktop/Mangaluru-Project/src/chap1/package.tex"
       transform="matrix(1.2,0,0,1.2,-168.53606,841.46306)"
       id="g8196">
      <defs
         id="defs8198">
        <g
           id="g8200">
          <symbol
             overflow="visible"
             id="textext-cf1a3738-0"
             style="overflow:visible">
            <path
               style="stroke:none"
               d=""
               id="path8203"
               inkscape:connector-curvature="0" />
          </symbol>
          <symbol
             overflow="visible"
             id="textext-cf1a3738-1"
             style="overflow:visible">
            <path
               style="stroke:none"
               d="m 4.453125,-6.734375 -0.203125,0 c -0.046875,0.21875 -0.15625,0.328125 -0.328125,0.328125 -0.09375,0 -0.265625,-0.03125 -0.4375,-0.109375 C 3.125,-6.65625 2.75,-6.734375 2.4375,-6.734375 c -0.4375,0 -0.875,0.171875 -1.203125,0.453125 -0.34375,0.3125 -0.53125,0.734375 -0.53125,1.25 0,0.796875 0.4375,1.359375 1.5625,1.9375 0.71875,0.375 1.234375,0.796875 1.484375,1.171875 0.09375,0.125 0.140625,0.34375 0.140625,0.578125 0,0.671875 -0.5,1.125 -1.234375,1.125 -0.875,0 -1.515625,-0.546875 -2.015625,-1.765625 l -0.21875,0 0.296875,2.109375 0.21875,0 c 0.015625,-0.1875 0.125,-0.328125 0.28125,-0.328125 0.109375,0 0.28125,0.046875 0.46875,0.109375 0.375,0.15625 0.78125,0.234375 1.171875,0.234375 1.140625,0 2.03125,-0.78125 2.03125,-1.8125 C 4.890625,-2.5 4.34375,-3.140625 3.03125,-3.84375 1.984375,-4.421875 1.5625,-4.859375 1.5625,-5.40625 c 0,-0.546875 0.421875,-0.921875 1.046875,-0.921875 0.4375,0 0.859375,0.1875 1.203125,0.546875 0.3125,0.3125 0.453125,0.578125 0.609375,1.171875 l 0.25,0 z m 0,0"
               id="path8206"
               inkscape:connector-curvature="0" />
          </symbol>
          <symbol
             overflow="visible"
             id="textext-cf1a3738-2"
             style="overflow:visible">
            <path
               style="stroke:none"
               d="m 0.09375,-3.921875 c 0.078125,0 0.15625,0 0.25,0 0.328125,0 0.40625,0.09375 0.40625,0.5625 l 0,4.671875 C 0.75,1.828125 0.640625,1.9375 0.046875,2 l 0,0.15625 2.421875,0 0,-0.171875 c -0.75,-0.015625 -0.890625,-0.125 -0.890625,-0.75 l 0,-1.5625 C 1.9375,0 2.171875,0.09375 2.59375,0.09375 c 1.171875,0 2.09375,-1.109375 2.09375,-2.5625 0,-1.234375 -0.703125,-2.109375 -1.671875,-2.109375 -0.546875,0 -0.984375,0.234375 -1.4375,0.78125 l 0,-0.765625 L 1.53125,-4.578125 C 0.984375,-4.375 0.640625,-4.25 0.09375,-4.078125 z m 1.484375,0.59375 c 0,-0.296875 0.5625,-0.65625 1.03125,-0.65625 0.734375,0 1.21875,0.75 1.21875,1.90625 0,1.109375 -0.484375,1.859375 -1.203125,1.859375 -0.46875,0 -1.046875,-0.359375 -1.046875,-0.65625 z m 0,0"
               id="path8209"
               inkscape:connector-curvature="0" />
          </symbol>
          <symbol
             overflow="visible"
             id="textext-cf1a3738-3"
             style="overflow:visible">
            <path
               style="stroke:none"
               d="M 4.0625,-1.640625 C 3.59375,-0.875 3.15625,-0.59375 2.515625,-0.59375 c -0.5625,0 -0.984375,-0.28125 -1.28125,-0.859375 -0.171875,-0.375 -0.25,-0.703125 -0.265625,-1.3125 l 3.0625,0 c -0.078125,-0.640625 -0.171875,-0.9375 -0.421875,-1.25 -0.296875,-0.359375 -0.765625,-0.5625 -1.28125,-0.5625 -0.5,0 -0.96875,0.171875 -1.34375,0.515625 C 0.515625,-3.65625 0.25,-2.953125 0.25,-2.140625 0.25,-0.75 0.96875,0.09375 2.109375,0.09375 c 0.953125,0 1.703125,-0.578125 2.125,-1.65625 z m -3.078125,-1.4375 c 0.109375,-0.78125 0.453125,-1.15625 1.0625,-1.15625 0.609375,0 0.84375,0.28125 0.96875,1.15625 z m 0,0"
               id="path8212"
               inkscape:connector-curvature="0" />
          </symbol>
          <symbol
             overflow="visible"
             id="textext-cf1a3738-4"
             style="overflow:visible">
            <path
               style="stroke:none"
               d="M 3.96875,-1.5625 C 3.484375,-0.859375 3.125,-0.625 2.5625,-0.625 c -0.90625,0 -1.546875,-0.796875 -1.546875,-1.9375 0,-1.03125 0.546875,-1.734375 1.359375,-1.734375 0.359375,0 0.484375,0.109375 0.578125,0.484375 l 0.0625,0.21875 c 0.078125,0.28125 0.265625,0.453125 0.46875,0.453125 0.265625,0 0.484375,-0.1875 0.484375,-0.421875 0,-0.546875 -0.703125,-1.015625 -1.53125,-1.015625 -0.5,0 -1,0.1875 -1.40625,0.546875 -0.5,0.4375 -0.78125,1.125 -0.78125,1.90625 0,1.296875 0.78125,2.21875 1.890625,2.21875 0.453125,0 0.84375,-0.15625 1.203125,-0.46875 0.28125,-0.234375 0.46875,-0.5 0.765625,-1.09375 z m 0,0"
               id="path8215"
               inkscape:connector-curvature="0" />
          </symbol>
          <symbol
             overflow="visible"
             id="textext-cf1a3738-5"
             style="overflow:visible">
            <path
               style="stroke:none"
               d="m 1.5625,-3.421875 c 0.421875,-0.453125 0.71875,-0.625 1.109375,-0.625 0.5,0 0.75,0.359375 0.75,1.0625 l 0,1.96875 c 0,0.671875 -0.109375,0.8125 -0.6875,0.859375 l 0,0.15625 2.125,0 0,-0.15625 C 4.3125,-0.25 4.25,-0.328125 4.25,-1.015625 L 4.25,-3 c 0,-1.046875 -0.40625,-1.578125 -1.21875,-1.578125 -0.59375,0 -1,0.234375 -1.46875,0.828125 l 0,-3.03125 L 1.515625,-6.8125 C 1.171875,-6.6875 0.921875,-6.609375 0.375,-6.453125 L 0.09375,-6.375 l 0,0.171875 c 0.046875,-0.015625 0.078125,-0.015625 0.125,-0.015625 0.421875,0 0.515625,0.078125 0.515625,0.5 l 0,4.703125 c 0,0.703125 -0.0625,0.78125 -0.640625,0.859375 L 0.09375,0 2.25,0 l 0,-0.15625 C 1.671875,-0.203125 1.5625,-0.328125 1.5625,-1.015625 z m 0,0"
               id="path8218"
               inkscape:connector-curvature="0" />
          </symbol>
          <symbol
             overflow="visible"
             id="textext-cf1a3738-6"
             style="overflow:visible">
            <path
               style="stroke:none"
               d="m 1.75,-4.578125 -1.546875,0.546875 0,0.140625 0.078125,0 c 0.125,-0.03125 0.25,-0.03125 0.34375,-0.03125 0.234375,0 0.328125,0.15625 0.328125,0.59375 l 0,2.3125 c 0,0.71875 -0.109375,0.828125 -0.796875,0.859375 l 0,0.15625 2.359375,0 0,-0.15625 C 1.859375,-0.203125 1.78125,-0.296875 1.78125,-1.015625 l 0,-3.546875 z M 1.28125,-6.8125 c -0.28125,0 -0.5,0.234375 -0.5,0.515625 0,0.28125 0.21875,0.5 0.5,0.5 0.28125,0 0.515625,-0.21875 0.515625,-0.5 0,-0.28125 -0.234375,-0.515625 -0.515625,-0.515625 z m 0,0"
               id="path8221"
               inkscape:connector-curvature="0" />
          </symbol>
          <symbol
             overflow="visible"
             id="textext-cf1a3738-7"
             style="overflow:visible">
            <path
               style="stroke:none"
               d="m 4.6875,-3.875 0,-0.375 -0.765625,0 C 3.71875,-4.25 3.5625,-4.28125 3.375,-4.359375 L 3.15625,-4.4375 C 2.875,-4.53125 2.609375,-4.578125 2.359375,-4.578125 c -0.9375,0 -1.671875,0.703125 -1.671875,1.625 0,0.625 0.265625,1 0.921875,1.328125 -0.1875,0.171875 -0.359375,0.34375 -0.421875,0.40625 -0.328125,0.28125 -0.453125,0.484375 -0.453125,0.6875 0,0.203125 0.109375,0.328125 0.515625,0.515625 -0.703125,0.53125 -0.96875,0.859375 -0.96875,1.21875 0,0.53125 0.78125,0.96875 1.71875,0.96875 0.75,0 1.53125,-0.265625 2.046875,-0.671875 0.375,-0.3125 0.546875,-0.625 0.546875,-1.015625 0,-0.609375 -0.46875,-1.03125 -1.203125,-1.0625 l -1.28125,-0.0625 C 1.578125,-0.65625 1.328125,-0.75 1.328125,-0.90625 c 0,-0.203125 0.328125,-0.546875 0.59375,-0.625 0.09375,0 0.15625,0.015625 0.1875,0.015625 C 2.296875,-1.5 2.4375,-1.484375 2.5,-1.484375 c 0.359375,0 0.765625,-0.15625 1.0625,-0.421875 0.328125,-0.28125 0.484375,-0.625 0.484375,-1.125 C 4.046875,-3.3125 4,-3.546875 3.859375,-3.875 z M 1.46875,0.015625 c 0.328125,0.078125 1.125,0.140625 1.609375,0.140625 0.90625,0 1.234375,0.125 1.234375,0.484375 0,0.578125 -0.75,0.96875 -1.875,0.96875 -0.875,0 -1.453125,-0.296875 -1.453125,-0.734375 0,-0.234375 0.0625,-0.359375 0.484375,-0.859375 z M 1.515625,-3.375 c 0,-0.578125 0.28125,-0.9375 0.734375,-0.9375 0.3125,0 0.578125,0.171875 0.734375,0.46875 0.171875,0.359375 0.296875,0.8125 0.296875,1.203125 0,0.5625 -0.296875,0.90625 -0.75,0.90625 -0.59375,0 -1.015625,-0.640625 -1.015625,-1.609375 z m 0,0"
               id="path8224"
               inkscape:connector-curvature="0" />
          </symbol>
          <symbol
             overflow="visible"
             id="textext-cf1a3738-8"
             style="overflow:visible">
            <path
               style="stroke:none"
               d="M 0.15625,-3.96875 C 0.21875,-4 0.3125,-4 0.421875,-4 c 0.28125,0 0.375,0.140625 0.375,0.625 l 0,2.484375 c 0,0.5625 -0.109375,0.703125 -0.625,0.734375 l 0,0.15625 2.125,0 0,-0.15625 C 1.78125,-0.1875 1.640625,-0.3125 1.640625,-0.671875 l 0,-2.796875 c 0.46875,-0.453125 0.6875,-0.5625 1.015625,-0.5625 0.5,0 0.734375,0.296875 0.734375,0.953125 l 0,2.09375 c 0,0.625 -0.125,0.796875 -0.625,0.828125 l 0,0.15625 2.0625,0 0,-0.15625 C 4.34375,-0.203125 4.234375,-0.3125 4.234375,-0.8125 l 0,-2.28125 c 0,-0.9375 -0.453125,-1.484375 -1.1875,-1.484375 -0.453125,0 -0.765625,0.15625 -1.4375,0.796875 l 0,-0.78125 -0.078125,-0.015625 c -0.484375,0.171875 -0.828125,0.28125 -1.375,0.4375 z m 0,0"
               id="path8227"
               inkscape:connector-curvature="0" />
          </symbol>
          <symbol
             overflow="visible"
             id="textext-cf1a3738-9"
             style="overflow:visible">
            <path
               style="stroke:none"
               d="m 4.40625,-0.65625 c -0.171875,0.140625 -0.296875,0.1875 -0.4375,0.1875 -0.234375,0 -0.296875,-0.140625 -0.296875,-0.578125 l 0,-1.9375 c 0,-0.53125 -0.046875,-0.8125 -0.203125,-1.046875 C 3.25,-4.390625 2.828125,-4.578125 2.234375,-4.578125 c -0.9375,0 -1.671875,0.484375 -1.671875,1.109375 0,0.234375 0.1875,0.421875 0.421875,0.421875 0.234375,0 0.453125,-0.1875 0.453125,-0.40625 0,-0.046875 -0.015625,-0.09375 -0.015625,-0.171875 -0.03125,-0.078125 -0.03125,-0.15625 -0.03125,-0.234375 0,-0.265625 0.3125,-0.484375 0.71875,-0.484375 0.484375,0 0.75,0.28125 0.75,0.828125 l 0,0.609375 c -1.53125,0.609375 -1.703125,0.6875 -2.125,1.078125 -0.21875,0.1875 -0.359375,0.53125 -0.359375,0.859375 0,0.625 0.4375,1.0625 1.046875,1.0625 0.4375,0 0.84375,-0.203125 1.453125,-0.71875 0.046875,0.515625 0.21875,0.71875 0.640625,0.71875 0.328125,0 0.546875,-0.109375 0.890625,-0.5 z m -1.546875,-0.5625 c 0,0.296875 -0.046875,0.390625 -0.25,0.515625 -0.25,0.140625 -0.53125,0.21875 -0.734375,0.21875 C 1.53125,-0.484375 1.25,-0.8125 1.25,-1.25 l 0,-0.03125 c 0,-0.59375 0.40625,-0.953125 1.609375,-1.390625 z m 0,0"
               id="path8230"
               inkscape:connector-curvature="0" />
          </symbol>
          <symbol
             overflow="visible"
             id="textext-cf1a3738-10"
             style="overflow:visible">
            <path
               style="stroke:none"
               d="m 0.1875,-6.203125 0.0625,0 c 0.109375,-0.015625 0.234375,-0.03125 0.3125,-0.03125 0.3125,0 0.421875,0.140625 0.421875,0.609375 l 0,4.75 c 0,0.546875 -0.140625,0.671875 -0.78125,0.71875 l 0,0.15625 2.359375,0 0,-0.15625 c -0.625,-0.03125 -0.75,-0.140625 -0.75,-0.6875 l 0,-5.9375 L 1.78125,-6.8125 C 1.25,-6.640625 0.875,-6.546875 0.1875,-6.375 z m 0,0"
               id="path8233"
               inkscape:connector-curvature="0" />
          </symbol>
          <symbol
             overflow="visible"
             id="textext-cf1a3738-11"
             style="overflow:visible">
            <path
               style="stroke:none"
               d="m 2.5,-4.578125 c -1.296875,0 -2.203125,0.953125 -2.203125,2.328125 0,1.34375 0.921875,2.34375 2.171875,2.34375 1.265625,0 2.21875,-1.046875 2.21875,-2.421875 0,-1.3125 -0.921875,-2.25 -2.1875,-2.25 z M 2.359375,-4.3125 c 0.84375,0 1.421875,0.96875 1.421875,2.328125 0,1.125 -0.4375,1.8125 -1.1875,1.8125 -0.390625,0 -0.765625,-0.25 -0.96875,-0.640625 C 1.34375,-1.328125 1.1875,-2.03125 1.1875,-2.734375 1.1875,-3.6875 1.65625,-4.3125 2.359375,-4.3125 z m 0,0"
               id="path8236"
               inkscape:connector-curvature="0" />
          </symbol>
          <symbol
             overflow="visible"
             id="textext-cf1a3738-12"
             style="overflow:visible">
            <path
               style="stroke:none"
               d="m 0.0625,-3.890625 c 0.140625,-0.03125 0.234375,-0.03125 0.359375,-0.03125 0.25,0 0.328125,0.15625 0.328125,0.59375 l 0,2.484375 c 0,0.5 -0.0625,0.578125 -0.703125,0.6875 l 0,0.15625 2.390625,0 0,-0.15625 C 1.765625,-0.171875 1.59375,-0.328125 1.59375,-0.890625 l 0,-2.25 c 0,-0.3125 0.4375,-0.8125 0.703125,-0.8125 0.0625,0 0.140625,0.046875 0.25,0.140625 0.171875,0.140625 0.28125,0.203125 0.40625,0.203125 0.234375,0 0.390625,-0.171875 0.390625,-0.453125 0,-0.328125 -0.21875,-0.515625 -0.546875,-0.515625 -0.421875,0 -0.71875,0.21875 -1.203125,0.921875 l 0,-0.90625 -0.046875,-0.015625 c -0.53125,0.21875 -0.890625,0.34375 -1.484375,0.53125 z m 0,0"
               id="path8239"
               inkscape:connector-curvature="0" />
          </symbol>
          <symbol
             overflow="visible"
             id="textext-cf1a3738-13"
             style="overflow:visible">
            <path
               style="stroke:none"
               d="m 3.421875,0.09375 1.46875,-0.515625 0,-0.15625 C 4.71875,-0.5625 4.6875,-0.5625 4.671875,-0.5625 c -0.359375,0 -0.4375,-0.109375 -0.4375,-0.578125 l 0,-5.640625 -0.0625,-0.03125 C 3.703125,-6.640625 3.34375,-6.546875 2.71875,-6.375 l 0,0.171875 c 0.078125,-0.015625 0.125,-0.015625 0.21875,-0.015625 0.359375,0 0.453125,0.09375 0.453125,0.5 l 0,1.5625 c -0.375,-0.3125 -0.65625,-0.421875 -1.046875,-0.421875 -1.140625,0 -2.078125,1.125 -2.078125,2.53125 0,1.28125 0.75,2.140625 1.84375,2.140625 0.5625,0 0.9375,-0.1875 1.28125,-0.65625 l 0,0.625 z m -0.03125,-1.109375 c 0,0.0625 -0.078125,0.1875 -0.171875,0.296875 -0.171875,0.203125 -0.421875,0.296875 -0.71875,0.296875 -0.828125,0 -1.375,-0.796875 -1.375,-2.015625 0,-1.125 0.484375,-1.875 1.25,-1.875 0.53125,0 1.015625,0.46875 1.015625,1 z m 0,0"
               id="path8242"
               inkscape:connector-curvature="0" />
          </symbol>
          <symbol
             overflow="visible"
             id="textext-cf1a3738-14"
             style="overflow:visible">
            <path
               style="stroke:none"
               d="m 2.546875,-4.484375 -1.015625,0 0,-1.15625 c 0,-0.09375 0,-0.125 -0.0625,-0.125 C 1.390625,-5.6875 1.328125,-5.59375 1.265625,-5.5 c -0.375,0.5625 -0.8125,1.03125 -0.96875,1.078125 C 0.1875,-4.359375 0.125,-4.28125 0.125,-4.234375 c 0,0.03125 0.015625,0.046875 0.046875,0.0625 l 0.53125,0 0,3 c 0,0.84375 0.296875,1.265625 0.875,1.265625 0.5,0 0.875,-0.234375 1.203125,-0.75 l -0.125,-0.109375 c -0.21875,0.25 -0.390625,0.34375 -0.609375,0.34375 C 1.6875,-0.421875 1.53125,-0.6875 1.53125,-1.3125 l 0,-2.859375 1.015625,0 z m 0,0"
               id="path8245"
               inkscape:connector-curvature="0" />
          </symbol>
        </g>
      </defs>
      <g
         id="textext-cf1a3738-15">
        <g
           transform="translate(-78.432213,-67.9266)"
           style="fill:#000000;fill-opacity:1"
           id="g8248">
          <use
             height="212.59842"
             width="496.06299"
             xlink:href="#textext-cf1a3738-1"
             x="223.43201"
             y="134.765"
             id="use8250" />
          <use
             height="212.59842"
             width="496.06299"
             xlink:href="#textext-cf1a3738-2"
             x="228.97121"
             y="134.765"
             id="use8252" />
          <use
             height="212.59842"
             width="496.06299"
             xlink:href="#textext-cf1a3738-3"
             x="233.9525"
             y="134.765"
             id="use8254" />
          <use
             height="212.59842"
             width="496.06299"
             xlink:href="#textext-cf1a3738-3"
             x="238.3759"
             y="134.765"
             id="use8256" />
          <use
             height="212.59842"
             width="496.06299"
             xlink:href="#textext-cf1a3738-4"
             x="242.7993"
             y="134.765"
             id="use8258" />
          <use
             height="212.59842"
             width="496.06299"
             xlink:href="#textext-cf1a3738-5"
             x="247.22269"
             y="134.765"
             id="use8260" />
        </g>
        <g
           transform="translate(-92.668327,-67.9266)"
           style="fill:#000000;fill-opacity:1"
           id="g8262">
          <use
             height="212.59842"
             width="496.06299"
             xlink:href="#textext-cf1a3738-1"
             x="238.37601"
             y="146.72"
             id="use8264" />
          <use
             height="212.59842"
             width="496.06299"
             xlink:href="#textext-cf1a3738-6"
             x="243.91521"
             y="146.72"
             id="use8266" />
          <use
             height="212.59842"
             width="496.06299"
             xlink:href="#textext-cf1a3738-7"
             x="246.68481"
             y="146.72"
             id="use8268" />
          <use
             height="212.59842"
             width="496.06299"
             xlink:href="#textext-cf1a3738-8"
             x="251.66611"
             y="146.72"
             id="use8270" />
          <use
             height="212.59842"
             width="496.06299"
             xlink:href="#textext-cf1a3738-9"
             x="256.6474"
             y="146.72"
             id="use8272" />
          <use
             height="212.59842"
             width="496.06299"
             xlink:href="#textext-cf1a3738-10"
             x="261.0708"
             y="146.72"
             id="use8274" />
        </g>
        <g
           transform="translate(-92.668327,-68.333346)"
           style="fill:#000000;fill-opacity:1"
           id="g8276">
          <use
             height="212.59842"
             width="496.06299"
             xlink:href="#textext-cf1a3738-11"
             x="238.37601"
             y="158.675"
             id="use8278" />
          <use
             height="212.59842"
             width="496.06299"
             xlink:href="#textext-cf1a3738-12"
             x="243.3573"
             y="158.675"
             id="use8280" />
        </g>
        <g
           transform="translate(-92.668327,-68.333346)"
           style="fill:#000000;fill-opacity:1"
           id="g8282">
          <use
             height="212.59842"
             width="496.06299"
             xlink:href="#textext-cf1a3738-13"
             x="249.1655"
             y="158.675"
             id="use8284" />
          <use
             height="212.59842"
             width="496.06299"
             xlink:href="#textext-cf1a3738-9"
             x="254.14679"
             y="158.675"
             id="use8286" />
          <use
             height="212.59842"
             width="496.06299"
             xlink:href="#textext-cf1a3738-14"
             x="258.57019"
             y="158.675"
             id="use8288" />
          <use
             height="212.59842"
             width="496.06299"
             xlink:href="#textext-cf1a3738-9"
             x="261.33978"
             y="158.675"
             id="use8290" />
        </g>
      </g>
    </g>
    <g
       id="g8690"
       transform="matrix(1.2,0,0,1.2,8.173329,823.60468)"
       ns0:preamble="/home/sriranga/Desktop/Mangaluru-Project/src/chap1/package.tex"
       ns0:text="Estimation\n\nof message\n\nsignal">
      <defs
         id="defs8692">
        <g
           id="g8694">
          <symbol
             id="textext-a44d698a-0"
             overflow="visible"
             style="overflow:visible">
            <path
               id="path8697"
               d=""
               style="stroke:none"
               inkscape:connector-curvature="0" />
          </symbol>
          <symbol
             id="textext-a44d698a-1"
             overflow="visible"
             style="overflow:visible">
            <path
               id="path8700"
               d="m 5.953125,-1.6875 -0.28125,0 C 5.171875,-0.609375 4.75,-0.375 3.3125,-0.375 l -0.265625,0 C 2.5625,-0.375 2.140625,-0.421875 2.078125,-0.484375 2.03125,-0.515625 2,-0.625 2,-0.796875 l 0,-2.46875 1.53125,0 c 0.828125,0 0.96875,0.140625 1.109375,0.96875 l 0.21875,0 0,-2.3125 -0.21875,0 C 4.5625,-4.203125 4.53125,-4.0625 4.421875,-3.921875 4.28125,-3.75 4,-3.671875 3.53125,-3.671875 L 2,-3.671875 2,-5.875 c 0,-0.28125 0.0625,-0.34375 0.328125,-0.34375 l 1.34375,0 c 1.140625,0 1.359375,0.140625 1.515625,1.046875 l 0.25,0 -0.03125,-1.421875 -5.28125,0 0,0.1875 c 0.734375,0.0625 0.859375,0.203125 0.859375,0.890625 l 0,4.421875 c 0,0.703125 -0.140625,0.859375 -0.859375,0.90625 L 0.125,0 5.5,0 z m 0,0"
               style="stroke:none"
               inkscape:connector-curvature="0" />
          </symbol>
          <symbol
             id="textext-a44d698a-2"
             overflow="visible"
             style="overflow:visible">
            <path
               id="path8703"
               d="m 3.140625,-3.125 -0.046875,-1.359375 -0.109375,0 L 2.96875,-4.46875 C 2.875,-4.390625 2.875,-4.390625 2.828125,-4.390625 c -0.0625,0 -0.15625,-0.015625 -0.265625,-0.0625 -0.21875,-0.078125 -0.4375,-0.125 -0.703125,-0.125 -0.78125,0 -1.34375,0.515625 -1.34375,1.234375 0,0.546875 0.3125,0.953125 1.15625,1.4375 L 2.25,-1.578125 c 0.359375,0.1875 0.515625,0.4375 0.515625,0.734375 0,0.4375 -0.3125,0.71875 -0.828125,0.71875 -0.328125,0 -0.640625,-0.125 -0.828125,-0.34375 -0.21875,-0.25 -0.296875,-0.484375 -0.4375,-1.046875 l -0.15625,0 0,1.5625 0.125,0 C 0.71875,-0.0625 0.75,-0.078125 0.875,-0.078125 c 0.09375,0 0.234375,0.015625 0.453125,0.078125 0.28125,0.0625 0.5625,0.09375 0.734375,0.09375 0.765625,0 1.40625,-0.578125 1.40625,-1.265625 0,-0.5 -0.234375,-0.828125 -0.84375,-1.1875 L 1.5625,-3 C 1.28125,-3.15625 1.125,-3.40625 1.125,-3.671875 c 0,-0.40625 0.3125,-0.6875 0.765625,-0.6875 0.578125,0 0.875,0.34375 1.09375,1.234375 z m 0,0"
               style="stroke:none"
               inkscape:connector-curvature="0" />
          </symbol>
          <symbol
             id="textext-a44d698a-3"
             overflow="visible"
             style="overflow:visible">
            <path
               id="path8706"
               d="m 2.546875,-4.484375 -1.015625,0 0,-1.15625 c 0,-0.09375 0,-0.125 -0.0625,-0.125 C 1.390625,-5.6875 1.328125,-5.59375 1.265625,-5.5 c -0.375,0.5625 -0.8125,1.03125 -0.96875,1.078125 C 0.1875,-4.359375 0.125,-4.28125 0.125,-4.234375 c 0,0.03125 0.015625,0.046875 0.046875,0.0625 l 0.53125,0 0,3 c 0,0.84375 0.296875,1.265625 0.875,1.265625 0.5,0 0.875,-0.234375 1.203125,-0.75 l -0.125,-0.109375 c -0.21875,0.25 -0.390625,0.34375 -0.609375,0.34375 C 1.6875,-0.421875 1.53125,-0.6875 1.53125,-1.3125 l 0,-2.859375 1.015625,0 z m 0,0"
               style="stroke:none"
               inkscape:connector-curvature="0" />
          </symbol>
          <symbol
             id="textext-a44d698a-4"
             overflow="visible"
             style="overflow:visible">
            <path
               id="path8709"
               d="m 1.75,-4.578125 -1.546875,0.546875 0,0.140625 0.078125,0 c 0.125,-0.03125 0.25,-0.03125 0.34375,-0.03125 0.234375,0 0.328125,0.15625 0.328125,0.59375 l 0,2.3125 c 0,0.71875 -0.109375,0.828125 -0.796875,0.859375 l 0,0.15625 2.359375,0 0,-0.15625 C 1.859375,-0.203125 1.78125,-0.296875 1.78125,-1.015625 l 0,-3.546875 z M 1.28125,-6.8125 c -0.28125,0 -0.5,0.234375 -0.5,0.515625 0,0.28125 0.21875,0.5 0.5,0.5 0.28125,0 0.515625,-0.21875 0.515625,-0.5 0,-0.28125 -0.234375,-0.515625 -0.515625,-0.515625 z m 0,0"
               style="stroke:none"
               inkscape:connector-curvature="0" />
          </symbol>
          <symbol
             id="textext-a44d698a-5"
             overflow="visible"
             style="overflow:visible">
            <path
               id="path8712"
               d="M 0.1875,-3.96875 C 0.3125,-4 0.40625,-4 0.515625,-4 c 0.25,0 0.34375,0.15625 0.34375,0.625 l 0,2.53125 c 0,0.53125 -0.140625,0.6875 -0.703125,0.6875 l 0,0.15625 2.21875,0 0,-0.15625 C 1.84375,-0.171875 1.6875,-0.28125 1.6875,-0.671875 l 0,-2.8125 c 0,-0.015625 0.09375,-0.109375 0.15625,-0.1875 0.25,-0.21875 0.671875,-0.390625 1.03125,-0.390625 0.4375,0 0.65625,0.34375 0.65625,1.046875 l 0,2.15625 c 0,0.5625 -0.109375,0.671875 -0.6875,0.703125 l 0,0.15625 2.234375,0 0,-0.15625 c -0.5625,0 -0.71875,-0.171875 -0.71875,-0.796875 l 0,-2.5 C 4.671875,-3.890625 5,-4.0625 5.453125,-4.0625 c 0.5625,0 0.75,0.265625 0.75,1.09375 l 0,2.09375 c 0,0.578125 -0.078125,0.65625 -0.65625,0.71875 l 0,0.15625 2.171875,0 0,-0.15625 -0.25,-0.015625 C 7.171875,-0.1875 7.03125,-0.375 7.03125,-0.75 l 0,-2.0625 c 0,-1.171875 -0.375,-1.765625 -1.15625,-1.765625 -0.578125,0 -1.078125,0.25 -1.625,0.828125 -0.171875,-0.5625 -0.515625,-0.828125 -1.046875,-0.828125 -0.4375,0 -0.71875,0.125 -1.546875,0.765625 l 0,-0.75 -0.078125,-0.015625 c -0.5,0.1875 -0.84375,0.296875 -1.390625,0.4375 z m 0,0"
               style="stroke:none"
               inkscape:connector-curvature="0" />
          </symbol>
          <symbol
             id="textext-a44d698a-6"
             overflow="visible"
             style="overflow:visible">
            <path
               id="path8715"
               d="m 4.40625,-0.65625 c -0.171875,0.140625 -0.296875,0.1875 -0.4375,0.1875 -0.234375,0 -0.296875,-0.140625 -0.296875,-0.578125 l 0,-1.9375 c 0,-0.53125 -0.046875,-0.8125 -0.203125,-1.046875 C 3.25,-4.390625 2.828125,-4.578125 2.234375,-4.578125 c -0.9375,0 -1.671875,0.484375 -1.671875,1.109375 0,0.234375 0.1875,0.421875 0.421875,0.421875 0.234375,0 0.453125,-0.1875 0.453125,-0.40625 0,-0.046875 -0.015625,-0.09375 -0.015625,-0.171875 -0.03125,-0.078125 -0.03125,-0.15625 -0.03125,-0.234375 0,-0.265625 0.3125,-0.484375 0.71875,-0.484375 0.484375,0 0.75,0.28125 0.75,0.828125 l 0,0.609375 c -1.53125,0.609375 -1.703125,0.6875 -2.125,1.078125 -0.21875,0.1875 -0.359375,0.53125 -0.359375,0.859375 0,0.625 0.4375,1.0625 1.046875,1.0625 0.4375,0 0.84375,-0.203125 1.453125,-0.71875 0.046875,0.515625 0.21875,0.71875 0.640625,0.71875 0.328125,0 0.546875,-0.109375 0.890625,-0.5 z m -1.546875,-0.5625 c 0,0.296875 -0.046875,0.390625 -0.25,0.515625 -0.25,0.140625 -0.53125,0.21875 -0.734375,0.21875 C 1.53125,-0.484375 1.25,-0.8125 1.25,-1.25 l 0,-0.03125 c 0,-0.59375 0.40625,-0.953125 1.609375,-1.390625 z m 0,0"
               style="stroke:none"
               inkscape:connector-curvature="0" />
          </symbol>
          <symbol
             id="textext-a44d698a-7"
             overflow="visible"
             style="overflow:visible">
            <path
               id="path8718"
               d="m 2.5,-4.578125 c -1.296875,0 -2.203125,0.953125 -2.203125,2.328125 0,1.34375 0.921875,2.34375 2.171875,2.34375 1.265625,0 2.21875,-1.046875 2.21875,-2.421875 0,-1.3125 -0.921875,-2.25 -2.1875,-2.25 z M 2.359375,-4.3125 c 0.84375,0 1.421875,0.96875 1.421875,2.328125 0,1.125 -0.4375,1.8125 -1.1875,1.8125 -0.390625,0 -0.765625,-0.25 -0.96875,-0.640625 C 1.34375,-1.328125 1.1875,-2.03125 1.1875,-2.734375 1.1875,-3.6875 1.65625,-4.3125 2.359375,-4.3125 z m 0,0"
               style="stroke:none"
               inkscape:connector-curvature="0" />
          </symbol>
          <symbol
             id="textext-a44d698a-8"
             overflow="visible"
             style="overflow:visible">
            <path
               id="path8721"
               d="M 0.15625,-3.96875 C 0.21875,-4 0.3125,-4 0.421875,-4 c 0.28125,0 0.375,0.140625 0.375,0.625 l 0,2.484375 c 0,0.5625 -0.109375,0.703125 -0.625,0.734375 l 0,0.15625 2.125,0 0,-0.15625 C 1.78125,-0.1875 1.640625,-0.3125 1.640625,-0.671875 l 0,-2.796875 c 0.46875,-0.453125 0.6875,-0.5625 1.015625,-0.5625 0.5,0 0.734375,0.296875 0.734375,0.953125 l 0,2.09375 c 0,0.625 -0.125,0.796875 -0.625,0.828125 l 0,0.15625 2.0625,0 0,-0.15625 C 4.34375,-0.203125 4.234375,-0.3125 4.234375,-0.8125 l 0,-2.28125 c 0,-0.9375 -0.453125,-1.484375 -1.1875,-1.484375 -0.453125,0 -0.765625,0.15625 -1.4375,0.796875 l 0,-0.78125 -0.078125,-0.015625 c -0.484375,0.171875 -0.828125,0.28125 -1.375,0.4375 z m 0,0"
               style="stroke:none"
               inkscape:connector-curvature="0" />
          </symbol>
          <symbol
             id="textext-a44d698a-9"
             overflow="visible"
             style="overflow:visible">
            <path
               id="path8724"
               d="m 3.078125,-4.484375 -1.21875,0 0,-1.15625 c 0,-0.578125 0.1875,-0.890625 0.5625,-0.890625 0.203125,0 0.34375,0.09375 0.53125,0.390625 0.15625,0.265625 0.28125,0.359375 0.453125,0.359375 0.21875,0 0.40625,-0.1875 0.40625,-0.40625 0,-0.359375 -0.4375,-0.625 -1.03125,-0.625 -0.625,0 -1.140625,0.265625 -1.40625,0.734375 -0.265625,0.4375 -0.34375,0.796875 -0.34375,1.59375 l -0.828125,0 0,0.3125 0.828125,0 0,3.140625 c 0,0.71875 -0.109375,0.84375 -0.828125,0.875 l 0,0.15625 2.59375,0 0,-0.15625 c -0.828125,-0.015625 -0.9375,-0.140625 -0.9375,-0.875 l 0,-3.140625 1.21875,0 z m 0,0"
               style="stroke:none"
               inkscape:connector-curvature="0" />
          </symbol>
          <symbol
             id="textext-a44d698a-10"
             overflow="visible"
             style="overflow:visible">
            <path
               id="path8727"
               d="M 4.0625,-1.640625 C 3.59375,-0.875 3.15625,-0.59375 2.515625,-0.59375 c -0.5625,0 -0.984375,-0.28125 -1.28125,-0.859375 -0.171875,-0.375 -0.25,-0.703125 -0.265625,-1.3125 l 3.0625,0 c -0.078125,-0.640625 -0.171875,-0.9375 -0.421875,-1.25 -0.296875,-0.359375 -0.765625,-0.5625 -1.28125,-0.5625 -0.5,0 -0.96875,0.171875 -1.34375,0.515625 C 0.515625,-3.65625 0.25,-2.953125 0.25,-2.140625 0.25,-0.75 0.96875,0.09375 2.109375,0.09375 c 0.953125,0 1.703125,-0.578125 2.125,-1.65625 z m -3.078125,-1.4375 c 0.109375,-0.78125 0.453125,-1.15625 1.0625,-1.15625 0.609375,0 0.84375,0.28125 0.96875,1.15625 z m 0,0"
               style="stroke:none"
               inkscape:connector-curvature="0" />
          </symbol>
          <symbol
             id="textext-a44d698a-11"
             overflow="visible"
             style="overflow:visible">
            <path
               id="path8730"
               d="m 4.6875,-3.875 0,-0.375 -0.765625,0 C 3.71875,-4.25 3.5625,-4.28125 3.375,-4.359375 L 3.15625,-4.4375 C 2.875,-4.53125 2.609375,-4.578125 2.359375,-4.578125 c -0.9375,0 -1.671875,0.703125 -1.671875,1.625 0,0.625 0.265625,1 0.921875,1.328125 -0.1875,0.171875 -0.359375,0.34375 -0.421875,0.40625 -0.328125,0.28125 -0.453125,0.484375 -0.453125,0.6875 0,0.203125 0.109375,0.328125 0.515625,0.515625 -0.703125,0.53125 -0.96875,0.859375 -0.96875,1.21875 0,0.53125 0.78125,0.96875 1.71875,0.96875 0.75,0 1.53125,-0.265625 2.046875,-0.671875 0.375,-0.3125 0.546875,-0.625 0.546875,-1.015625 0,-0.609375 -0.46875,-1.03125 -1.203125,-1.0625 l -1.28125,-0.0625 C 1.578125,-0.65625 1.328125,-0.75 1.328125,-0.90625 c 0,-0.203125 0.328125,-0.546875 0.59375,-0.625 0.09375,0 0.15625,0.015625 0.1875,0.015625 C 2.296875,-1.5 2.4375,-1.484375 2.5,-1.484375 c 0.359375,0 0.765625,-0.15625 1.0625,-0.421875 0.328125,-0.28125 0.484375,-0.625 0.484375,-1.125 C 4.046875,-3.3125 4,-3.546875 3.859375,-3.875 z M 1.46875,0.015625 c 0.328125,0.078125 1.125,0.140625 1.609375,0.140625 0.90625,0 1.234375,0.125 1.234375,0.484375 0,0.578125 -0.75,0.96875 -1.875,0.96875 -0.875,0 -1.453125,-0.296875 -1.453125,-0.734375 0,-0.234375 0.0625,-0.359375 0.484375,-0.859375 z M 1.515625,-3.375 c 0,-0.578125 0.28125,-0.9375 0.734375,-0.9375 0.3125,0 0.578125,0.171875 0.734375,0.46875 0.171875,0.359375 0.296875,0.8125 0.296875,1.203125 0,0.5625 -0.296875,0.90625 -0.75,0.90625 -0.59375,0 -1.015625,-0.640625 -1.015625,-1.609375 z m 0,0"
               style="stroke:none"
               inkscape:connector-curvature="0" />
          </symbol>
          <symbol
             id="textext-a44d698a-12"
             overflow="visible"
             style="overflow:visible">
            <path
               id="path8733"
               d="m 0.1875,-6.203125 0.0625,0 c 0.109375,-0.015625 0.234375,-0.03125 0.3125,-0.03125 0.3125,0 0.421875,0.140625 0.421875,0.609375 l 0,4.75 c 0,0.546875 -0.140625,0.671875 -0.78125,0.71875 l 0,0.15625 2.359375,0 0,-0.15625 c -0.625,-0.03125 -0.75,-0.140625 -0.75,-0.6875 l 0,-5.9375 L 1.78125,-6.8125 C 1.25,-6.640625 0.875,-6.546875 0.1875,-6.375 z m 0,0"
               style="stroke:none"
               inkscape:connector-curvature="0" />
          </symbol>
        </g>
      </defs>
      <g
         id="textext-a44d698a-13">
        <g
           id="g8736"
           style="fill:#000000;fill-opacity:1"
           transform="translate(136.66669,-52.266875)">
          <use
             id="use8738"
             y="134.765"
             x="223.43201"
             xlink:href="#textext-a44d698a-1"
             width="496.06299"
             height="212.59842" />
          <use
             id="use8740"
             y="134.765"
             x="229.51915"
             xlink:href="#textext-a44d698a-2"
             width="496.06299"
             height="212.59842" />
          <use
             id="use8742"
             y="134.765"
             x="233.39461"
             xlink:href="#textext-a44d698a-3"
             width="496.06299"
             height="212.59842" />
          <use
             id="use8744"
             y="134.765"
             x="236.1642"
             xlink:href="#textext-a44d698a-4"
             width="496.06299"
             height="212.59842" />
          <use
             id="use8746"
             y="134.765"
             x="238.93381"
             xlink:href="#textext-a44d698a-5"
             width="496.06299"
             height="212.59842" />
          <use
             id="use8748"
             y="134.765"
             x="246.68471"
             xlink:href="#textext-a44d698a-6"
             width="496.06299"
             height="212.59842" />
          <use
             id="use8750"
             y="134.765"
             x="251.10811"
             xlink:href="#textext-a44d698a-3"
             width="496.06299"
             height="212.59842" />
          <use
             id="use8752"
             y="134.765"
             x="253.8777"
             xlink:href="#textext-a44d698a-4"
             width="496.06299"
             height="212.59842" />
          <use
             id="use8754"
             y="134.765"
             x="256.64731"
             xlink:href="#textext-a44d698a-7"
             width="496.06299"
             height="212.59842" />
          <use
             id="use8756"
             y="134.765"
             x="261.6286"
             xlink:href="#textext-a44d698a-8"
             width="496.06299"
             height="212.59842" />
        </g>
        <g
           id="g8758"
           style="fill:#000000;fill-opacity:1"
           transform="translate(120.80359,-53.690486)">
          <use
             id="use8760"
             y="146.72"
             x="238.37601"
             xlink:href="#textext-a44d698a-7"
             width="496.06299"
             height="212.59842" />
          <use
             id="use8762"
             y="146.72"
             x="243.3573"
             xlink:href="#textext-a44d698a-9"
             width="496.06299"
             height="212.59842" />
        </g>
        <g
           id="g8764"
           style="fill:#000000;fill-opacity:1"
           transform="translate(120.80359,-53.690486)">
          <use
             id="use8766"
             y="146.72"
             x="249.1655"
             xlink:href="#textext-a44d698a-5"
             width="496.06299"
             height="212.59842" />
          <use
             id="use8768"
             y="146.72"
             x="256.91641"
             xlink:href="#textext-a44d698a-10"
             width="496.06299"
             height="212.59842" />
          <use
             id="use8770"
             y="146.72"
             x="261.33978"
             xlink:href="#textext-a44d698a-2"
             width="496.06299"
             height="212.59842" />
          <use
             id="use8772"
             y="146.72"
             x="265.21524"
             xlink:href="#textext-a44d698a-2"
             width="496.06299"
             height="212.59842" />
          <use
             id="use8774"
             y="146.72"
             x="269.0907"
             xlink:href="#textext-a44d698a-6"
             width="496.06299"
             height="212.59842" />
          <use
             id="use8776"
             y="146.72"
             x="273.5141"
             xlink:href="#textext-a44d698a-11"
             width="496.06299"
             height="212.59842" />
          <use
             id="use8778"
             y="146.72"
             x="278.49539"
             xlink:href="#textext-a44d698a-10"
             width="496.06299"
             height="212.59842" />
        </g>
        <g
           id="g8780"
           style="fill:#000000;fill-opacity:1"
           transform="translate(140.73415,-55.114098)">
          <use
             id="use8782"
             y="158.675"
             x="238.37601"
             xlink:href="#textext-a44d698a-2"
             width="496.06299"
             height="212.59842" />
          <use
             id="use8784"
             y="158.675"
             x="242.25145"
             xlink:href="#textext-a44d698a-4"
             width="496.06299"
             height="212.59842" />
          <use
             id="use8786"
             y="158.675"
             x="245.02106"
             xlink:href="#textext-a44d698a-11"
             width="496.06299"
             height="212.59842" />
          <use
             id="use8788"
             y="158.675"
             x="250.00235"
             xlink:href="#textext-a44d698a-8"
             width="496.06299"
             height="212.59842" />
          <use
             id="use8790"
             y="158.675"
             x="254.98366"
             xlink:href="#textext-a44d698a-6"
             width="496.06299"
             height="212.59842" />
          <use
             id="use8792"
             y="158.675"
             x="259.40704"
             xlink:href="#textext-a44d698a-12"
             width="496.06299"
             height="212.59842" />
        </g>
      </g>
    </g>
    <rect
       style="fill:none;stroke:#000000;stroke-width:1.375;stroke-miterlimit:4;stroke-opacity:1;stroke-dasharray:none;stroke-dashoffset:0"
       id="rect9013"
       width="84.06514"
       height="33.849918"
       x="196.17908"
       y="914.88806" />
    <rect
       y="914.88806"
       x="82.667175"
       height="33.849918"
       width="84.06514"
       id="rect9015"
       style="fill:none;stroke:#000000;stroke-width:1.375;stroke-miterlimit:4;stroke-opacity:1;stroke-dasharray:none;stroke-dashoffset:0" />
  </g>
</svg>
