<?xml version="1.0" encoding="UTF-8" standalone="no"?>
<!-- Created with Inkscape (http://www.inkscape.org/) -->

<svg
   xmlns:ns0="http://www.iki.fi/pav/software/textext/"
   xmlns:dc="http://purl.org/dc/elements/1.1/"
   xmlns:cc="http://creativecommons.org/ns#"
   xmlns:rdf="http://www.w3.org/1999/02/22-rdf-syntax-ns#"
   xmlns:svg="http://www.w3.org/2000/svg"
   xmlns="http://www.w3.org/2000/svg"
   xmlns:xlink="http://www.w3.org/1999/xlink"
   xmlns:sodipodi="http://sodipodi.sourceforge.net/DTD/sodipodi-0.dtd"
   xmlns:inkscape="http://www.inkscape.org/namespaces/inkscape"
   id="svg2"
   version="1.1"
   inkscape:version="0.48.4 r9939"
   width="442.91336"
   height="248.03149"
   sodipodi:docname="fig9a.eps">
  <sodipodi:namedview
     pagecolor="#ffffff"
     bordercolor="#666666"
     borderopacity="1"
     objecttolerance="10"
     gridtolerance="10"
     guidetolerance="10"
     inkscape:pageopacity="0"
     inkscape:pageshadow="2"
     inkscape:window-width="1024"
     inkscape:window-height="744"
     id="namedview4"
     showgrid="false"
     units="cm"
     inkscape:zoom="1.2541744"
     inkscape:cx="101.97659"
     inkscape:cy="80.463969"
     inkscape:window-x="0"
     inkscape:window-y="24"
     inkscape:window-maximized="1"
     inkscape:current-layer="svg2" />
  <metadata
     id="metadata8">
    <rdf:RDF>
      <cc:Work
         rdf:about="">
        <dc:format>image/svg+xml</dc:format>
        <dc:type
           rdf:resource="http://purl.org/dc/dcmitype/StillImage" />
        <dc:title></dc:title>
      </cc:Work>
    </rdf:RDF>
  </metadata>
  <defs
     id="defs6" />
  <path
     style="fill:none;stroke:#000000;stroke-width:1.375;stroke-linecap:butt;stroke-linejoin:miter;stroke-opacity:1;stroke-miterlimit:4;stroke-dasharray:none"
     d="m 229.46766,196.16166 161.81134,0"
     id="path3759"
     inkscape:connector-curvature="0" />
  <path
     style="fill:none;stroke:#000000;stroke-width:1.375;stroke-linecap:butt;stroke-linejoin:miter;stroke-opacity:1;stroke-miterlimit:4;stroke-dasharray:none"
     d="m 304.58284,241.25413 0,-129.16864"
     id="path3761"
     inkscape:connector-curvature="0" />
  <path
     style="fill:none;stroke:#000000;stroke-width:1.25;stroke-linecap:butt;stroke-linejoin:miter;stroke-miterlimit:4;stroke-opacity:1;stroke-dasharray:none"
     d="m 238.4885,189.25508 c 60.44711,-8.84798 103.4253,-30.10591 130.8022,-63.00495"
     id="path3765"
     inkscape:connector-curvature="0"
     sodipodi:nodetypes="cc" />
  <path
     style="fill:none;stroke:#000000;stroke-width:1px;stroke-linecap:butt;stroke-linejoin:miter;stroke-opacity:1"
     d="m 219.60111,190.38268 4.22852,-0.42285"
     id="path3775"
     inkscape:connector-curvature="0" />
  <path
     style="fill:none;stroke:#000000;stroke-width:1px;stroke-linecap:butt;stroke-linejoin:miter;stroke-opacity:1"
     d="m 229.60861,189.25507 3.24186,-0.2819"
     id="path3777"
     inkscape:connector-curvature="0" />
  <path
     style="fill:none;stroke:#000000;stroke-width:1px;stroke-linecap:butt;stroke-linejoin:miter;stroke-opacity:1"
     d="m 370.77068,123.07874 2.11426,-3.24186"
     id="path3779"
     inkscape:connector-curvature="0" />
  <path
     style="fill:none;stroke:#000000;stroke-width:1px;stroke-linecap:butt;stroke-linejoin:miter;stroke-opacity:1"
     d="m 375.2811,115.67883 2.11426,-3.17139"
     id="path3781"
     inkscape:connector-curvature="0" />
  <text
     xml:space="preserve"
     style="font-size:10px;font-style:normal;font-variant:normal;font-weight:normal;font-stretch:normal;line-height:125%;letter-spacing:0px;word-spacing:0px;fill:#000000;fill-opacity:1;stroke:none;font-family:Nimbus Roman No9 L;-inkscape-font-specification:Nimbus Roman No9 L"
     x="308.96381"
     y="179.81139"
     id="text3783"
     sodipodi:linespacing="125%"><tspan
       sodipodi:role="line"
       id="tspan3785"
       x="308.96381"
       y="179.81139">C</tspan></text>
  <text
     xml:space="preserve"
     style="font-size:10px;font-style:normal;font-variant:normal;font-weight:normal;font-stretch:normal;line-height:125%;letter-spacing:0px;word-spacing:0px;fill:#000000;fill-opacity:1;stroke:none;font-family:Nimbus Roman No9 L;-inkscape-font-specification:Nimbus Roman No9 L"
     x="307.83621"
     y="211.94812"
     id="text3787"
     sodipodi:linespacing="125%"><tspan
       sodipodi:role="line"
       id="tspan3789"
       x="307.83621"
       y="211.94812">0</tspan></text>
  <text
     xml:space="preserve"
     style="font-size:10px;font-style:normal;font-variant:normal;font-weight:normal;font-stretch:normal;line-height:125%;letter-spacing:0px;word-spacing:0px;fill:#000000;fill-opacity:1;stroke:none;font-family:Nimbus Roman No9 L;-inkscape-font-specification:Nimbus Roman No9 L"
     x="271.47095"
     y="264.94556"
     id="text3791"
     sodipodi:linespacing="125%"><tspan
       sodipodi:role="line"
       id="tspan3793" /></text>
  <text
     xml:space="preserve"
     style="font-size:10px;font-style:normal;font-variant:normal;font-weight:normal;font-stretch:normal;line-height:125%;letter-spacing:0px;word-spacing:0px;fill:#000000;fill-opacity:1;stroke:none;font-family:Nimbus Roman No9 L;-inkscape-font-specification:Nimbus Roman No9 L"
     x="393.53421"
     y="200.67206"
     id="text3795"
     sodipodi:linespacing="125%"><tspan
       sodipodi:role="line"
       id="tspan3797"
       x="393.53421"
       y="200.67206">t</tspan></text>
  <g
     id="g3999"
     transform="matrix(1.2,0,0,1.2,38.670858,-38.471524)"
     ns0:preamble="/home/sriranga/Desktop/Mangaluru-Project/src/chap1/package.tex"
     ns0:text="$x{\\rm(t)}={\\rm Cc}^{\\rm at}$">
    <defs
       id="defs4001">
      <g
         id="g4003">
        <symbol
           id="textext-62b8132c-0"
           overflow="visible"
           style="overflow:visible">
          <path
             id="path4006"
             d=""
             style="stroke:none"
             inkscape:connector-curvature="0" />
        </symbol>
        <symbol
           id="textext-62b8132c-1"
           overflow="visible"
           style="overflow:visible">
          <path
             id="path4009"
             d="M 4,-1.109375 C 3.921875,-1.015625 3.875,-0.953125 3.78125,-0.84375 3.5625,-0.53125 3.4375,-0.4375 3.328125,-0.4375 3.1875,-0.4375 3.09375,-0.5625 3.015625,-0.84375 3,-0.921875 2.984375,-0.984375 2.984375,-1.015625 2.734375,-2.03125 2.625,-2.484375 2.625,-2.625 c 0.4375,-0.78125 0.796875,-1.21875 0.96875,-1.21875 0.0625,0 0.140625,0.03125 0.25,0.078125 0.109375,0.078125 0.1875,0.09375 0.265625,0.09375 0.203125,0 0.34375,-0.140625 0.34375,-0.359375 0,-0.203125 -0.171875,-0.359375 -0.40625,-0.359375 -0.4375,0 -0.8125,0.359375 -1.5,1.421875 L 2.4375,-3.515625 c -0.140625,-0.6875 -0.25,-0.875 -0.53125,-0.875 -0.21875,0 -0.546875,0.078125 -1.15625,0.28125 L 0.640625,-4.0625 0.671875,-3.921875 C 1.0625,-4 1.140625,-4.03125 1.234375,-4.03125 c 0.25,0 0.3125,0.09375 0.453125,0.6875 l 0.28125,1.234375 -0.8125,1.15625 C 0.953125,-0.640625 0.75,-0.46875 0.640625,-0.46875 0.59375,-0.46875 0.484375,-0.5 0.390625,-0.5625 0.265625,-0.625 0.15625,-0.65625 0.0625,-0.65625 c -0.1875,0 -0.328125,0.140625 -0.328125,0.34375 0,0.265625 0.203125,0.421875 0.5,0.421875 0.296875,0 0.421875,-0.09375 0.921875,-0.703125 0.265625,-0.3125 0.484375,-0.578125 0.890625,-1.15625 l 0.3125,1.1875 c 0.125,0.515625 0.25,0.671875 0.578125,0.671875 0.375,0 0.625,-0.234375 1.203125,-1.140625 z m 0,0"
             style="stroke:none"
             inkscape:connector-curvature="0" />
        </symbol>
        <symbol
           id="textext-62b8132c-2"
           overflow="visible"
           style="overflow:visible">
          <path
             id="path4012"
             d=""
             style="stroke:none"
             inkscape:connector-curvature="0" />
        </symbol>
        <symbol
           id="textext-62b8132c-3"
           overflow="visible"
           style="overflow:visible">
          <path
             id="path4015"
             d="M 2.9375,-6.734375 C 2.203125,-6.265625 1.90625,-6 1.53125,-5.546875 c -0.703125,0.875 -1.046875,1.875 -1.046875,3.03125 0,1.265625 0.359375,2.25 1.234375,3.265625 0.421875,0.46875 0.671875,0.703125 1.1875,1.015625 l 0.125,-0.15625 C 2.234375,0.984375 1.953125,0.625 1.6875,-0.125 1.453125,-0.78125 1.328125,-1.546875 1.328125,-2.546875 1.328125,-3.59375 1.46875,-4.40625 1.734375,-5.03125 2.015625,-5.640625 2.3125,-6 3.03125,-6.578125 z m 0,0"
             style="stroke:none"
             inkscape:connector-curvature="0" />
        </symbol>
        <symbol
           id="textext-62b8132c-4"
           overflow="visible"
           style="overflow:visible">
          <path
             id="path4018"
             d="m 2.546875,-4.484375 -1.015625,0 0,-1.15625 c 0,-0.09375 0,-0.125 -0.0625,-0.125 C 1.390625,-5.6875 1.328125,-5.59375 1.265625,-5.5 c -0.375,0.5625 -0.8125,1.03125 -0.96875,1.078125 C 0.1875,-4.359375 0.125,-4.28125 0.125,-4.234375 c 0,0.03125 0.015625,0.046875 0.046875,0.0625 l 0.53125,0 0,3 c 0,0.84375 0.296875,1.265625 0.875,1.265625 0.5,0 0.875,-0.234375 1.203125,-0.75 l -0.125,-0.109375 c -0.21875,0.25 -0.390625,0.34375 -0.609375,0.34375 C 1.6875,-0.421875 1.53125,-0.6875 1.53125,-1.3125 l 0,-2.859375 1.015625,0 z m 0,0"
             style="stroke:none"
             inkscape:connector-curvature="0" />
        </symbol>
        <symbol
           id="textext-62b8132c-5"
           overflow="visible"
           style="overflow:visible">
          <path
             id="path4021"
             d="M 0.375,1.765625 C 1.109375,1.28125 1.421875,1.03125 1.78125,0.5625 2.5,-0.296875 2.84375,-1.296875 2.84375,-2.46875 c 0,-1.265625 -0.375,-2.234375 -1.25,-3.25 C 1.1875,-6.203125 0.921875,-6.421875 0.40625,-6.734375 l -0.109375,0.15625 c 0.796875,0.625 1.0625,0.96875 1.34375,1.71875 0.234375,0.671875 0.34375,1.4375 0.34375,2.421875 0,1.046875 -0.125,1.875 -0.40625,2.484375 C 1.3125,0.671875 1,1.03125 0.296875,1.609375 z m 0,0"
             style="stroke:none"
             inkscape:connector-curvature="0" />
        </symbol>
        <symbol
           id="textext-62b8132c-6"
           overflow="visible"
           style="overflow:visible">
          <path
             id="path4024"
             d="m 6.1875,-4.484375 -0.09375,-2.25 -0.21875,0 C 5.828125,-6.53125 5.65625,-6.40625 5.46875,-6.40625 5.375,-6.40625 5.21875,-6.4375 5.078125,-6.5 4.578125,-6.65625 4.09375,-6.734375 3.625,-6.734375 2.796875,-6.734375 1.96875,-6.4375 1.359375,-5.875 0.65625,-5.265625 0.28125,-4.34375 0.28125,-3.234375 c 0,0.921875 0.296875,1.78125 0.8125,2.34375 0.59375,0.65625 1.515625,1.03125 2.5,1.03125 1.125,0 2.109375,-0.453125 2.71875,-1.265625 L 6.125,-1.3125 C 5.390625,-0.59375 4.734375,-0.296875 3.90625,-0.296875 3.28125,-0.296875 2.71875,-0.5 2.296875,-0.875 1.75,-1.359375 1.4375,-2.265625 1.4375,-3.375 c 0,-1.796875 0.921875,-2.96875 2.375,-2.96875 0.5625,0 1.078125,0.21875 1.484375,0.609375 0.3125,0.328125 0.46875,0.59375 0.65625,1.25 z m 0,0"
             style="stroke:none"
             inkscape:connector-curvature="0" />
        </symbol>
        <symbol
           id="textext-62b8132c-7"
           overflow="visible"
           style="overflow:visible">
          <path
             id="path4027"
             d="M 3.96875,-1.5625 C 3.484375,-0.859375 3.125,-0.625 2.5625,-0.625 c -0.90625,0 -1.546875,-0.796875 -1.546875,-1.9375 0,-1.03125 0.546875,-1.734375 1.359375,-1.734375 0.359375,0 0.484375,0.109375 0.578125,0.484375 l 0.0625,0.21875 c 0.078125,0.28125 0.265625,0.453125 0.46875,0.453125 0.265625,0 0.484375,-0.1875 0.484375,-0.421875 0,-0.546875 -0.703125,-1.015625 -1.53125,-1.015625 -0.5,0 -1,0.1875 -1.40625,0.546875 -0.5,0.4375 -0.78125,1.125 -0.78125,1.90625 0,1.296875 0.78125,2.21875 1.890625,2.21875 0.453125,0 0.84375,-0.15625 1.203125,-0.46875 0.28125,-0.234375 0.46875,-0.5 0.765625,-1.09375 z m 0,0"
             style="stroke:none"
             inkscape:connector-curvature="0" />
        </symbol>
        <symbol
           id="textext-62b8132c-8"
           overflow="visible"
           style="overflow:visible">
          <path
             id="path4030"
             d=""
             style="stroke:none"
             inkscape:connector-curvature="0" />
        </symbol>
        <symbol
           id="textext-62b8132c-9"
           overflow="visible"
           style="overflow:visible">
          <path
             id="path4033"
             d="m 5.71875,-3.296875 0,-0.546875 -5.09375,0 0,0.546875 z m 0,2.03125 0,-0.5625 -5.09375,0 0,0.5625 z m 0,0"
             style="stroke:none"
             inkscape:connector-curvature="0" />
        </symbol>
        <symbol
           id="textext-62b8132c-10"
           overflow="visible"
           style="overflow:visible">
          <path
             id="path4036"
             d=""
             style="stroke:none"
             inkscape:connector-curvature="0" />
        </symbol>
        <symbol
           id="textext-62b8132c-11"
           overflow="visible"
           style="overflow:visible">
          <path
             id="path4039"
             d="m 3.078125,-0.453125 c -0.109375,0.09375 -0.203125,0.125 -0.296875,0.125 -0.171875,0 -0.21875,-0.09375 -0.21875,-0.40625 l 0,-1.359375 c 0,-0.359375 -0.03125,-0.5625 -0.140625,-0.734375 -0.15625,-0.25 -0.453125,-0.375 -0.859375,-0.375 -0.65625,0 -1.171875,0.34375 -1.171875,0.78125 0,0.15625 0.140625,0.296875 0.296875,0.296875 C 0.859375,-2.125 1,-2.265625 1,-2.421875 1,-2.453125 1,-2.484375 0.984375,-2.53125 0.96875,-2.59375 0.96875,-2.640625 0.96875,-2.703125 c 0,-0.1875 0.21875,-0.328125 0.5,-0.328125 C 1.8125,-3.03125 2,-2.84375 2,-2.453125 l 0,0.421875 c -1.078125,0.421875 -1.1875,0.484375 -1.484375,0.75 -0.15625,0.140625 -0.25,0.375 -0.25,0.609375 0,0.4375 0.296875,0.734375 0.71875,0.734375 0.3125,0 0.59375,-0.140625 1.015625,-0.5 0.046875,0.359375 0.171875,0.5 0.453125,0.5 0.234375,0 0.390625,-0.078125 0.625,-0.34375 z M 2,-0.859375 c 0,0.21875 -0.03125,0.28125 -0.1875,0.359375 -0.15625,0.109375 -0.359375,0.171875 -0.5,0.171875 -0.25,0 -0.4375,-0.25 -0.4375,-0.546875 l 0,-0.03125 C 0.875,-1.3125 1.15625,-1.5625 2,-1.875 z m 0,0"
             style="stroke:none"
             inkscape:connector-curvature="0" />
        </symbol>
        <symbol
           id="textext-62b8132c-12"
           overflow="visible"
           style="overflow:visible">
          <path
             id="path4042"
             d="m 1.78125,-3.140625 -0.703125,0 0,-0.796875 c 0,-0.078125 -0.015625,-0.09375 -0.046875,-0.09375 -0.0625,0.0625 -0.09375,0.125 -0.140625,0.1875 -0.265625,0.390625 -0.5625,0.71875 -0.6875,0.75 C 0.125,-3.046875 0.09375,-3 0.09375,-2.96875 c 0,0.03125 0,0.046875 0.03125,0.0625 l 0.359375,0 0,2.09375 c 0,0.578125 0.21875,0.875 0.625,0.875 0.34375,0 0.609375,-0.15625 0.828125,-0.515625 L 1.859375,-0.53125 c -0.15625,0.171875 -0.265625,0.234375 -0.421875,0.234375 -0.265625,0 -0.359375,-0.1875 -0.359375,-0.625 l 0,-1.984375 0.703125,0 z m 0,0"
             style="stroke:none"
             inkscape:connector-curvature="0" />
        </symbol>
      </g>
    </defs>
    <g
       id="textext-62b8132c-13">
      <g
         id="g4045"
         style="fill:#000000;fill-opacity:1">
        <use
           id="use4047"
           y="134.765"
           x="223.92999"
           xlink:href="#textext-62b8132c-1"
           width="442.91336"
           height="248.03149" />
      </g>
      <g
         id="g4049"
         style="fill:#000000;fill-opacity:1">
        <use
           id="use4051"
           y="134.765"
           x="228.384"
           xlink:href="#textext-62b8132c-3"
           width="442.91336"
           height="248.03149" />
        <use
           id="use4053"
           y="134.765"
           x="231.70155"
           xlink:href="#textext-62b8132c-4"
           width="442.91336"
           height="248.03149" />
        <use
           id="use4055"
           y="134.765"
           x="234.47115"
           xlink:href="#textext-62b8132c-5"
           width="442.91336"
           height="248.03149" />
      </g>
      <g
         id="g4057"
         style="fill:#000000;fill-opacity:1">
        <use
           id="use4059"
           y="134.765"
           x="240.556"
           xlink:href="#textext-62b8132c-9"
           width="442.91336"
           height="248.03149" />
      </g>
      <g
         id="g4061"
         style="fill:#000000;fill-opacity:1">
        <use
           id="use4063"
           y="134.765"
           x="249.659"
           xlink:href="#textext-62b8132c-6"
           width="442.91336"
           height="248.03149" />
        <use
           id="use4065"
           y="134.765"
           x="256.30405"
           xlink:href="#textext-62b8132c-7"
           width="442.91336"
           height="248.03149" />
      </g>
      <g
         id="g4067"
         style="fill:#000000;fill-opacity:1">
        <use
           id="use4069"
           y="130.79201"
           x="260.728"
           xlink:href="#textext-62b8132c-11"
           width="442.91336"
           height="248.03149" />
        <use
           id="use4071"
           y="130.79201"
           x="263.82437"
           xlink:href="#textext-62b8132c-12"
           width="442.91336"
           height="248.03149" />
      </g>
    </g>
  </g>
</svg>
